<?xml version="1.0" encoding="utf-8"?>
<!-- Generator: Adobe Illustrator 16.0.4, SVG Export Plug-In . SVG Version: 6.00 Build 0)  -->
<!DOCTYPE svg PUBLIC "-//W3C//DTD SVG 1.1//EN" "http://www.w3.org/Graphics/SVG/1.1/DTD/svg11.dtd">
<svg version="1.1" id="Layer_1" xmlns="http://www.w3.org/2000/svg" xmlns:xlink="http://www.w3.org/1999/xlink" x="0px" y="0px"
	 width="382.199px" height="792px" viewBox="115.833 0 382.199 792" enable-background="new 115.833 0 382.199 792"
	 xml:space="preserve">
<g>
	<g>
		<path fill="#7206FF" d="M200.708,627.491v1.594h-9.526l-1.594-1.594v1.594h-9.527l-1.594-1.594v1.594h-9.526l-1.594-1.594v1.594
			h-20.647l-1.594-1.594v1.594h-9.527l-6.746-6.746V568.33h20.647l1.594,1.594v-1.594h65.129l6.747,6.746v9.527h-1.594l1.594,1.594
			v9.526h-1.594l1.594,1.594v9.526h-1.594l1.594,1.595v20.646h-20.647L200.708,627.491z"/>
		<path fill="#7206FF" d="M234.069,627.491v1.594h-9.526l-6.747-6.746V568.33h20.647l6.746,6.747v23.353l-2.928,3.188l2.928,3.263
			v24.205h-9.526L234.069,627.491z"/>
		<path fill="#7206FF" d="M256.31,627.491v1.594h-9.526l-6.747-6.746V568.33h31.768l6.746,6.747v54.008h-9.526l-1.594-1.594v1.594
			h-9.527L256.31,627.491z"/>
		<path fill="#7206FF" d="M300.792,629.085h-20.647l-6.747-6.746v-20.647h1.594l-1.594-1.594V568.33h20.647l6.747,6.746v20.647
			h-1.594l1.594,1.594V629.085z"/>
	</g>
</g>
<g>
	<path d="M133.54,457.089v1.371h-8.229l-5.82-5.819v-46.558h27.394l5.819,5.819v46.558h-8.229l-1.372-1.371v1.371h-8.192
		L133.54,457.089z"/>
	<path d="M162.305,457.089v1.371h-8.229l-5.82-5.819v-46.558h17.793l5.82,5.819v46.558h-8.192L162.305,457.089z"/>
	<path d="M181.469,457.089v1.371h-8.229l-5.82-5.819v-46.558h17.792l5.82,5.819v20.128l-2.521,2.743l2.521,2.817v20.869h-8.229
		L181.469,457.089z"/>
	<path d="M210.234,458.46h-17.793l-5.82-5.819v-17.793h1.372l-1.372-1.372v-27.393h8.229l1.372,1.371v-1.371h8.229l5.82,5.819
		v46.558H210.234z"/>
	<path d="M229.436,457.089v1.371h-17.793l-5.819-5.819v-46.558h8.229l1.372,1.371v-1.371h17.792l5.82,5.819v46.558h-8.229
		L229.436,457.089z"/>
	<path d="M248.6,457.089v1.371h-8.192l-5.82-5.819v-46.558h17.793l5.82,5.819v46.558h-8.229L248.6,457.089z"/>
	<path d="M259.572,458.46l-5.82-5.819v-46.558h14.864l5.523,5.522l3.225,3.521v39.33l-3.596,4.003H259.572z"/>
	<path d="M288.337,458.46l-5.82-5.819v-46.558h8.229l5.819,5.819v46.558H288.337z"/>
	<path d="M306.13,457.089v1.371H297.9l-5.819-5.819v-46.558h17.793l5.819,5.819v46.558h-8.192L306.13,457.089z"/>
	<path d="M334.895,457.089v1.371h-17.793l-5.819-5.819v-8.192h1.371l-1.371-1.371v-27.394h1.371l-1.371-1.372v-8.229h56.158
		l1.372,1.371v-1.371h36.994l5.819,5.819v8.229h-1.371l1.371,1.371v17.793h-1.371l1.371,1.371v8.229h-1.371l1.371,1.371v8.229
		h-17.793l-1.371-1.372v1.372h-8.229l-1.371-1.372v1.372h-17.793l-1.372-1.372v1.372h-8.229l-1.372-1.372v1.372h-8.229l-1.372-1.372
		v1.372h-8.229L334.895,457.089z"/>
	<path d="M440.465,458.46h-17.793l-5.819-5.819v-46.558h17.793l5.819,5.819v20.128l-2.521,2.743l2.521,2.817V458.46z"/>
	<path d="M450.028,457.089v1.371H441.8l-5.82-5.819v-46.558h17.793l5.819,5.819v46.558h-8.229L450.028,457.089z"/>
	<path d="M478.831,457.089v1.371h-17.793l-5.82-5.819v-36.994h1.372l-1.372-1.372v-8.229h36.994l5.82,5.819v8.229h-1.372
		l1.372,1.371v36.994h-17.793L478.831,457.089z"/>
</g>
<g>
	<path d="M132.613,46.187h-11.417V14.864h11.417v14.679h-4.782v-9.897h-1.854v21.759h1.854V31.397h4.782V46.187z M121.456,45.779
		l2.039-2.039v-26.43l-2.039-2.039V45.779z M130.167,17.125l2.039-2.001h-10.602l2.039,2.001H130.167z M129.907,43.667l-2.001-2.002
		h-2.039l-2.001,2.002H129.907z M128.091,29.136l2.039-2.039V17.57l-2.039,2.002V29.136z M130.13,43.481V33.88l-2.039-2.039v9.675
		L130.13,43.481z M130.241,33.621l1.965-1.965h-3.966L130.241,33.621z"/>
	<path d="M141.102,32.917h-1.854v13.271h-4.782V14.864h11.417V46.15h-4.782V32.917z M136.765,43.741v-26.43l-2.039-2.039v30.47
		L136.765,43.741z M143.437,17.125l2.039-2.001h-10.602l2.039,2.001H143.437z M143.178,30.396l-2.001-2.001h-2.039l-1.964,2.001
		H143.178z M141.102,28.135v-8.489h-1.854v8.489H141.102z M143.4,30.21V17.57l-2.039,2.002v8.674L143.4,30.21z M141.361,45.779
		l2.039-2.039v-12.9l-2.039,2.001V45.779z"/>
	<path d="M165.79,46.187h-18.052V14.864h4.782v26.541h13.271V46.187z M147.997,45.779l2.039-2.039v-26.43l-2.039-2.039V45.779z
		 M150.146,17.088l1.965-1.964h-3.929L150.146,17.088z M163.343,43.667l2.039-2.002h-12.937l-2.001,2.002H163.343z M165.79,39.552
		h-11.417V14.864h11.417v11.417h-4.782v-6.635h-1.854V34.77h1.854v-6.635h4.782V39.552z M154.632,39.144l2.039-2.039V17.311
		l-2.039-2.039V39.144z M163.343,17.125l2.039-2.001H154.78l2.039,2.001H163.343z M163.083,37.031l-2.002-2.002h-2.039l-2.001,2.002
		H163.083z M161.267,25.874l2.039-2.039V17.57l-2.039,2.002V25.874z M163.306,36.846v-6.265l-2.039-2.039v6.302L163.306,36.846z
		 M163.417,30.359l1.965-1.964h-3.93L163.417,30.359z"/>
	<path d="M179.06,46.187h-11.417V14.864h4.782v26.541h1.853V14.864h4.782V46.187L179.06,46.187z M167.902,45.779l2.039-2.039v-26.43
		l-2.039-2.039V45.779z M170.052,17.088l1.964-1.964h-3.929L170.052,17.088z M176.354,43.667l-2.002-2.002h-2.039l-2.002,2.002
		H176.354z M176.539,43.481v-26.17l-2.039-2.039v26.208L176.539,43.481z M176.688,17.088l1.964-1.964h-3.929L176.688,17.088z"/>
	<path d="M192.293,46.187h-11.417V14.864h4.782v26.541h6.635V46.187L192.293,46.187z M181.173,45.779l2.039-2.039v-26.43
		l-2.039-2.039V45.779z M183.323,17.088l1.964-1.964h-3.929L183.323,17.088z M189.847,43.667l2.039-2.002h-6.301l-2.002,2.002
		H189.847z M198.928,46.187h-4.782V32.917h-1.854v6.635h-4.782V14.864h11.417V46.187L198.928,46.187z M189.81,37.105V17.311
		l-2.039-2.039v23.835L189.81,37.105z M196.482,17.125l2.039-2.001h-10.564l2.039,2.001H196.482z M196.259,30.396l-2.001-2.001
		h-2.039l-2.002,2.001H196.259z M194.184,28.135v-8.489h-1.854v8.489H194.184z M196.445,30.21V17.57l-2.039,2.002v8.674
		L196.445,30.21z M194.406,45.779l2.039-2.039v-12.9l-2.039,2.001V45.779z"/>
	<path d="M207.565,15.013h4.522v31.063h-4.522V15.013z"/>
	<path d="M220.836,19.535h-2.113v8.748h6.635v17.792h-11.157V34.918h4.522v6.635h2.113v-8.748h-6.635V15.013h11.157V26.17h-4.522
		V19.535z"/>
	<path d="M234.106,15.013h11.158v31.063h-4.522v-13.27h-2.113v13.27h-4.522V15.013z M238.628,28.283h2.113v-8.748h-2.113V28.283z"/>
	<path d="M254.012,19.535h-2.113v26.541h-4.522V15.013h11.158v31.063h-4.522V19.535L254.012,19.535z"/>
	<path d="M273.917,19.535h-2.113v8.748h6.635v4.522h-6.635v8.748h2.113v-6.635h4.522v11.157h-11.158V15.013h11.158V26.17h-4.522
		V19.535z"/>
	<path d="M280.553,46.039V32.806l2.039-2.298l-2.039-2.224V15.013h4.522v13.271h2.113V15.013h4.522v13.271l-2.039,2.224l2.039,2.298
		v13.27h-4.522v-13.27h-2.113v13.27h-4.522V46.039z"/>
	<path d="M293.786,15.013h17.793V26.17h-13.271v19.906h-4.522V15.013z M298.309,21.648h8.748v-2.113h-8.748V21.648z M300.421,28.283
		h11.158v4.522h-6.636v2.113h6.636v4.522h-6.636v2.113h6.636v4.522h-11.158V28.283z"/>
	<path d="M313.691,15.013h11.158v13.271l-2.039,2.224l2.039,2.298v13.27h-4.522v-13.27h-2.113v13.27h-4.522V15.013z M318.214,28.283
		h2.113v-8.748h-2.113V28.283z"/>
	<path d="M326.962,15.013h4.522v31.063h-4.522V15.013z"/>
	<path d="M333.598,15.013h17.792v31.063h-4.521V19.535h-2.113v26.541h-4.522V19.535h-2.113v26.541h-4.521V15.013z"/>
	<path d="M360.138,19.535h-2.112v8.748h6.635v4.522h-6.635v8.748h2.112v-6.635h4.522v11.157h-11.157V15.013h11.157V26.17h-4.522
		V19.535z"/>
	<path d="M366.773,15.013h31.063v4.522h-13.271v26.541h-4.522V19.535h-13.271V15.013z M373.408,26.17h-2.112v19.906h-4.522V21.648
		h11.157v24.428h-4.522V26.17z M386.679,21.648h11.158v24.428h-4.522V39.44h-2.113v6.635h-4.522V21.648L386.679,21.648z
		 M391.201,34.918h2.113V26.17h-2.113V34.918z"/>
	<path d="M399.949,15.013h4.522v26.541h6.636v4.522h-11.158V15.013z"/>
	<path d="M419.855,15.013h9.118l2.039,2.224v26.541l-2.039,2.298h-9.118V15.013z M424.377,41.554h2.113V19.535h-2.113V41.554z"/>
	<path d="M433.126,15.013h4.484v31.063h-4.521V15.013H433.126z"/>
	<path d="M446.358,19.535h-2.112v8.748h6.635v17.792h-11.157V34.918h4.522v6.635h2.113v-8.748h-6.636V15.013h11.157V26.17h-4.522
		V19.535z"/>
	<path d="M452.994,15.013h11.157V26.17h-6.635v19.906h-4.522V15.013z M457.517,21.648h2.112v-2.113h-2.112V21.648z M459.629,28.283
		h4.522v13.271h6.636v4.522h-11.158V28.283L459.629,28.283z M466.265,15.013h11.157v31.063h-4.522v-13.27h-2.112v6.635h-4.522
		V15.013L466.265,15.013z M470.787,28.283h2.112v-8.748h-2.112V28.283z"/>
	<path d="M484.058,41.554h2.112v-8.748h-6.635V15.013h4.522v13.271h2.112V15.013h4.522v31.063h-11.157V34.918h4.522V41.554z"/>
	<path d="M121.345,50.635h17.792v4.522h-6.672v26.541h-4.485V55.158h-6.635V50.635z M139.1,77.176h2.113v-8.749h-6.598V57.271h4.522
		v6.635h2.113V50.635h4.522v31.063h-11.157V70.541h4.522v6.635H139.1z"/>
	<path d="M147.848,50.635h17.793v11.158h-13.271v19.905h-4.522V50.635z M152.371,57.271h8.748v-2.113h-8.748V57.271z
		 M154.483,63.906h11.158v4.522h-6.635v2.113h6.635v4.522h-6.635v2.113h6.635v4.522h-11.158V63.906z"/>
	<path d="M174.389,50.635h17.793v4.522h-13.271v2.113h13.271v4.522h-13.271v19.905h-4.522V50.635z M181.024,63.906h11.158v17.792
		h-4.522v-6.635h-2.113v6.635h-4.522V63.906z M185.547,70.541h2.113v-2.113h-2.113V70.541z"/>
	<path d="M194.295,50.635h17.792v31.063h-4.522V55.158h-2.113v26.541h-4.522V55.158h-2.113v26.541h-4.522V50.635L194.295,50.635z"/>
	<path d="M214.201,50.635h4.522v31.063h-4.522V50.635z"/>
	<path d="M220.836,50.635h4.522v26.541h13.271v4.522h-17.792V50.635z M227.471,68.428V50.635h4.522v13.271h2.113V50.635h4.522
		v24.428h-11.158v-4.522h6.635v-2.113H227.471z"/>
	<path d="M247.376,50.635h17.793v4.522h-6.635v26.541h-4.522V55.158h-6.635V50.635z M271.805,50.635v31.063h-4.522V68.428h-2.113
		v13.271h-4.522V57.271h4.522v6.635h2.113V50.635H271.805z"/>
	<path d="M273.917,50.635h24.428v4.522h-6.635v26.541h-4.522V55.158h-13.271V50.635z M273.917,81.698V57.271h11.158v24.428h-4.522
		v-6.635h-2.113v6.635H273.917z M278.44,70.541h2.113v-8.748h-2.113V70.541z"/>
	<path d="M307.057,50.635h4.522v26.541h6.635v4.522h-11.157V50.635L307.057,50.635z M313.691,50.635h4.522v24.428h-4.522V50.635z"/>
	<path d="M322.365,81.698l-2.038-2.298V50.635h4.522v26.541h2.112V50.635h4.522v31.063H322.365L322.365,81.698z"/>
	<path d="M340.232,55.158h-2.113v8.748h6.636v4.522h-6.636v8.749h2.113v-6.635h4.522v11.157h-11.157V50.635h11.157v11.158h-4.522
		V55.158z"/>
	<path d="M353.503,55.158h-2.113v8.748h6.636v17.792h-11.157V70.541h4.521v6.635h2.113v-8.749h-6.635V50.635h11.157v11.158h-4.522
		V55.158z"/>
	<path d="M366.773,50.635h4.522v31.063h-4.522V50.635z"/>
	<path d="M380.044,55.158h-2.113v26.541h-4.522V50.635h11.158v31.063h-4.522V55.158z"/>
	<path d="M393.314,50.635h17.793v4.522h-6.636v26.541h-4.522V55.158h-6.635V50.635L393.314,50.635z M417.742,50.635v31.063h-4.522
		V68.428h-2.112v13.271h-4.522V57.271h4.522v6.635h2.112V50.635H417.742z"/>
	<path d="M426.49,55.158h-2.113v8.748h6.636v4.522h-6.636v8.749h2.113v-6.635h4.522v11.157h-11.157V50.635h11.157v11.158h-4.522
		V55.158z"/>
	<path d="M450.881,50.635v14.419h-4.522v-9.897h-2.112v22.019h2.112V67.167h4.522v14.494h-2.038l-2.484-2.001l-2.075,2.001h-4.56
		V50.598h11.157V50.635z"/>
	<path d="M452.994,50.635h11.157v13.271l-2.038,2.224l2.038,2.298v13.271h-4.522V68.428h-2.112v13.271h-4.522V50.635z
		 M457.517,63.906h2.112v-8.748h-2.112V63.906z"/>
	<path d="M472.899,55.158h-2.112v8.748h6.635v4.522h-6.635v8.749h2.112v-6.635h4.522v11.157h-11.157V50.635h11.157v11.158h-4.522
		V55.158z"/>
	<path d="M484.058,77.176h2.112v-8.749h-6.635V50.635h4.522v13.271h2.112V50.635h4.522v31.063h-11.157V70.541h4.522V77.176z"/>
	<path d="M121.345,86.295h11.157v31.063h-4.522v-13.27h-2.113v13.27h-4.522V86.295z M125.867,99.565h2.113v-8.748h-2.113V99.565z"/>
	<path d="M134.615,86.295h11.157v13.271l-2.039,2.224l2.039,2.298v13.27h-4.56v-13.27H139.1v13.27h-4.485V86.295z M139.1,99.565
		h2.113v-8.748H139.1V99.565z"/>
	<path d="M154.483,90.817h-2.113v8.748h6.635v4.522h-6.635v8.748h2.113v-6.635h4.522v11.157h-11.158V86.295h11.158v11.157h-4.522
		V90.817z"/>
	<path d="M161.119,86.295h11.158v31.063h-4.522v-13.27h-2.113v13.27h-4.522V86.295z M165.641,99.565h2.113v-8.748h-2.113V99.565z"/>
	<path d="M181.024,86.295h11.158v13.271l-2.039,2.224l2.039,2.298v13.27h-11.158V86.295z M185.547,99.565h2.113v-8.748h-2.113
		V99.565z M185.547,112.836h2.113v-8.749h-2.113V112.836z"/>
	<path d="M194.295,86.295h24.428v4.522h-6.635v26.541h-4.522V90.817h-13.271V86.295z M200.93,97.452h-2.113v8.749h6.635v4.522
		h-6.635v2.113h6.635v4.522h-11.157V92.93h11.157v11.158h-4.522V97.452z M231.993,117.358h-17.792V92.93h4.522v19.906h2.113V86.295
		h4.522v26.541h2.113V86.295h4.522V117.358L231.993,117.358z"/>
	<path d="M240.741,90.817h-2.113v8.748h6.635v4.522h-6.635v8.748h2.113v-6.635h4.522v11.157h-11.158V86.295h11.158v11.157h-4.522
		V90.817z"/>
	<path d="M254.012,90.817h-2.113v8.748h6.635v4.522h-6.635v8.748h2.113v-6.635h4.522v11.157h-11.158V86.295h11.158v11.157h-4.522
		V90.817z"/>
	<path d="M267.282,90.817h-2.113v26.541h-4.522V86.295h11.158v31.063h-4.522V90.817z"/>
	<path d="M280.553,86.295h4.522v26.541h13.27v4.522h-17.792V86.295z M287.188,86.295h37.699v4.522h-13.308v26.541h-4.522V90.817
		h-2.113v26.541h-4.522V90.817h-13.271v-4.522H287.188z M287.188,92.93h11.157v4.522h-6.635v2.113h6.635v4.522h-6.635v2.113h6.635
		v4.522h-11.157V92.93z M313.691,92.93h11.158v11.157h-4.522v-6.635h-2.113v8.749h6.636v4.522h-6.636v2.113h6.636v4.522h-11.158
		V92.93z"/>
	<path d="M326.962,86.295h11.157v13.271l-2.038,2.224l2.038,2.298v13.27h-4.521v-13.27h-2.113v13.27h-4.522V86.295L326.962,86.295z
		 M331.484,99.565h2.113v-8.748h-2.113V99.565z"/>
	<path d="M340.232,86.295h4.522v31.063h-4.522V86.295z"/>
	<path d="M353.503,90.817h-2.113v26.541h-4.521V86.295h11.157v31.063h-4.522V90.817z"/>
	<path d="M371.296,86.295v14.419h-4.522v-9.897h-2.113v22.019h2.113v-10.009h4.522v14.494h-2.039l-2.483-2.001l-2.076,2.001h-4.56
		V86.258h11.158V86.295z"/>
	<path d="M380.044,86.295h11.157v31.063h-4.522v-13.27h-2.112v13.27h-4.522V86.295z M384.566,99.565h2.112v-8.748h-2.112V99.565z"/>
	<path d="M399.949,90.817h-2.112v26.541h-4.522V86.295h11.157v31.063h-4.522V90.817L399.949,90.817z"/>
	<path d="M406.585,86.295h9.118l2.039,2.224v26.541l-2.039,2.298h-9.118V86.295z M411.107,112.836h2.112V90.817h-2.112V112.836z"/>
	<path d="M426.49,86.295h17.793v4.522h-6.673v26.541h-4.521V90.817h-6.599V86.295z M444.246,112.836h2.113v-8.749h-6.636V92.93
		h4.522v6.635h2.113V86.295h4.521v31.063h-11.157v-11.157h4.522V112.836L444.246,112.836z"/>
	<path d="M452.994,86.295h17.793v11.157h-13.271v19.906h-4.522V86.295z M457.517,92.93h8.748v-2.113h-8.748V92.93z M459.629,99.565
		h11.158v4.522h-6.636v2.113h6.636v4.522h-6.636v2.113h6.636v4.522h-11.158V99.565z"/>
	<path d="M472.01,114.17l3.188-3.188l3.15,3.151l-3.188,3.225L472.01,114.17z"/>
</g>
<g>
	<path d="M127.238,187.083v44.89h-6.524l3.299-3.299v-38.329L127.238,187.083z"/>
	<path d="M149.479,193.607h-19.202l3.299-3.299h19.164L149.479,193.607z M139.879,203.208h-3.04v28.765h-6.561l3.299-3.299v-28.765
		h9.601L139.879,203.208z M143.178,199.909l3.225-3.225v35.289h-6.524l3.299-3.299V199.909z M175.167,187.083v6.524h-19.164v38.366
		h-6.524l3.299-3.299v-38.329h19.165L175.167,187.083z M175.167,225.449v6.524h-16.125l3.299-3.299h9.601L175.167,225.449z
		 M171.943,199.909l-3.299,3.299h-3.04v12.64l-3.225,3.225v-19.164H171.943z M162.342,228.674v-9.601h9.601l3.225-3.225v6.561
		h-9.601v3.04L162.342,228.674z M171.943,199.909l3.225-3.225v16.125h-6.524l3.299-3.299V199.909L171.943,199.909z"/>
	<path d="M191.107,214.069l-1.26-3.299l-2.039,2.039h-3.04v19.165h-6.524l3.299-3.299V209.51h5.449l2.817-1.26l1.334-3.225v-14.679
		l3.225-3.225v19.164l-2.929,3.225l2.929,3.299v19.165h-6.524l3.299-3.299v-14.604H191.107z M187.808,193.607h-3.04v12.64
		l-3.225,3.225v-19.164h9.563L187.808,193.607z"/>
	<path d="M216.61,193.607h-19.201l3.299-3.299h19.165L216.61,193.607z M210.308,219.11l3.225-3.225v16.125h-16.125l3.299-3.299
		h9.601V219.11z M207.009,222.409h-9.601l3.299-3.299h9.601L207.009,222.409z M200.708,199.909h9.601l-3.299,3.299h-3.04v12.64
		l-3.225,3.225v-19.164H200.708z M210.308,199.909l3.225-3.225v16.125h-6.524l3.299-3.299V199.909z M239.073,190.345l3.225-3.225
		v6.524h-19.165v38.366h-6.524l3.299-3.299v-38.366H239.073z M242.298,225.449v6.524h-16.125l3.299-3.299h9.601L242.298,225.449z
		 M229.473,199.909h9.601l-3.299,3.299h-3.04v12.64l-3.225,3.225v-19.164H229.473z M242.298,215.848v6.561h-9.601v3.04l-3.225,3.225
		v-9.601h9.601L242.298,215.848z M239.073,199.909l3.225-3.225v16.125h-6.524l3.299-3.299V199.909z"/>
	<path d="M280.664,225.449v6.524h-35.289l3.299-3.299h28.765L280.664,225.449z M248.674,190.345l3.225-3.225v38.366l-3.225,3.225
		V190.345z M280.664,215.848v6.561h-25.726l3.299-3.299h19.165L280.664,215.848z M258.237,190.345l3.225-3.225v28.765l-3.225,3.225
		V190.345z M274.14,203.208h-3.04v9.601h-6.524l3.299-3.299v-9.601h9.601L274.14,203.208z M274.14,193.607h-3.04v3.04l-3.225,3.225
		v-9.601h9.601L274.14,193.607z M277.439,190.345l3.225-3.225v25.725h-6.524l3.299-3.299V190.345z"/>
	<path d="M296.603,214.069l-1.26-3.299l-2.039,2.039h-3.04v19.165h-6.524l3.299-3.299V209.51h5.449l2.817-1.26l1.334-3.225v-14.679
		l3.225-3.225v19.164l-2.929,3.225l2.929,3.299v19.165h-6.524l3.299-3.299v-14.604H296.603z M293.304,193.607h-3.04v12.64
		l-3.225,3.225v-19.164h9.601L293.304,193.607z"/>
	<path d="M325.368,214.069l-1.261-3.299l-2.038,2.039h-3.04v19.165h-6.523l3.299-3.299V209.51h5.449l2.816-1.26l1.335-3.225v-14.679
		l3.225-3.225v19.164l-2.928,3.225l2.928,3.299v19.165h-6.523l3.299-3.299v-14.604H325.368z M322.069,193.607h-3.04v12.64
		l-3.225,3.225v-19.164h9.601L322.069,193.607z"/>
	<path d="M347.795,187.083v44.89H331.67l3.299-3.299h9.601v-38.329L347.795,187.083z M341.271,193.607h-3.04v31.842l-3.225,3.225
		v-38.329h9.563L341.271,193.607z"/>
	<path d="M366.959,210.992v20.981h-16.125l3.299-3.299h9.601v-14.457L366.959,210.992z M354.133,190.345h9.601l-3.299,3.299h-3.039
		v31.842l-3.226,3.225v-38.366H354.133z M363.733,190.345l3.226-3.225v20.832h-6.524l3.299-3.299V190.345L363.733,190.345z"/>
	<path d="M382.936,190.345l3.225-3.225v19.164l-2.929,3.225l2.929,3.299v19.165h-6.524l3.3-3.299v-14.642l-1.261-3.299l-2.039,2.039
		h-3.039v19.165h-6.524l3.299-3.299v-19.164h5.449l2.817-1.26l1.335-3.225v-14.642H382.936z M373.334,209.51v-19.165l3.226-3.225
		v19.164L373.334,209.51z"/>
	<path d="M408.401,193.607h-19.165l3.3-3.299H411.7L408.401,193.607z M405.324,225.449v6.524h-16.125l3.3-3.299h9.601
		L405.324,225.449z M392.499,199.909h9.601l-3.299,3.299h-3.04v12.64l-3.225,3.225v-19.164H392.499z M392.499,219.11h9.601
		l3.225-3.225v6.524h-9.601v3.04l-3.225,3.225V219.11z M402.1,199.909l3.225-3.225v16.125h-6.523l3.299-3.299V199.909L402.1,199.909
		z M434.089,187.083v6.524h-19.164v38.366h-6.523l3.299-3.299v-38.329h19.164L434.089,187.083z M430.864,219.11l3.225-3.225v16.125
		h-16.124l3.299-3.299h9.601V219.11L430.864,219.11z M427.565,222.409h-9.601l3.299-3.299h9.601L427.565,222.409z M421.264,199.909
		h9.601l-3.299,3.299h-3.04v12.64l-3.225,3.225v-19.164H421.264z M430.864,199.909l3.225-3.225v16.125h-6.523l3.299-3.299V199.909
		L430.864,199.909z"/>
	<path d="M440.465,228.674V209.51h9.601l-3.299,3.299h-3.04v19.165h-6.523L440.465,228.674z M443.69,187.083v19.164l-3.226,3.225
		v-19.164L443.69,187.083z M450.028,190.345l3.226-3.225v44.89h-6.524l3.299-3.299V190.345L450.028,190.345z"/>
	<path d="M462.854,187.083v44.89h-6.524l3.299-3.299v-38.329L462.854,187.083z"/>
	<path d="M488.395,190.345l3.225-3.225v16.125h-19.164v28.765h-6.524l3.3-3.299v-28.765h19.164V190.345z M469.23,199.909v-9.601
		h19.164l-3.3,3.299h-12.64v3.04L469.23,199.909z M488.395,219.11l3.225-3.225v16.125h-16.125l3.3-3.299h9.601V219.11z
		 M485.095,222.409h-9.601l3.3-3.299h9.601L485.095,222.409z M478.831,209.51h9.601l3.225-3.225v6.524h-9.601v3.04l-3.225,3.225
		V209.51L478.831,209.51z"/>
</g>
<g>
	<path fill="#FF4200" d="M130.204,499.568h29.84v52.081h-7.562v-44.481h-3.559v44.481h-7.599v-44.481h-3.559v44.481h-7.562V499.568z
		"/>
	<path fill="#FF4200" d="M163.565,499.568h7.562v52.081h-7.562V499.568z"/>
	<path fill="#FF4200" d="M174.686,499.568h7.562v44.482h22.241v7.562h-29.84v-52.044H174.686z M185.806,499.568h7.562v33.361h11.121
		v7.562h-18.683V499.568L185.806,499.568z M196.964,499.568h7.562v29.84h-7.562V499.568z"/>
	<path fill="#FF4200" d="M208.084,499.568h7.562v44.482h11.121v7.562h-18.683V499.568z M219.205,499.568h52.081v7.562h-22.241
		v44.481h-7.562v-44.481h-3.559v44.481h-7.562v-44.481h-11.121v-7.562H219.205z M219.205,510.689h7.562v29.84h-7.562V510.689z
		 M263.687,518.251h-3.559v14.679h11.121v7.562h-11.121v3.559h11.121v7.562h-18.683v-40.96h18.683v18.682h-7.562V518.251z"/>
	<path fill="#FF4200" d="M274.807,499.568h18.682v22.241l-3.41,3.744l3.41,3.817v22.241h-7.562v-22.241h-3.559v22.241h-7.562
		V499.568z M282.369,521.81h3.559v-14.679h-3.559V521.81z"/>
</g>
<g>
	<path fill="#1908BA" d="M141.324,507.131h-3.559v44.481h-7.562l3.818-3.817v-44.482h11.121L141.324,507.131z M145.143,503.312
		h11.12l-3.818,3.818h-3.559v44.481h-7.562l3.818-3.817V503.312z M156.3,503.312l3.744-3.744v52.081h-7.562l3.818-3.818V503.312z"/>
	<path fill="#1908BA" d="M171.164,499.568v52.081h-7.562l3.818-3.818V503.35L171.164,499.568z"/>
	<path fill="#1908BA" d="M204.526,544.051v7.562h-29.84l3.818-3.817h22.241L204.526,544.051z M178.541,503.312l3.744-3.744v44.482
		l-3.744,3.744V503.312z M204.526,532.93v7.562h-18.683l3.818-3.818h11.121L204.526,532.93z M189.661,503.312l3.744-3.744v33.361
		l-3.744,3.744V503.312z M200.782,503.312l3.744-3.744v29.84h-7.562l3.818-3.817V503.312z"/>
	<path fill="#1908BA" d="M226.767,544.051v7.562h-18.682l3.818-3.817h11.121L226.767,544.051z M211.902,503.312l3.744-3.744v44.482
		l-3.744,3.744V503.312z M230.325,507.131h-11.121l3.818-3.818h11.12L230.325,507.131z M223.023,514.433l3.744-3.743v29.84h-7.562
		l3.818-3.818V514.433z M234.143,503.312h11.121l-3.818,3.818h-3.559v44.481h-7.562l3.818-3.817V503.312z M267.505,503.312
		l3.744-3.744v7.562h-22.241v44.481h-7.562l3.818-3.817v-44.482H267.505z M271.249,544.051v7.562h-18.683l3.818-3.817h11.121
		L271.249,544.051z M256.384,514.433h11.121l-3.818,3.818h-3.559v14.679l-3.744,3.744V514.433z M271.249,532.93v7.562h-11.121v3.559
		l-3.744,3.744v-11.121h11.121L271.249,532.93z M267.505,514.433l3.744-3.743v18.682h-7.562l3.818-3.817V514.433z"/>
	<path fill="#1908BA" d="M289.746,530.817l-1.446-3.818l-2.372,2.372h-3.559v22.241h-7.562l3.818-3.817v-22.241h6.339l3.262-1.446
		l1.52-3.743V503.35l3.744-3.744v22.241l-3.41,3.744l3.41,3.817v22.241h-7.562l3.818-3.818V530.817z M285.928,507.131h-3.559v14.679
		l-3.744,3.744v-22.241h11.121L285.928,507.131z"/>
</g>
<g>
	<path fill="#FF66A4" d="M130.204,569.739h18.682v18.682h-11.121v33.361h-7.562V569.739z M137.803,580.859h3.559v-3.559h-3.559
		V580.859z M141.324,591.979h7.562v22.241h11.121v7.562h-18.683V591.979z M152.445,569.739h63.201v7.562h-33.361v44.481h-7.562
		v-44.481h-22.241v-7.562H152.445z M152.445,610.662v-29.803h18.682v40.96h-7.562v-22.24h-3.559v11.12h-7.562V610.662z
		 M160.044,591.979h3.559v-3.559h-3.559V591.979z M215.646,580.859v7.562h-22.241v3.559h22.241v7.562h-22.241v22.24h-7.562v-40.923
		H215.646z M196.964,603.101h18.682v18.682h-18.682V603.101z M204.526,614.221h3.559v-3.559h-3.559V614.221z"/>
	<path fill="#FF66A4" d="M219.205,569.739h18.683v22.24l-3.411,3.744l3.411,3.818v22.24h-7.562v-22.24h-3.559v22.24h-7.562V569.739z
		 M226.767,591.979h3.559v-14.679h-3.559V591.979z"/>
	<path fill="#FF66A4" d="M241.446,569.739h29.84v52.08h-7.562v-44.481h-3.559v44.481h-7.562v-44.481h-3.559v44.481h-7.562v-52.08
		H241.446z"/>
	<path fill="#FF66A4" d="M285.928,577.301h-3.559v14.679h11.12v29.84h-18.682v-18.719h7.562v11.12h3.559v-14.679h-11.121v-29.803
		h18.682v18.682h-7.562V577.301z"/>
</g>
<g>
	<path fill="#636363" d="M141.324,673.159h-3.559V695.4h-7.562l3.818-3.818v-22.241h11.121L141.324,673.159z M134.022,669.341
		v-22.24h11.121l-3.818,3.817h-3.559v14.68L134.022,669.341z M145.143,647.101l3.744-3.744v52.081h-7.562l3.818-3.818V647.101z"/>
	<path fill="#636363" d="M160.044,643.356v52.081h-7.562l3.818-3.818v-44.481L160.044,643.356z"/>
	<path fill="#636363" d="M178.541,674.642l-1.446-3.817l-2.373,2.372h-3.559v22.241h-7.562l3.818-3.818v-22.241h6.339l3.262-1.445
		l1.52-3.744v-17.015l3.744-3.743v22.241l-3.41,3.743l3.41,3.818v22.241h-7.562l3.818-3.818V674.642z M174.686,650.918h-3.559v14.68
		l-3.744,3.743v-22.24h11.121L174.686,650.918z"/>
	<path fill="#636363" d="M200.782,647.101l3.744-3.744v18.683h-11.121V695.4h-7.562l3.818-3.818v-33.361h11.121V647.101z
		 M189.661,658.221v-11.12h11.121l-3.818,3.817h-3.559v3.559L189.661,658.221z M215.646,687.838v7.562h-18.682l3.818-3.818h11.121
		L215.646,687.838z M200.782,669.341l3.744-3.743v22.24l-3.744,3.744V669.341z M219.205,673.159h-3.559v11.12h-7.562l3.818-3.817
		v-11.121h11.121L219.205,673.159z M219.205,650.918h-3.559v14.68l-3.744,3.743v-22.24h11.121L219.205,650.918z M223.023,647.101
		l3.744-3.744v52.081h-7.562l3.818-3.818V647.101z"/>
	<path fill="#636363" d="M241.446,650.918h-3.559V695.4h-7.562l3.818-3.818v-44.481h11.121L241.446,650.918z M245.264,647.101
		l3.744-3.744v52.081h-7.562l3.818-3.818V647.101z"/>
	<path fill="#636363" d="M267.505,680.462l3.744-3.744V695.4h-18.683l3.818-3.818h11.121V680.462z M256.384,647.101h11.121
		l-3.818,3.817h-3.559v14.68l-3.744,3.743V647.101z M256.384,669.341h11.121l3.744-3.743v7.562h-11.121v14.679l-3.744,3.744V669.341
		z M267.505,647.101l3.744-3.744v18.683h-7.562l3.818-3.818V647.101z"/>
	<path fill="#636363" d="M289.746,669.341l3.744-3.743v29.84h-18.682l3.818-3.818h11.121V669.341z M285.928,673.159h-11.121
		l3.818-3.818h11.121L285.928,673.159z M278.625,647.101h11.121l-3.818,3.817h-3.559v14.68l-3.744,3.743V647.101z M278.625,680.462
		l3.744-3.744v11.12l-3.744,3.744V680.462z M289.746,647.101l3.744-3.744v18.683h-7.562l3.818-3.818V647.101z"/>
</g>
<g>
	<path fill="#636363" d="M131.946,643.356v52.081h-1.742v-52.081H131.946z M134.875,643.356v52.081h-1.742v-52.081H134.875z
		 M137.803,648.027v1.186h11.121v46.225h-1.742v-44.482h-1.186v44.482h-1.742v-44.482h-1.187v44.482h-1.742v-22.241h-3.559v22.241
		h-1.742v-52.081h12.863v1.742h-11.121v1.187h11.121v1.742H137.803L137.803,648.027z M141.324,665.598v-14.68h-3.559v14.68H141.324z
		 M141.324,668.525v-1.186h-3.559v1.186H141.324z M141.324,671.454v-1.187h-3.559v1.187H141.324z"/>
	<path fill="#636363" d="M154.187,643.356v52.081h-1.742v-52.081H154.187z M157.115,643.356v52.081h-1.742v-52.081H157.115z
		 M160.044,643.356v52.081h-1.742v-52.081H160.044z"/>
	<path fill="#636363" d="M165.308,643.356v52.081h-1.742v-52.081H165.308z M168.236,643.356v52.081h-1.742v-52.081H168.236z
		 M171.164,648.027v1.186h11.121v16.422l-1.742,1.89v-16.606h-1.186V695.4h-1.742v-44.482h-1.187V695.4h-1.742v-22.241h-3.559V695.4
		h-1.742v-52.081h12.863v1.742h-11.121v1.187h11.121v1.742h-11.083V648.027z M174.686,665.598v-14.68h-3.559v14.68H174.686z
		 M174.686,668.525v-1.186h-3.559v1.186H174.686z M174.686,671.454v-1.187h-3.559v1.187H174.686z M182.285,673.159V695.4h-1.742
		v-24.206L182.285,673.159z"/>
	<path fill="#636363" d="M187.548,643.356v52.081h-1.742v-52.081H187.548z M190.477,643.356v52.081h-1.743v-52.081H190.477z
		 M199.855,650.918h-1.186v11.121h-5.301V695.4h-1.742v-52.081h12.863v1.742h-11.121v1.187h11.121v1.742h-11.121v1.186h11.121
		v12.863h-1.742v-11.121h-1.187v11.121h-1.742v-11.121H199.855z M196.964,654.477v-3.559h-3.559v3.559H196.964z M196.964,657.405
		v-1.187h-3.559v1.187H196.964z M196.964,660.297v-1.187h-3.559v1.187H196.964z M198.669,665.598v29.84h-1.742v-29.84H198.669z
		 M201.597,665.598v29.84h-1.742v-29.84H201.597z M215.646,695.438h-12.862v-29.84h1.742v22.24h11.12v1.742h-11.12v1.187h11.12
		v1.742h-11.12v1.187h11.12V695.438z M209.79,643.356v40.923h-1.742v-40.96h1.742V643.356z M212.718,643.356v40.923h-1.742v-40.96
		h1.742V643.356z M215.646,648.027v1.186h11.121v46.225h-1.742v-44.482h-1.186v44.482h-1.742v-44.482h-1.187v44.482h-1.742v-22.241
		h-3.559v11.12h-1.742v-40.96h12.863v1.742h-11.121v1.187h11.121v1.742H215.646L215.646,648.027z M219.205,665.598v-14.68h-3.559
		v14.68H219.205z M219.205,668.525v-1.186h-3.559v1.186H219.205z M219.205,671.454v-1.187h-3.559v1.187H219.205z"/>
	<path fill="#636363" d="M232.067,643.356v52.081h-1.742v-52.081H232.067z M234.958,643.356v52.081h-1.742v-52.081H234.958z
		 M237.887,648.027v1.186h11.121v46.225h-1.743v-44.482h-1.186v44.482h-1.742v-44.482h-1.186v44.482h-1.742v-44.482h-3.559v44.482
		h-1.742v-52.081h12.863v1.742H237.85v1.187h11.121v1.742H237.887L237.887,648.027z"/>
	<path fill="#636363" d="M254.308,643.356v52.081h-1.742v-52.081H254.308z M257.2,643.356v52.081h-1.742v-52.081H257.2z
		 M271.249,676.718v12.862h-11.121v1.187h11.121v1.742h-11.121v1.187h11.121v1.742h-12.863v-52.081h12.863v1.742h-11.121v1.186
		h11.121v1.742h-11.121v1.187h11.121v12.862h-1.742v-11.12h-1.186v11.12h-1.742v-11.12h-1.187v11.12h-1.742v-11.12h-3.559v14.679
		h11.121v1.742h-11.121v1.187h11.121v1.742h-11.121v1.187h11.121v1.742h-11.121v14.679h3.559v-11.12h1.742v11.12h1.187v-11.12h1.742
		v11.12h1.186v-11.12h1.742V676.718z"/>
	<path fill="#636363" d="M282.369,648.027v1.186h11.12v12.863h-1.742v-11.121h-1.186v11.121h-1.742v-11.121h-1.186v11.121h-1.742
		v-11.121h-3.559v14.68h11.12v1.742H274.77v-23.983h1.742v22.241h1.186v-22.241h1.742v22.241h1.187v-22.241h12.862v1.742h-11.12
		v1.186h11.12v1.742h-11.12V648.027z M274.807,668.525h18.682v1.742h-18.682V668.525z M293.489,671.454v23.983h-1.742v-22.241
		h-1.186v22.241h-1.742v-22.241h-1.186v22.241H274.77v-1.742h11.121v-1.187H274.77v-1.742h11.121v-1.187H274.77v-12.862h1.742v11.12
		h1.186v-11.12h1.742v11.12h1.187v-11.12h1.742v11.12h3.559v-14.679h-11.121v-1.742h18.682V671.454z"/>
</g>
<g>
	<path fill="#FF3972" d="M130.204,715.565h29.84v7.562h-22.241v3.559h22.241v7.562h-22.241v33.361h-7.599V715.565z M141.324,737.807
		h18.683v29.84h-18.683V737.807z M148.923,760.084h3.559v-14.679h-3.559V760.084z"/>
	<path fill="#FF3972" d="M163.565,715.565h7.562v44.481h33.362v7.562h-40.923V715.565z M174.686,715.565h7.562v33.361h22.241v7.562
		h-29.84v-40.923H174.686z M185.843,715.565h18.683v29.84h-18.683V715.565z M193.405,737.807h3.559v-14.68h-3.559V737.807z"/>
	<path fill="#FF3972" d="M226.767,715.565v44.481h3.559v-44.481h7.562v52.081h-29.84v-52.081h7.562v44.481h3.559v-44.481H226.767
		L226.767,715.565z"/>
	<path fill="#FF3972" d="M241.446,715.565h7.562v52.081h-7.562V715.565z"/>
	<path fill="#FF3972" d="M263.687,723.164h-3.559v44.482h-7.562v-52.081h18.683v52.081h-7.562V723.164z"/>
	<path fill="#FF3972" d="M274.807,715.565h40.96v7.562h-11.121v44.482h-7.562v-44.482h-22.241v-7.562H274.807z M293.489,726.686
		v18.683h-7.562v-11.12h-3.559v25.799h3.559v-11.12h7.562v18.683h-3.41l-4.188-3.336l-3.484,3.336h-7.636v-40.961h18.719V726.686z
		 M326.851,715.565v52.081h-7.562v-22.241h-3.559v22.241h-7.562v-40.961h7.562v11.121h3.559v-22.241H326.851L326.851,715.565z"/>
	<path fill="#FF3972" d="M341.53,723.164h-3.559v14.68h11.12v7.562h-11.12v14.679h3.559v-11.12h7.562v18.683h-18.683v-52.081h18.683
		v18.683h-7.562V723.164z"/>
	<path fill="#FF3972" d="M352.65,715.565h52.081v7.562H393.61v44.482h-7.562v-44.482h-25.8v3.559h22.241v7.562h-22.241v33.361
		h-7.562v-52.044H352.65z M382.49,737.807v29.84h-18.683v-29.84h7.562v22.24h3.559v-22.24H382.49z M404.731,726.686v33.361h3.559
		v-44.481h7.562v52.081h-18.683v-40.961H404.731L404.731,726.686z"/>
	<path fill="#FF3972" d="M419.373,715.565h18.683v22.241l-3.41,3.743l3.41,3.818v22.241h-7.562v-22.241h-3.559v22.241h-7.562
		V715.565z M426.973,737.807h3.558v-14.68h-3.558V737.807z"/>
	<path fill="#FF3972" d="M452.771,723.164h-3.559v14.68h11.121v7.562h-11.121v14.679h3.559v-11.12h7.562v18.683h-18.683v-52.081
		h18.683v18.683h-7.562V723.164z"/>
	<path fill="#FF3972" d="M475.013,723.164h-3.559v14.68h11.12v29.84h-18.682v-18.683h7.562v11.12h3.559v-14.679h-11.12v-29.84
		h18.682v18.683h-7.562V723.164z"/>
</g>
<g>
	<path fill="#003DFF" d="M131.946,715.565v52.081h-1.742v-52.081H131.946L131.946,715.565z M134.875,715.565v52.081h-1.742v-52.081
		H134.875L134.875,715.565z M160.044,767.646h-23.983v-52.081h1.742v44.481h22.241v1.742h-22.241v1.187h22.241v1.742h-22.241v1.187
		h22.241V767.646z M141.324,715.565h63.202v1.742h-63.202V715.565z M141.324,718.494h63.202v1.742h-63.202V718.494z
		 M166.494,723.164h-1.186v44.482h-1.742v-44.482h-22.241v-1.742h63.202v1.742h-22.241v44.482h-1.742v-44.482h-1.186v44.482h-1.742
		v-44.482h-1.187v44.482h-1.742v-44.482h-3.558v44.482h-1.743v-44.482h-1.186v44.482h-1.742v-44.482H166.494z M143.066,726.686
		v29.84h-1.742v-29.84H143.066z M145.995,726.686v29.84h-1.742v-29.84H145.995z M147.181,726.686h12.863v1.742h-11.121v1.187h11.121
		v1.742h-11.121v1.187h11.121v1.742h-11.121v3.558h11.121v1.742h-11.121v1.187h11.121v1.742h-11.121v1.187h11.121v1.742h-11.121
		v3.559h11.121v1.742h-11.121v1.186h11.121v1.742h-11.121v1.187h11.121v1.742h-12.863V726.686z M187.548,726.686v40.961h-1.742
		v-40.961H187.548L187.548,726.686z M190.477,726.686v40.961h-1.743v-40.961H190.477L190.477,726.686z M193.405,731.356v1.187
		h11.121v12.862h-1.742v-11.12h-1.187v11.12h-1.742v-11.12h-1.186v11.12h-1.742v-11.12h-3.559v14.679h11.121v1.742h-11.121v1.187
		h11.121v1.742h-11.121v1.186h11.121v1.742h-11.121v3.559h11.121v1.742h-11.121v1.187h11.121v1.742h-11.121v1.186h11.121v1.742
		h-12.863v-40.96h12.863v1.742h-11.121v1.186h11.121v1.742h-11.083V731.356z"/>
	<path fill="#003DFF" d="M209.79,715.565v52.081h-1.742v-52.081H209.79L209.79,715.565z M212.718,715.565v52.081h-1.742v-52.081
		H212.718L212.718,715.565z M215.646,720.236v1.186h11.121v16.422l-1.742,1.89v-16.532h-1.186v44.482h-1.742v-44.482h-1.187v44.482
		h-1.742v-22.241h-3.559v22.241h-1.742v-52.081h12.863v1.742h-11.121v1.186h11.121v1.742h-11.083V720.236z M219.205,737.807v-14.68
		h-3.559v14.68H219.205z M219.205,740.734v-1.186h-3.559v1.186H219.205z M219.205,743.663v-1.187h-3.559v1.187H219.205z
		 M226.767,745.405v22.241h-1.742V743.44L226.767,745.405z"/>
	<path fill="#003DFF" d="M232.067,715.565v52.081h-1.742v-52.081H232.067L232.067,715.565z M234.958,715.565v52.081h-1.742v-52.081
		H234.958L234.958,715.565z M237.887,715.565v52.081h-1.742v-52.081H237.887L237.887,715.565z"/>
	<path fill="#003DFF" d="M243.188,715.565v52.081h-1.742v-52.081H243.188L243.188,715.565z M246.079,715.565v52.081h-1.742v-52.081
		H246.079L246.079,715.565z M249.008,720.236v1.186h11.12v46.225h-1.742v-44.482H257.2v44.482h-1.742v-44.482h-1.186v44.482h-1.743
		v-44.482h-3.558v44.482h-1.742v-52.081h12.862v1.742h-11.12v1.186h11.12v1.742L249.008,720.236L249.008,720.236z"/>
	<path fill="#003DFF" d="M265.429,715.565v52.081h-1.742v-52.081H265.429L265.429,715.565z M268.32,715.565v52.081h-1.742v-52.081
		H268.32L268.32,715.565z M282.369,743.329v18.497h-11.121v1.187h11.121v1.742h-11.121v1.187h1.891l-1.816,1.742h-1.816v-52.081
		h12.863v1.742h-11.121v1.186h11.121v1.742h-11.121v1.187h11.121v18.349h-1.742v-16.606h-1.187v16.606h-1.742v-16.606h-1.186v16.606
		h-1.742v-16.606h-3.559v36.92h3.559v-16.755h1.742v16.755h1.186v-16.755h1.742v16.755h1.187v-16.755h1.742V743.329z
		 M276.809,765.904h5.561v1.742h-3.411L276.809,765.904z"/>
	<path fill="#003DFF" d="M287.67,715.565v52.081h-1.742v-52.081H287.67L287.67,715.565z M290.598,715.565v52.081h-1.742v-52.081
		H290.598L290.598,715.565z M293.489,720.236v1.186h11.121v46.225h-1.742v-44.482h-1.186v44.482h-1.742v-44.482h-1.187v44.482
		h-1.742v-22.241h-3.559v22.241h-1.742v-52.081h12.863v1.742h-11.121v1.186h11.121v1.742L293.489,720.236L293.489,720.236z
		 M297.048,737.807v-14.68h-3.559v14.68H297.048z M297.048,740.734v-1.186h-3.559v1.186H297.048z M297.048,743.663v-1.187h-3.559
		v1.187H297.048z"/>
	<path fill="#003DFF" d="M309.911,715.565v52.081h-1.743v-52.081H309.911L309.911,715.565z M312.839,715.565v52.081h-1.742v-52.081
		H312.839L312.839,715.565z M315.73,720.236v1.186h11.12v46.225h-1.742v-44.482h-1.186v44.482h-1.742v-44.482h-1.187v44.482h-1.742
		v-44.482h-3.559v44.482h-1.742v-52.081h12.862v1.742h-11.12v1.186h11.12v1.742L315.73,720.236L315.73,720.236z"/>
	<path fill="#003DFF" d="M330.409,715.565h40.961v1.742h-40.961V715.565z M330.409,718.494h40.961v1.742h-40.961V718.494z
		 M355.579,723.164h-1.187v44.482h-1.742v-44.482h-22.241v-1.742h40.961v1.742h-11.121v44.482h-1.742v-44.482h-1.186v44.482h-1.742
		V723.164L355.579,723.164z M332.151,726.686v40.961h-1.742v-40.961H332.151L332.151,726.686z M335.08,726.686v40.961h-1.742
		v-40.961H335.08L335.08,726.686z M337.972,731.356v1.187h11.12v29.283h-11.12v1.187h11.12v0.89l-0.778,0.853h-10.342v1.187h9.304
		l-1.594,1.742h-9.452v-40.961h9.452l1.594,1.742h-9.304v1.187h10.342l0.778,0.815v0.89H337.972L337.972,731.356z M341.53,760.084
		v-25.799h-3.559v25.799H341.53z M344.458,760.084v-25.799h-1.186v25.799H344.458z M347.387,760.084v-25.799H346.2v25.799H347.387z
		 M382.49,715.565v46.224h-11.12v1.187h11.12v1.742h-11.12v1.187h11.12v1.742h-12.862v-18.683h1.742v11.12h3.559v-14.679h-11.121
		v-1.742h11.121v-1.187h-11.121v-1.742h11.121v-1.186h-11.121v-12.863h1.742v11.121h1.187v-11.121h1.742v11.121h1.187v-11.121h1.742
		v11.121h3.559v-22.241h1.742v44.481h1.186v-44.481h1.742v44.481h1.187v-44.481H382.49L382.49,715.565z M365.513,748.927v18.683
		h-1.742v-18.683H365.513z M368.441,748.927v18.683h-1.742v-18.683H368.441z"/>
	<path fill="#003DFF" d="M387.754,715.565v52.081h-1.742v-52.081H387.754L387.754,715.565z M390.683,715.565v52.081h-1.742v-52.081
		H390.683L390.683,715.565z M411.181,723.164h-1.186v11.121h-16.422v33.361h-1.742v-52.081h23.983v1.742h-22.241v1.186h22.241v1.742
		h-22.241v1.187h22.241v12.862h-1.742v-11.12h-1.186v11.12h-1.742v-11.12H411.181z M408.253,726.686v-3.559h-14.68v3.559H408.253z
		 M408.253,729.614v-1.187h-14.68v1.187H408.253z M408.253,732.543v-1.187h-14.68v1.187H408.253z M404.731,742.477v1.187h11.12
		v23.983h-1.742v-22.241h-1.187v22.241h-1.742v-22.241h-1.186v22.241h-12.863v-1.742h11.121v-1.187h-11.121v-1.742h11.121v-1.187
		h-11.121v-23.982h1.742v22.24h1.187v-22.24h1.742v22.24h1.187v-22.24h12.862v1.742h-11.12v1.186h11.12v1.742H404.731z
		 M408.253,760.084v-14.679h-3.559v14.679H408.253z"/>
	<path fill="#003DFF" d="M421.115,715.565v52.081h-1.742v-52.081H421.115L421.115,715.565z M424.044,715.565v52.081h-1.742v-52.081
		H424.044L424.044,715.565z M438.093,743.329v18.497h-11.12v1.187h11.12v1.742h-11.12v1.187h1.89l-1.816,1.742h-1.816v-52.081
		h12.863v1.742h-11.12v1.186h11.12v1.742h-11.12v1.187h11.12v18.349h-1.742v-16.606h-1.187v16.606h-1.742v-16.606h-1.186v16.606
		h-1.743v-16.606h-3.558v36.92h3.558v-16.755h1.743v16.755h1.186v-16.755h1.742v16.755h1.187v-16.755h1.742V743.329z
		 M432.532,765.904h5.561v1.742h-3.41L432.532,765.904z"/>
	<path fill="#003DFF" d="M443.356,715.565v52.081h-1.742v-52.081H443.356L443.356,715.565z M446.285,715.565v52.081h-1.742v-52.081
		H446.285L446.285,715.565z M449.213,720.236v1.186h11.121v16.422l-1.742,1.89v-16.532h-1.187v44.482h-1.742v-44.482h-1.187v44.482
		h-1.742v-22.241h-3.559v22.241h-1.742v-52.081h12.863v1.742h-11.121v1.186h11.121v1.742h-11.084V720.236z M452.771,737.807v-14.68
		h-3.559v14.68H452.771z M452.771,740.734v-1.186h-3.559v1.186H452.771z M452.771,743.663v-1.187h-3.559v1.187H452.771z
		 M460.334,745.405v22.241h-1.742V743.44L460.334,745.405z"/>
	<path fill="#003DFF" d="M465.598,715.565v52.081h-1.742v-52.081H465.598L465.598,715.565z M468.525,715.565v52.081h-1.742v-52.081
		H468.525L468.525,715.565z M471.454,720.236v1.186h11.12v46.225h-1.742v-44.482h-1.186v44.482h-1.742v-44.482h-1.187v44.482h-1.742
		v-22.241h-3.559v22.241h-1.742v-52.081h12.862v1.742h-11.12v1.186h11.12v1.742L471.454,720.236L471.454,720.236z M475.013,737.807
		v-14.68h-3.559v14.68H475.013z M475.013,740.734v-1.186h-3.559v1.186H475.013z M475.013,743.663v-1.187h-3.559v1.187H475.013z"/>
</g>
<g>
	<path fill="#5EF938" d="M328.519,507.131h-3.559v14.679h11.121v29.84h-18.683v-18.683h7.562v11.121h3.559v-14.68h-11.12v-29.84
		h18.683v18.683h-7.562V507.131z"/>
	<path fill="#5EF938" d="M339.64,499.568h7.562v52.081h-7.562V499.568z"/>
	<path fill="#5EF938" d="M350.76,499.568h29.84v52.081h-7.562v-44.481h-3.559v44.481h-7.562v-44.481h-3.558v44.481h-7.562v-52.081
		H350.76z"/>
	<path fill="#5EF938" d="M384.158,499.568h18.683v18.683h-11.12v33.361h-7.562V499.568z M391.721,510.689h3.559v-3.559h-3.559
		V510.689z M395.279,521.81h7.562v22.241h11.12v7.562h-18.682V521.81z M406.399,499.568h7.562v40.961h-7.562V499.568z"/>
	<path fill="#5EF938" d="M417.52,499.568h18.683v24.206h-7.562v-16.606h-3.559v36.92h3.559v-16.755h7.562v24.316H417.52V499.568z"/>
	<path fill="#5EF938" d="M439.761,499.568h29.84v7.562h-11.12v44.481h-7.562v-44.481h-11.12v-7.562H439.761z M439.761,510.689h7.562
		v40.96h-7.562V510.689z M469.563,544.051h3.559v-14.68h-11.12v-18.682h7.562v11.12h3.559v-22.241h7.562v52.081h-18.682v-18.683
		h7.562V544.051z"/>
</g>
<g>
	<path fill="#6924ED" d="M324.997,504.202v1.187h11.121v12.862h-1.742v-11.12h-1.187v11.12h-1.742v-11.12h-1.187v11.12h-1.742
		v-11.12h-3.559v14.679h11.121v1.742h-18.683v-23.983h1.742v22.241h1.187v-22.241h1.742v22.241h1.186v-22.241h12.863v1.742h-11.121
		v1.187h11.121v1.742h-11.121V504.202z M317.398,524.701h18.683v1.742h-18.683V524.701z M336.118,527.629v23.983h-1.742v-22.241
		h-1.187v22.241h-1.742v-22.241h-1.187v22.241h-12.862v-1.742h11.12v-1.187h-11.12v-1.742h11.12v-1.186h-11.12v-12.863h1.742v11.121
		h1.187v-11.121h1.742v11.121h1.186v-11.121h1.742v11.121h3.559v-14.679h-11.12v-1.742h18.683V527.629z"/>
	<path fill="#6924ED" d="M341.382,499.568v52.081h-1.742v-52.081H341.382z M344.31,499.568v52.081h-1.742v-52.081H344.31z
		 M347.238,499.568v52.081h-1.742v-52.081H347.238z"/>
	<path fill="#6924ED" d="M352.502,499.568v52.081h-1.742v-52.081H352.502z M355.431,499.568v52.081h-1.742v-52.081H355.431z
		 M358.359,504.202v1.187h22.24v46.224h-1.742v-44.481h-1.186v44.481h-1.742v-44.481h-1.187v44.481h-1.742v-44.481h-3.559v44.481
		H367.7v-44.481h-1.187v44.481h-1.742v-44.481h-1.186v44.481h-1.742v-44.481h-3.559v44.481h-1.742v-52.081h23.982v1.742h-22.24
		v1.187h22.24v1.742H358.359L358.359,504.202z"/>
	<path fill="#6924ED" d="M385.863,499.568v52.081h-1.742v-52.081H385.863z M388.792,499.568v52.081h-1.742v-52.081H388.792z
		 M398.17,507.131h-1.186v11.12h-5.301v33.361h-1.742v-52.081h12.862v1.742h-11.12v1.187h11.12v1.742h-11.12v1.187h11.12v12.862
		h-1.742v-11.12h-1.187v11.12h-1.742v-11.12H398.17z M395.279,510.689v-3.559h-3.559v3.559H395.279z M395.279,513.58v-1.186h-3.559
		v1.186H395.279z M395.279,516.509v-1.187h-3.559v1.187H395.279z M396.984,521.81v29.84h-1.742v-29.84H396.984z M399.912,521.81
		v29.84h-1.742v-29.84H399.912z M413.961,551.612h-12.862v-29.84h1.742v22.241h11.12v1.742h-11.12v1.186h11.12v1.742h-11.12v1.187
		h11.12V551.612z M408.142,499.568v40.961h-1.742v-40.961H408.142z M411.033,499.568v40.961h-1.742v-40.961H411.033z
		 M413.961,499.568v40.961h-1.742v-40.961H413.961z"/>
	<path fill="#6924ED" d="M419.262,499.568v52.081h-1.742v-52.081H419.262z M422.153,499.568v52.081h-1.742v-52.081H422.153z
		 M436.202,527.296v18.497h-11.12v1.186h11.12v1.742h-11.12v1.187h11.12v1.742H423.34v-52.081h12.862v1.742h-11.12v1.187h11.12
		v1.742h-11.12v1.187h11.12v18.349h-1.742v-16.606h-1.187v16.606h-1.742v-16.606h-1.186v16.606h-1.742v-16.606h-3.559v36.92h3.559
		v-16.755h1.742v16.755h1.186v-16.755h1.742v16.755h1.187v-16.755h1.742V527.296z"/>
	<path fill="#6924ED" d="M439.761,499.568h29.84v1.742h-29.84V499.568z M439.761,502.46h29.84v1.742h-29.84V502.46z M453.81,507.131
		h-1.187v44.481h-1.742v-44.481h-11.12v-1.742h29.84v1.742h-11.12v44.481h-1.742v-44.481h-1.187v44.481h-1.742V507.131
		L453.81,507.131z M441.503,510.689v40.96h-1.742v-40.96H441.503z M444.395,510.689v40.96h-1.742v-40.96H444.395z M447.322,510.689
		v40.96h-1.742v-40.96H447.322z M480.684,499.568v46.225h-11.12v1.186h11.12v1.742h-11.12v1.187h11.12v1.742h-12.862v-18.683h1.742
		v11.121h3.559v-14.68h-11.12v-1.742h11.12v-1.186h-11.12v-1.742h11.12v-1.187h-11.12v-12.862h1.742v11.12h1.186v-11.12h1.742v11.12
		h1.187v-11.12h1.742v11.12h3.559v-22.241h1.742v44.482h1.187v-44.482h1.742v44.482h1.186v-44.482H480.684z M463.744,532.93v18.683
		h-1.742V532.93H463.744z M466.635,532.93v18.683h-1.742V532.93H466.635z"/>
</g>
<g>
	<path fill="#067DFF" d="M317.398,569.739h15.31l3.41,3.743v44.482l-3.41,3.817h-15.31V569.739z M324.997,614.221h3.559v-36.92
		h-3.559V614.221z"/>
	<path fill="#067DFF" d="M358.359,569.739v52.08h-18.683v-52.08h7.562v44.481h3.559v-44.481H358.359z"/>
	<path fill="#067DFF" d="M361.881,569.739h18.682v18.682h-11.12v33.361h-7.562V569.739z M369.479,580.859h3.559v-3.559h-3.559
		V580.859z M373.001,591.979h7.562v22.241h11.121v7.562h-18.683V591.979z M384.158,569.739h7.562v40.96h-7.562V569.739z"/>
	<path fill="#067DFF" d="M395.279,569.739h18.682v24.205h-7.562v-16.606h-3.559v36.92h3.559v-16.755h7.562v24.316h-18.682V569.739z"
		/>
	<path fill="#067DFF" d="M417.52,569.739h52.081v7.562h-22.241v44.481h-7.562v-44.481h-22.241v-7.562H417.52z M417.52,621.782
		v-40.923h18.683v40.96h-7.562v-11.12h-3.559v11.12h-7.562V621.782z M425.082,603.101h3.559v-14.68h-3.559V603.101z
		 M462.002,588.421h-3.559v14.68h11.12v7.562h-11.12v3.559h11.12v7.562h-18.683v-40.923h18.683v18.683h-7.562V588.421z"/>
	<path fill="#067DFF" d="M482.241,616.519l-5.301,5.301l-5.338-5.338l5.301-5.337L482.241,616.519z M473.122,569.739h7.562v35.511
		h-7.562V569.739z"/>
</g>
<g>
	<path d="M332.782,622.005h-15.569v-52.488h15.569l3.558,3.892v44.631L332.782,622.005z M317.621,621.301l3.41-3.41v-44.297
		l-3.41-3.41V621.301z M331.596,573.261l0.853-3.337h-14.567l3.41,3.337H331.596z M331.299,617.779l-2.854-3.336h-3.411
		l-3.336,3.336H331.299z M328.334,613.998v-36.475h-3.114v36.512h3.114V613.998z M331.67,617.631l0.481-1.112v-41.516l-0.407-1.112
		l-3.003,3.484v36.771L331.67,617.631z"/>
	<path d="M358.544,622.005h-19.127v-52.488h8.007v44.481h3.113v-44.481h8.007V622.005z M339.861,621.301l3.411-3.41v-44.297
		l-3.411-3.41V621.301z M343.494,573.224l3.263-3.263h-6.636L343.494,573.224z M354.059,617.779l-3.336-3.336h-3.41l-3.336,3.336
		H354.059z M354.393,617.482v-43.852l-3.41-3.41v43.926L354.393,617.482z M354.615,573.224l3.262-3.263h-6.598L354.615,573.224z"/>
	<path d="M369.665,588.644v33.361h-8.007v-52.488h19.127v19.127H369.665z M365.513,617.891v-44.297l-3.41-3.41v51.08
		L365.513,617.891z M376.708,573.261l3.41-3.337h-17.719l3.41,3.337H376.708z M376.3,584.418l-3.336-3.336h-3.41l-3.336,3.336H376.3
		z M372.815,580.637v-3.113h-3.113v3.113H372.815z M391.942,622.005h-19.127v-30.247h8.007v22.24h11.12V622.005z M376.634,584.121
		v-10.082l-3.41,3.336v3.41L376.634,584.121z M373.224,621.301l3.41-3.41v-22.019l-3.41-3.41V621.301z M376.855,595.464l3.263-3.262
		h-6.599L376.855,595.464z M387.828,617.779l3.41-3.336h-10.564l-3.336,3.336H387.828z M383.936,569.517h8.007v41.368h-8.007
		V569.517z M384.344,610.181l3.41-3.411v-33.176l-3.41-3.41V610.181z M387.977,573.224l3.262-3.263h-6.598L387.977,573.224z"/>
	<path d="M414.184,622.005h-19.127v-52.488h19.127v24.613h-8.007v-16.606h-3.113v36.512h3.113V597.28h8.007V622.005z
		 M395.464,621.301l3.41-3.41v-44.297l-3.41-3.41V621.301z M410.069,573.261l3.41-3.337h-17.719l3.41,3.337H410.069z
		 M409.661,617.779l-3.336-3.336h-3.41l-3.336,3.336H409.661z M406.585,593.426l3.41-3.41v-15.977l-3.41,3.336V593.426z
		 M409.995,617.482v-16.124l-3.41-3.41v16.198L409.995,617.482z M410.218,600.95l3.262-3.262h-6.599L410.218,600.95z"/>
	<path d="M447.545,577.523v44.481h-8.007v-44.481h-22.24v-8.007h52.488v8.007H447.545z M428.418,610.885h-3.114v11.12h-8.006
		v-41.368h19.127v41.368h-8.007V610.885z M417.705,576.818l3.262-3.336l-3.262-3.262V576.818z M421.115,617.891v-33.176l-3.41-3.411
		v39.96L421.115,617.891z M421.412,573.261h44.297l3.41-3.337h-51.117L421.412,573.261z M432.31,584.418l3.411-3.336h-17.719
		l3.41,3.336H432.31z M431.902,606.659l-3.336-3.337h-3.41l-3.337,3.337H431.902z M428.418,602.878v-14.234h-3.114v14.234H428.418z
		 M432.236,606.362v-21.203l-3.411,3.336v14.531L432.236,606.362z M428.825,621.301l3.411-3.41V607.4l-3.411,3.336V621.301z
		 M439.946,621.301l3.41-3.41v-43.852l-3.41,3.336V621.301z M469.786,622.005h-19.127v-41.368h19.127v19.127h-8.007v-11.12h-3.113
		v14.234h11.12v8.007h-11.12v3.113h11.12V622.005z M454.477,617.891v-33.176l-3.41-3.411v39.96L454.477,617.891z M465.672,584.418
		l3.41-3.336h-17.719l3.41,3.336H465.672z M465.672,606.659l3.41-3.337h-10.564l-3.337,3.337H465.672z M465.672,617.779l3.41-3.336
		h-10.564l-3.337,3.336H465.672z M462.188,599.06l3.41-3.41v-10.49l-3.41,3.336V599.06z"/>
	<path d="M476.866,610.811l5.634,5.708l-5.56,5.561l-5.635-5.634L476.866,610.811z M472.084,616.223h4.597v-4.671L472.084,616.223z
		 M476.718,621.301v-4.671h-4.634L476.718,621.301z M472.899,569.517h8.007v35.956h-8.007V569.517z M473.345,604.769l3.41-3.41
		v-27.728l-3.41-3.41V604.769z M476.94,573.224l3.262-3.263h-6.598L476.94,573.224z"/>
</g>
<g>
	<path fill="#094357" d="M343.42,702.702h-20.646l-6.746-6.746v-54.009h20.646l6.746,6.747v26.133h-1.594l1.594,1.594V702.702z"/>
	<path fill="#094357" d="M365.661,702.702h-20.646l-6.747-6.746v-54.009h20.647l6.746,6.747v20.646h-1.594l1.594,1.595v9.526h-1.594
		l1.594,1.594V702.702z"/>
	<path fill="#094357" d="M376.782,701.108v1.595h-9.527l-6.746-6.747v-42.888h1.594l-1.594-1.594v-9.526h42.888l6.747,6.746v9.526
		h-1.595l1.595,1.594v42.889h-9.527l-1.594-1.595v1.595h-9.526l-1.594-1.595v1.595h-9.526L376.782,701.108z"/>
	<path fill="#094357" d="M421.264,701.108v1.595h-9.526l-6.747-6.747v-54.008h31.768l6.747,6.746v20.646h-1.594l1.594,1.595v9.526
		h-1.594l1.594,1.594v9.526h-1.594l1.594,1.594v9.527h-20.647L421.264,701.108z"/>
	<path fill="#094357" d="M445.099,702.702l-6.746-6.746v-54.009h17.236l6.413,6.413l3.743,4.115v45.594l-4.188,4.67h-16.458V702.702
		z"/>
	<path fill="#094357" d="M487.986,702.702H467.34l-6.747-6.746v-54.009h20.647l6.746,6.747v20.646h-1.594l1.594,1.595v9.526h-1.594
		l1.594,1.594V702.702z"/>
</g>
<g>
	<path fill="#EF4E4E" d="M319.141,643.356v52.081h-1.742v-52.081H319.141z M322.069,643.356v52.081h-1.742v-52.081H322.069z
		 M336.118,671.083v18.497h-11.121v1.187h11.121v1.742h-11.121v1.187h11.121v1.742h-12.863v-52.081h12.863v1.742h-11.121v1.187
		h11.121v1.742h-11.121v1.186h11.121v18.349h-1.742v-16.644h-1.187v16.606h-1.742v-16.606h-1.187v16.606h-1.742v-16.606h-3.559
		v36.92h3.559v-16.755h1.742v16.755h1.187v-16.755h1.742v16.755h1.187v-16.755H336.118z"/>
	<path fill="#EF4E4E" d="M341.382,643.356v52.081h-1.742v-52.081H341.382z M344.31,643.356v52.081h-1.742v-52.081H344.31z
		 M358.359,676.718v12.862h-11.121v1.187h11.121v1.742h-11.121v1.187h11.121v1.742h-12.863v-52.081h12.863v1.742h-11.121v1.186
		h11.121v1.742h-11.121v1.187h11.121v12.862h-1.743v-11.12h-1.186v11.12h-1.742v-11.12h-1.187v11.12h-1.742v-11.12h-3.559v14.679
		h11.121v1.742h-11.121v1.187h11.121v1.742h-11.121v1.187h11.121v1.742h-11.121v14.679h3.559v-11.12h1.742v11.12h1.187v-11.12h1.742
		v11.12h1.186v-11.12h1.743V676.718z"/>
	<path fill="#EF4E4E" d="M361.881,643.356h40.96v1.742h-40.96V643.356z M361.881,646.285h40.96v1.742h-40.96V646.285z
		 M387.05,650.918h-1.187V695.4h-1.742v-44.482H361.88v-1.742h40.961v1.742h-11.12V695.4h-1.742v-44.482h-1.187V695.4h-1.742
		V650.918L387.05,650.918z M363.623,654.477v40.961h-1.742v-40.961H363.623z M366.551,654.477v40.961h-1.742v-40.961H366.551z
		 M369.479,659.147v1.187h11.12v35.104h-1.742v-33.361h-1.186v33.361h-1.742v-33.361h-1.187v33.361h-1.742v-33.361h-3.559v33.361
		H367.7v-40.961h12.862v1.742h-11.12v1.187h11.12v1.742H369.479L369.479,659.147z M396.984,654.477v40.961h-1.742v-40.961H396.984z
		 M399.912,654.477v40.961h-1.742v-40.961H399.912z M402.841,654.477v40.961h-1.742v-40.961H402.841z"/>
	<path fill="#EF4E4E" d="M408.142,643.356v52.081h-1.742v-52.081H408.142z M411.033,643.356v52.081h-1.742v-52.081H411.033z
		 M431.531,650.918h-1.186v11.121h-16.422V695.4h-1.742v-52.081h23.983v1.742h-22.241v1.187h22.241v1.742h-22.241v1.186h22.241
		v12.863h-1.742v-11.121h-1.187v11.121h-1.742v-11.121H431.531z M428.641,654.477v-3.559h-14.68v3.559H428.641z M428.641,657.405
		v-1.187h-14.68v1.187H428.641z M428.641,660.297v-1.187h-14.68v1.187H428.641z M419.262,665.598v29.84h-1.742v-29.84H419.262z
		 M422.153,665.598v29.84h-1.742v-29.84H422.153z M423.34,665.598h12.862v1.742h-11.12v1.186h11.12v1.742h-11.12v1.187h11.12v1.742
		h-11.12v3.559h11.12v1.742h-11.12v1.187h11.12v1.742h-11.12v1.186h11.12v1.742h-11.12v3.559h11.12v1.742h-11.12v1.187h11.12v1.742
		h-11.12v1.186h11.12v1.742H423.34V665.598z"/>
	<path fill="#EF4E4E" d="M441.503,643.356v52.081h-1.742v-52.081H441.503z M444.395,643.356v52.081h-1.742v-52.081H444.395z
		 M447.322,648.027v1.186h11.121v40.404h-11.121v1.187h11.121v0.89l-0.778,0.853h-10.343v1.187h9.305l-1.594,1.742h-9.453v-52.081
		h9.453l1.594,1.742h-9.305v1.186h10.343l0.778,0.815v0.891H447.322L447.322,648.027z M450.881,687.838v-36.92h-3.559v36.92H450.881
		z M453.81,687.838v-36.92h-1.187v36.92H453.81z M456.701,687.838v-36.92h-1.187v36.92H456.701z"/>
	<path fill="#EF4E4E" d="M463.744,643.356v52.081h-1.742v-52.081H463.744z M466.672,643.356v52.081h-1.742v-52.081H466.672z
		 M480.684,676.718v12.862h-11.12v1.187h11.12v1.742h-11.12v1.187h11.12v1.742h-12.862v-52.081h12.862v1.742h-11.12v1.186h11.12
		v1.742h-11.12v1.187h11.12v12.862h-1.742v-11.12h-1.186v11.12h-1.742v-11.12h-1.187v11.12h-1.742v-11.12h-3.559v14.679h11.121
		v1.742h-11.121v1.187h11.121v1.742h-11.121v1.187h11.121v1.742h-11.121v14.679h3.559v-11.12h1.742v11.12h1.187v-11.12h1.742v11.12
		h1.186v-11.12h1.742V676.718z"/>
</g>
<g>
	<path d="M156.003,287.761h-6.524v-38.366h-28.765v-6.524h83.255v6.524h-19.165v38.366h-6.524v-38.366h-22.241v38.366H156.003z
		 M120.714,252.472h25.726v16.125h-19.202v19.164h-6.524V252.472z M127.238,262.072h12.641v-3.04h-12.641V262.072z M130.278,271.636
		h16.125v16.125h-16.125V271.636z M136.839,281.237h3.04v-3.04h-3.04V281.237z M159.043,287.761v-35.289h16.125v35.289h-6.524
		v-9.601h-3.04v9.601H159.043z M165.604,271.636h3.04v-12.641h-3.04V271.636z M187.845,252.472h16.125v35.289h-16.125
		L187.845,252.472L187.845,252.472z M194.369,281.237h3.04v-22.241h-3.04V281.237z"/>
	<path d="M216.61,249.395h-3.04v12.677h9.601v6.524h-9.601v12.64h3.04v-9.601h6.524v16.125h-16.125v-44.89h16.125v16.125h-6.524
		V249.395z"/>
	<path d="M235.774,242.871H261.5v6.524h-19.164v3.04H261.5v6.524h-19.164v28.765h-6.524v-44.853H235.774z M245.375,262.072H261.5
		v25.726h-6.524v-9.601h-3.077v9.601h-6.524V262.072z M251.899,271.636h3.04v-3.04h-3.04V271.636z"/>
	<path d="M264.539,242.871h16.125v19.201l-2.929,3.225l2.929,3.299v19.164h-6.524v-19.164h-3.04v19.164h-6.524v-44.89H264.539z
		 M271.063,262.072h3.04v-12.64h-3.04V262.072z"/>
	<path d="M283.741,242.871h25.725v44.89h-6.524v-38.366h-3.04v38.366h-6.524v-38.366h-3.04v38.366h-6.524v-44.89H283.741z"/>
	<path d="M322.069,249.395h-3.04v12.677h9.601v25.726h-16.124v-16.125h6.523v9.601h3.04v-12.64h-9.601v-25.726h16.161v16.125h-6.523
		v-9.638H322.069z"/>
	<path d="M341.271,242.871h13.196l2.929,3.225v38.366l-2.929,3.299h-13.196V242.871z M347.795,281.237h3.039v-31.842h-3.039V281.237
		z"/>
	<path d="M370.035,249.395h-3.039v12.677h9.601v6.524h-9.601v12.64h3.039v-9.601h6.524v16.125h-16.125v-44.89h16.125v16.125h-6.524
		V249.395z"/>
	<path d="M379.636,242.871h16.125v16.125h-9.601v28.765h-6.524V242.871z M386.16,252.472h3.039v-3.04h-3.039V252.472z
		 M389.199,262.072h6.524v19.165h19.164v6.524h-25.726v-25.688H389.199z M398.801,242.871h16.124v16.125h-6.523v-9.601h-3.04v12.677
		h9.601v6.524h-9.601v3.04h9.601v6.524h-16.124v-35.289H398.801z"/>
	<path d="M417.965,242.871h44.89v6.524h-19.165v38.366h-6.523v-38.366h-19.201V242.871z M417.965,287.761v-35.289h16.124v35.289
		h-6.523v-9.601h-3.04v9.601H417.965z M424.525,271.636h3.04v-12.641h-3.04V271.636z M456.33,258.996h-3.039v12.641h9.601v6.524
		h-9.601v3.04h9.601v6.524h-16.125v-35.289h16.125v16.125h-6.524v-9.564H456.33z"/>
	<path d="M465.931,242.871h13.196l2.929,3.225v38.366l-2.929,3.299h-13.196V242.871z M472.455,281.237h3.039v-31.842h-3.039V281.237
		z"/>
	<path d="M492.954,283.201l-4.56,4.56l-4.634-4.634l4.56-4.633L492.954,283.201z M485.095,242.871h6.524v30.618h-6.524V242.871z"/>
</g>
<g>
	<path d="M127.424,313.486v28.765h-6.895v-45.26h16.458v6.895h-9.563v2.706h9.563v6.895H127.424L127.424,313.486z M123.828,338.729
		v-38.18l-2.928-2.928v44.037L123.828,338.729z M133.466,300.253l2.928-2.892h-15.272l2.929,2.892H133.466z M133.466,309.816
		l2.928-2.892h-9.119l-2.891,2.892H133.466z M156.188,342.251h-26.096v-26.059h6.895v19.165h19.165v6.895H156.188z M130.463,341.658
		l2.928-2.929v-19.016l-2.928-2.928V341.658z M133.577,319.343l2.817-2.817h-5.671L133.577,319.343z M152.63,338.618l2.928-2.891
		h-18.683l-2.891,2.891H152.63z M139.693,296.991h16.495v35.66h-16.495V296.991z M140.064,332.057l2.928-2.928v-28.58l-2.928-2.928
		V332.057z M152.63,300.253l2.928-2.892h-15.272l2.928,2.892H152.63z M152.296,329.018l-2.891-2.891h-2.928l-2.892,2.891H152.296z
		 M149.294,325.793v-21.871h-2.706v21.871H149.294z M152.593,328.758v-27.875l-2.929,2.892v22.129L152.593,328.758z"/>
	<path d="M165.79,313.486v28.765h-6.895v-45.26h26.059v16.496H165.79z M162.157,338.729v-38.18l-2.928-2.928v44.037L162.157,338.729
		z M181.432,300.253l2.928-2.892h-24.873l2.928,2.892H181.432z M181.062,309.816l-2.892-2.892h-12.529l-2.891,2.892H181.062z
		 M178.059,306.591v-2.706h-12.27v2.706H178.059z M175.353,332.65v9.601h-6.895v-26.059h16.495v16.496h-9.601V332.65z
		 M171.757,338.729v-19.016l-2.928-2.928v24.873L171.757,338.729z M181.432,319.417l2.928-2.891h-15.272l2.928,2.891H181.432z
		 M181.062,329.018l-2.892-2.891h-2.928l-2.891,2.891H181.062z M178.059,325.793v-2.706h-2.706v2.706H178.059z M181.358,309.594
		v-8.674l-2.928,2.892v2.928L181.358,309.594z M181.358,328.758v-8.674l-2.928,2.892v2.928L181.358,328.758z"/>
	<path d="M194.554,342.251h-6.895v-45.26h6.895V342.251z M187.993,341.658l2.929-2.929v-38.18l-2.929-2.928V341.658z
		 M191.107,300.179l2.817-2.817h-5.708L191.107,300.179z"/>
	<path d="M213.719,342.251h-16.496v-45.26h16.496v16.496h-6.895v-9.601h-2.706v12.307h9.601v6.895h-9.601v12.27h2.706v-9.601h6.895
		V342.251z M200.522,338.729v-38.18l-2.929-2.928v44.037L200.522,338.729z M210.197,300.253l2.928-2.892h-15.272l2.928,2.892
		H210.197z M210.197,319.417l2.928-2.891h-9.119l-2.892,2.891H210.197z M209.827,338.618l-2.892-2.891h-2.928l-2.892,2.891H209.827z
		 M207.195,312.893l2.928-2.928v-9.045l-2.928,2.891V312.893z M210.123,338.359v-9.044l-2.928-2.929v9.082L210.123,338.359z
		 M210.308,328.943l2.817-2.817h-5.708L210.308,328.943z"/>
	<path d="M232.883,342.251h-16.495v-16.495h6.895v9.601h2.706v-12.27h-9.601v-26.059h16.495v16.496h-6.895v-9.601h-2.706v12.27
		h9.601V342.251z M216.758,322.494l2.928-2.928v-19.016l-2.928-2.928V322.494z M216.758,341.658l2.928-2.929v-9.415l-2.928-2.929
		V341.658z M229.361,300.253l2.929-2.892h-15.272l2.929,2.892H229.361z M219.909,328.943l2.817-2.817h-5.708L219.909,328.943z
		 M229.361,319.417l2.929-2.891h-9.119l-2.891,2.891H229.361z M228.991,338.618l-2.891-2.891h-2.929l-2.891,2.891H228.991z
		 M226.359,312.893l2.928-2.928v-9.045l-2.928,2.891V312.893z M229.287,338.359v-18.275l-2.928,2.892v12.492L229.287,338.359z"/>
	<path d="M252.084,313.486v28.765h-6.895v-45.26h26.059v16.496H252.084z M248.489,338.729v-38.18l-2.929-2.928v44.037
		L248.489,338.729z M267.727,300.253l2.928-2.892h-24.873l2.928,2.892H267.727z M267.356,309.816l-2.892-2.892h-12.529l-2.892,2.892
		H267.356z M264.354,306.591v-2.706h-12.27v2.706H264.354z M264.354,332.65h-2.706v9.601h-6.895v-26.059h16.496v9.823l-2.891,3.188
		l2.891,3.225v9.823h-6.895V332.65z M258.089,338.729v-19.016l-2.928-2.928v24.873L258.089,338.729z M267.727,319.417l2.928-2.891
		h-15.272l2.928,2.891H267.727z M263.649,329.018l2.595-1.149l-1.742-1.742h-2.965l-2.891,2.891H263.649z M264.354,325.793v-2.706
		h-2.706v2.706H264.354z M267.653,309.594v-8.674l-2.928,2.892v2.928L267.653,309.594z M266.467,327.646l1.186-3.002v-4.559
		l-2.928,2.891v2.928L266.467,327.646z M264.725,341.658l2.928-2.929v-4.967l-1.149-2.928l-1.816,1.742v9.082H264.725z"/>
	<path d="M290.45,342.251h-16.495v-45.26h16.495V342.251z M274.325,341.658l2.928-2.929v-38.18l-2.928-2.928V341.658z
		 M286.891,300.253l2.929-2.892h-15.272l2.929,2.892H286.891z M286.558,338.618l-2.891-2.891h-2.929l-2.891,2.891H286.558z
		 M283.555,335.356v-31.471h-2.706v31.471H283.555z M286.854,338.359v-37.476l-2.929,2.892v31.693L286.854,338.359z"/>
	<path d="M309.614,342.251h-13.419l-3.04-3.41v-41.85h6.895v38.366h2.706v-38.366h6.895v45.26H309.614z M293.489,338.544
		l2.929-1.149v-36.846l-2.929-2.928V338.544z M296.121,341.732l0.705-2.891l-0.371-1.075l-2.892,1.075L296.121,341.732z
		 M296.603,300.179l2.817-2.817h-5.708L296.603,300.179z M305.722,338.618l-2.892-2.891h-2.928l-2.447,2.891H305.722z
		 M306.019,338.359v-37.81l-2.928-2.928v37.847L306.019,338.359z M306.204,300.179l2.817-2.817h-5.709L306.204,300.179z"/>
	<path d="M328.778,342.251H312.32v-45.26h16.495v16.496h-6.895v-9.601h-2.706v12.307h9.601v6.895h-9.601v12.27h2.706v-9.601h6.895
		v16.495H328.778z M315.619,338.729v-38.18l-2.929-2.928v44.037L315.619,338.729z M325.257,300.253l2.929-2.892h-15.272l2.929,2.892
		H325.257z M325.257,319.417l2.929-2.891h-9.119l-2.892,2.891H325.257z M324.887,338.618l-2.892-2.891h-2.929l-2.892,2.891H324.887z
		 M322.254,312.893l2.929-2.928v-9.045l-2.929,2.891V312.893z M325.183,338.359v-9.044l-2.929-2.929v9.082L325.183,338.359z
		 M325.368,328.943l2.817-2.817h-5.709L325.368,328.943z"/>
	<path d="M357.58,342.251h-16.495v-45.26h16.495v16.496h-6.895v-9.601h-2.706v12.307h9.601v6.895h-9.601v12.27h2.706v-9.601h6.895
		V342.251z M344.384,338.729v-38.18l-2.928-2.928v44.037L344.384,338.729z M354.021,300.253l2.929-2.892h-15.272l2.929,2.892
		H354.021z M354.021,319.417l2.929-2.891h-9.119l-2.891,2.891H354.021z M353.651,338.618l-2.892-2.891h-2.929l-2.891,2.891H353.651z
		 M351.02,312.893l2.929-2.928v-9.045l-2.929,2.891V312.893z M353.984,338.359v-9.044l-2.928-2.929v9.082L353.984,338.359z
		 M354.133,328.943l2.817-2.817h-5.708L354.133,328.943z"/>
	<path d="M369.85,323.087h-2.705v19.164h-6.896v-19.424l2.892-3.225l-2.892-3.188v-19.424h6.896v19.201h2.705v-19.164h6.896v19.424
		l-2.892,3.188l2.892,3.225v19.424h-6.896V323.087z M360.62,316.118l2.929-1.149v-14.457l-2.929-2.928V316.118z M360.62,341.658
		l2.929-2.929v-14.457l-2.929-1.149V341.658z M363.623,315.339l-2.892,1.075l2.706,3.002h3.484l-2.039-0.89h-0.074v-0.074
		L363.623,315.339z M366.922,319.788h-3.484l-2.706,3.04l2.892,1.075l1.148-3.114h0.074v-0.074h0.074L366.922,319.788z
		 M363.733,300.179l2.817-2.817h-5.708L363.733,300.179z M369.146,319.417l2.595-1.149l-1.742-1.742h-2.928l-1.742,1.742
		l2.521,1.149H369.146z M371.963,318.045l1.187-3.002v-14.494l-2.929-2.928v18.682L371.963,318.045z M370.221,341.658l2.929-2.929
		v-14.568L372,321.233l-1.816,1.742v18.683H370.221z M373.334,300.179l2.817-2.817h-5.708L373.334,300.179z"/>
	<path d="M386.346,342.251h-6.895v-45.26h6.895V342.251z M379.784,341.658l2.929-2.929v-38.18l-2.929-2.928V341.658z
		 M382.936,300.179l2.816-2.817h-5.708L382.936,300.179z"/>
	<path d="M415.11,303.885v38.366h-6.895v-38.366h-19.164v-6.895h45.223v6.895H415.11z M405.51,342.251h-16.495v-6.895h9.601v-2.706
		h-9.601v-26.059h16.495v16.496h-6.895v-9.601h-2.706v12.27h9.601V342.251L405.51,342.251z M389.385,303.292l2.817-2.892
		l-2.817-2.817V303.292z M389.385,332.057l2.929-2.928v-19.016l-2.929-2.928V332.057z M389.385,341.658l2.817-2.892l-2.817-2.817
		V341.658z M392.573,300.253h38.18l2.929-2.892h-44.037L392.573,300.253z M401.988,309.816l2.929-2.892h-15.272l2.929,2.892H401.988
		z M401.617,338.618l-2.891-2.891h-9.119l2.929,2.891H401.617z M401.988,329.018l2.929-2.891h-9.119l-2.892,2.891H401.988z
		 M398.985,322.494l2.929-2.928v-9.045l-2.929,2.892V322.494z M401.914,338.359v-8.674l-2.929,2.891v2.928L401.914,338.359z
		 M408.586,341.658l2.929-2.929v-37.81l-2.929,2.892V341.658z M434.274,342.251h-16.495v-35.66h16.495v16.496h-6.895v-9.601h-2.706
		v12.27h9.601v6.895h-9.601v2.706h9.601V342.251z M421.078,338.729v-28.58l-2.928-2.928v34.473L421.078,338.729z M430.753,309.816
		l2.929-2.892h-15.272l2.929,2.892H430.753z M430.753,329.018l2.929-2.891h-9.119l-2.891,2.891H430.753z M430.753,338.618
		l2.929-2.891h-9.119l-2.891,2.891H430.753z M427.751,322.494l2.928-2.928v-9.045l-2.928,2.892V322.494z"/>
	<path d="M446.581,303.885h-2.706v38.366h-6.895v-45.26h16.495v45.26h-6.895V303.885L446.581,303.885z M437.352,341.658l2.928-2.929
		v-38.18l-2.928-2.928V341.658z M449.917,300.253l2.929-2.892h-15.272l2.929,2.892H449.917z M446.915,341.658l2.929-2.929v-37.81
		l-2.929,2.892V341.658z"/>
	<path d="M472.641,342.251h-16.496v-45.26h16.496v21.203h-6.896v-14.309h-2.705v31.471h2.705V320.9h6.896V342.251z M456.516,341.658
		l2.929-2.929v-38.18l-2.929-2.928V341.658z M469.119,300.253l2.928-2.892h-15.271l2.928,2.892H469.119z M468.748,338.618
		l-2.892-2.891h-2.928l-2.892,2.891H468.748z M466.116,317.638l2.929-2.928v-13.79l-2.929,2.892V317.638z M469.045,338.359v-13.9
		l-2.929-2.929v13.938L469.045,338.359z M469.23,324.087l2.816-2.817h-5.708L469.23,324.087z"/>
	<path d="M491.805,342.251H475.31v-45.26h16.495v16.496h-6.895v-9.601h-2.706v12.307h9.601v6.895h-9.601v12.27h2.706v-9.601h6.895
		V342.251z M478.646,338.729v-38.18l-2.929-2.928v44.037L478.646,338.729z M488.283,300.253l2.928-2.892h-15.271l2.929,2.892
		H488.283z M488.283,319.417l2.928-2.891h-9.118l-2.892,2.891H488.283z M487.912,338.618l-2.891-2.891h-2.929l-2.892,2.891H487.912z
		 M485.28,312.893l2.929-2.928v-9.045l-2.929,2.891V312.893z M488.209,338.359v-9.044l-2.929-2.929v9.082L488.209,338.359z
		 M488.395,328.943l2.816-2.817h-5.708L488.395,328.943z"/>
</g>
<g>
	<path d="M122.197,352.223v44.89h-1.483v-44.89H122.197z M124.718,352.223v44.89h-1.483v-44.89H124.718z M127.238,356.263v1.001
		h9.601v14.16l-1.482,1.631v-14.271h-1.001v38.366h-1.483v-38.403h-1.075v38.366h-1.483v-19.165h-3.04v19.165h-1.482v-44.89h11.083
		v1.482h-9.638v1.001h9.601v1.482h-9.601V356.263z M130.278,371.424v-12.64h-3.04v12.64H130.278z M130.278,373.944v-1.001h-3.04
		v1.001H130.278z M130.278,376.428v-1h-3.04v1H130.278z M136.839,377.948v19.165h-1.482v-20.87L136.839,377.948z"/>
	<path d="M146.403,356.263v1.001h9.601v39.849h-1.483v-38.366h-1v38.366h-1.483v-38.366h-1.001v38.366h-11.157v-1.483h9.601v-1.001
		h-9.601v-1.482h9.601v-1.001h-9.601v-39.922h1.482v38.365h1.001v-38.365h1.483v38.365h1v-38.365h11.083v1.482h-9.601v1.001h9.601
		v1.482h-9.526V356.263z M149.479,390.588v-31.841h-3.04v31.841H149.479z"/>
	<path d="M160.563,352.223v44.89h-1.483v-44.89H160.563z M163.083,352.223v44.89h-1.483v-44.89H163.083z M184.769,397.112h-20.685
		v-44.89h1.483v38.365h19.165v1.483h-19.165v1.001h19.165v1.482h-19.165v1.001h19.165v1.557H184.769z M170.164,352.223v35.289
		h-1.483v-35.289H170.164z M172.647,352.223v35.289h-1.483v-35.289H172.647z M184.769,387.548h-11.083v-35.289h1.482v28.765h9.601
		v1.483h-9.601v1h9.601v1.483h-9.601v1.001h9.601V387.548z M179.727,352.223v25.725h-1.483v-25.725H179.727z M182.248,352.223
		v25.725h-1.482v-25.725H182.248z M184.769,352.223v25.725h-1.483v-25.725H184.769z"/>
	<path d="M189.328,352.223v44.89h-1.483v-44.89H189.328z M191.848,352.223v44.89h-1.482v-44.89H191.848z M194.369,356.263v1.001
		h9.601v39.849h-1.483v-38.366h-1v38.366h-1.483v-38.366h-1.001v38.366h-1.482v-38.366h-3.04v38.366h-1.482v-44.89h11.083v1.482
		h-9.601v1.001h9.601v1.482h-9.712V356.263z"/>
	<path d="M208.492,352.223v44.89h-1.483v-44.89H208.492z M211.013,352.223v44.89h-1.483v-44.89H211.013z M223.134,376.131v15.939
		h-9.601v1.001h9.601v1.482h-9.601v1.001h1.631l-1.557,1.483h-1.557v-44.815h11.083v1.482h-9.601v1.001h9.601v1.482h-9.601v1.001
		h9.601v15.828h-1.482v-14.308h-1.001v14.308h-1.483v-14.308h-1v14.308h-1.483v-14.308h-3.04v31.841h3.04v-14.457h1.483v14.457h1
		v-14.457h1.483v14.457h1.001v-14.457h1.482V376.131z M218.352,395.629h4.782v1.483h-2.928L218.352,395.629z"/>
	<path d="M226.173,352.223h44.89v1.482h-44.89V352.223z M226.173,354.743h44.89v1.482h-44.89V354.743z M247.896,358.747h-1.001
		v38.366h-1.482v-38.366h-19.165v-1.483h44.89v1.483h-19.238v38.366h-1.483v-38.366h-1v38.366h-1.483v-38.366H247.896z
		 M232.734,365.827v1h9.601v11.083h-1.483v-9.601h-1.001v9.601h-1.482v-9.601h-1.001v9.601h-1.483v-9.601h-3.04v12.64h9.601v1.483
		h-16.125v-20.684h1.483v19.164h1v-19.164h1.483v19.164h1.001v-19.164h11.083v1.482h-9.601v1.001h9.601v1.483h-9.638V365.827z
		 M226.173,383.508h16.125v1.483h-16.125V383.508z M242.298,386.029v11.083h-1.483v-9.601h-1.001v9.601h-1.482v-9.601h-1.001v9.601
		h-11.083v-1.483h9.601v-1.001h-9.601v-1.482h9.601v-1.001h-9.601v-1.483h9.601v-3.04h-9.601v-1.482h16.051V386.029z M261.5,365.827
		v1h9.601v30.285h-1.482v-28.765h-1.038v28.765h-1.483v-28.765h-1v28.765h-11.083v-1.483h9.601v-1.001h-9.601v-1.482h9.601v-1.001
		h-9.601V361.86h1.482v28.765h1.001V361.86h1.483v28.765h1.001V361.86h11.083v1.482h-9.601v1.001h9.601v1.483H261.5L261.5,365.827z
		 M264.539,390.588v-22.241h-3.04v22.241H264.539z"/>
	<path d="M275.623,352.223v44.89h-1.483v-44.89H275.623z M278.143,352.223v44.89h-1.482v-44.89H278.143z M280.664,356.263v1.001
		h9.601v39.849h-1.483v-38.366h-1.001v38.366h-1.482v-38.366h-1.001v38.366h-1.483v-38.366h-3.04v38.366h-1.482v-44.89h11.083v1.482
		h-9.601v1.001h9.601v1.482h-9.712V356.263z"/>
	<path d="M294.824,352.223v44.89h-1.482v-44.89H294.824z M297.345,352.223v44.89h-1.483v-44.89H297.345z M309.429,380.987v11.083
		h-9.601v1.001h9.601v1.482h-9.601v1.001h9.601v1.483h-11.083v-44.815h11.083v1.482h-9.601v1.001h9.601v1.482h-9.601v1.001h9.601
		v11.083h-1.482v-9.601h-1.001v9.601h-1.483v-9.601h-1v9.601h-1.483v-9.601h-3.04v12.64h9.601v1.483h-9.601v1h9.601v1.483h-9.601
		v1.001h9.601v1.482h-9.601v12.641h3.04v-9.601h1.483v9.601h1v-9.601h1.483v9.601h1.001v-9.601h1.482V380.987z"/>
	<path d="M323.589,352.223v44.89h-1.482v-44.89H323.589z M326.109,352.223v44.89h-1.482v-44.89H326.109z M328.63,356.263v1.001
		h19.165v39.849h-1.483v-38.366h-1.001v38.366h-1.482v-38.366h-1.001v38.366h-1.482v-38.366h-3.04v38.366h-1.482v-38.366h-1.149
		v38.366h-1.482v-38.366h-1.001v38.366h-1.482v-38.366h-3.077v38.366h-1.482v-44.89h20.684v1.482H328.63v1.001h19.165v1.482H328.63
		V356.263z"/>
	<path d="M352.354,352.223v44.89h-1.482v-44.89H352.354z M354.874,352.223v44.89h-1.482v-44.89H354.874z M357.396,356.263v1.001
		h9.601v39.849h-1.483v-38.366h-1.001v38.366h-1.482v-38.366h-1.001v38.366h-1.482v-19.165h-3.04v19.165h-1.482v-44.89h11.084v1.482
		h-9.602v1.001h9.602v1.482h-9.712V356.263z M360.435,371.424v-12.64h-3.039v12.64H360.435z M360.435,373.944v-1.001h-3.039v1.001
		H360.435z M360.435,376.428v-1h-3.039v1H360.435z"/>
	<path d="M371.519,352.223v44.89h-1.483v-44.89H371.519z M374.039,352.223v44.89h-1.483v-44.89H374.039z M386.16,376.131v15.939
		h-9.601v1.001h9.601v1.482h-9.601v1.001h1.631l-1.557,1.483h-1.558v-44.815h11.084v1.482h-9.601v1.001h9.601v1.482h-9.601v1.001
		h9.601v15.828h-1.482v-14.308h-1.001v14.308h-1.483v-14.308h-1v14.308h-1.483v-14.308h-3.039v31.841h3.039v-14.457h1.483v14.457h1
		v-14.457h1.483v14.457h1.001v-14.457h1.482V376.131z M381.341,395.629h4.782v1.483h-2.929L381.341,395.629z"/>
	<path d="M390.72,352.223v44.89h-1.483v-44.89H390.72z M393.24,352.223v44.89h-1.482v-44.89H393.24z M395.761,356.263v1.001h9.601
		v39.849h-1.482v-38.366h-1.001v38.366h-1.482v-38.366h-1.001v38.366h-1.483v-19.165h-3.039v19.165h-1.482v-44.89h11.083v1.482
		h-9.601v1.001h9.601v1.482h-9.712V356.263z M398.801,371.424v-12.64h-3.04v12.64H398.801z M398.801,373.944v-1.001h-3.04v1.001
		H398.801z M398.801,376.428v-1h-3.04v1H398.801z"/>
	<path d="M424.525,352.223v17.385l-16.124,6.005v-1.816l9.601-3.521v-11.491h-3.04v9.304l-1.482,0.556v-9.823h-1.075v10.194
		l-1.482,0.593V358.82h-1.001v11.158l-1.482,0.556v-13.196h9.526v-1.001h-9.601v-1.482h9.601v-1.001h-9.601v-1.483h11.083v17.459
		l1.001-0.371v-17.088h1.482v16.533l1.001-0.408v-16.125h1.594V352.223z M408.401,376.762l16.124-6.005v1.854l-16.124,6.005V376.762
		z M424.525,397.112h-11.083v-17.459l-1.001,0.371v17.089h-1.482V380.58l-1.001,0.408v16.125h-1.482v-17.385l16.124-6.005v1.816
		l-9.601,3.521v11.491h3.04v-9.341l1.482-0.556v9.897h1.001v-10.268l1.482-0.593v10.861h1.001v-11.195l1.482-0.556v13.233h-9.601
		v1.001h9.601v1.483h-9.601v1h9.601v1.594H424.525z"/>
	<path d="M429.085,352.223v44.89h-1.482v-44.89H429.085z M431.568,352.223v44.89h-1.482v-44.89H431.568z M434.089,352.223v44.89
		h-1.482v-44.89H434.089z"/>
	<path d="M438.648,352.223v44.89h-1.482v-44.89H438.648z M441.169,352.223v44.89h-1.482v-44.89H441.169z M443.69,356.263v1.001
		h9.601v39.849h-1.483v-38.366h-1.001v38.366h-1.482v-38.366h-1.001v38.366h-1.482v-38.366h-3.04v38.366h-1.482v-44.89h11.084v1.482
		h-9.602v1.001h9.602v1.482h-9.712V356.263z"/>
	<path d="M457.85,352.223v44.89h-1.482v-44.89H457.85z M460.371,352.223v44.89h-1.483v-44.89H460.371z M472.455,380.987v11.083
		h-9.601v1.001h9.601v1.482h-9.601v1.001h9.601v1.483h-11.084v-44.815h11.084v1.482h-9.601v1.001h9.601v1.482h-9.601v1.001h9.601
		v11.083h-1.482v-9.601h-1.001v9.601h-1.483v-9.601h-1.001v9.601h-1.482v-9.601h-3.039v12.64h9.489v1.483h-9.601v1h9.601v1.483
		h-9.601v1.001h9.601v1.482h-9.601v12.641h3.039v-9.601h1.483v9.601h1v-9.601h1.483v9.601h1.001v-9.601h1.594V380.987z"/>
	<path d="M479.905,388.957l-4.633,4.634l-1.075-1.075l4.634-4.634L479.905,388.957z M487.616,358.747h-1.001v19.164h-4.56v6.598
		h-1.482v-6.598h-1.001v6.598h-1.483v-6.598h-1v6.598h-1.483v-8.081h9.601v-1h-9.601v-1.483h9.601v-1.001h-9.601v-1.482h9.601
		v-12.64h-3.039v9.601h-1.483v-16.125h11.084v1.483h-9.601v1.001h9.601v1.482h-9.601v1.001h9.601v20.684h-1.482v-19.164h-1.001
		v19.164h-1.483v-19.201H487.616z M477.015,352.223v16.125h-1.483v-16.125H477.015z M481.647,390.699l-4.633,4.634l-1.075-1.001
		l4.634-4.671L481.647,390.699z M483.353,392.441l-4.633,4.671l-1.075-1.075l4.634-4.671L483.353,392.441z M479.535,352.223v16.125
		h-1.483v-16.125H479.535z"/>
</g>
<g>
	<path fill="#FFFFFF" d="M120.714,407.269h25.726v44.89h-6.561v-38.365h-3.04v38.365h-6.561v-38.365h-3.04v38.365h-6.524V407.269z"
		/>
	<path fill="#FFFFFF" d="M149.479,407.269h16.125v44.89h-6.524v-19.164h-3.04v19.164h-6.524v-44.89H149.479z M156.003,426.47h3.04
		v-12.64h-3.04V426.47z"/>
	<path fill="#FFFFFF" d="M168.644,407.269h16.125v19.164l-2.929,3.226l2.929,3.299v19.164h-6.524v-19.164h-3.077v19.164h-6.524
		V407.269z M175.167,426.47h3.04v-12.64h-3.04V426.47z"/>
	<path fill="#FFFFFF" d="M194.369,445.635h3.04v-12.641h-9.601v-25.726h6.524v19.164h3.04v-19.164h6.524v44.89h-16.125v-16.125
		h6.524v9.602H194.369z"/>
	<path fill="#FFFFFF" d="M207.009,407.269h6.524v38.366h9.601v6.523h-16.125V407.269z M216.61,407.269h16.125v44.89h-6.524v-19.164
		h-3.04v9.601h-6.524v-35.326H216.61z M223.134,426.47h3.04v-12.64h-3.04V426.47z"/>
	<path fill="#FFFFFF" d="M245.375,413.793h-3.04v38.365h-6.524v-44.89h16.087v44.89h-6.524V413.793z"/>
	<path fill="#FFFFFF" d="M254.938,407.269h13.196l2.928,3.226v38.365l-2.928,3.299h-13.196V407.269z M261.5,445.635h3.04v-31.842
		h-3.04V445.635z"/>
	<path fill="#FFFFFF" d="M283.741,407.269h6.524v44.89h-6.524V407.269z"/>
	<path fill="#FFFFFF" d="M302.905,413.793h-3.04v38.365h-6.524v-44.89h16.125v44.89h-6.524v-38.365H302.905z"/>
	<path fill="#FFFFFF" d="M350.834,413.793h-12.641v38.365h-6.523v-38.365h-19.164v-6.524h54.49v6.524h-9.601v38.365h-6.524v-38.365
		H350.834z M322.069,423.394h-3.04v12.64h9.601v16.125h-16.124v-6.523h9.601v-3.04h-9.601v-25.726h16.124v16.125h-6.523v-9.601
		H322.069z M341.271,416.869h6.524v35.289h-6.524V416.869z M366.959,416.869v28.766h3.039v-28.766h6.524v35.289h-16.125v-35.289
		H366.959z M370.035,407.269h35.289v6.524H386.16v38.365h-6.524v-38.365h-9.601V407.269z M398.801,423.394h-3.04v12.64h9.601v6.524
		h-9.601v3.04h9.601v6.523h-16.125v-35.289h16.125v16.125h-6.523v-9.563H398.801z"/>
	<path fill="#FFFFFF" d="M418.039,407.269h16.124v19.164l-2.928,3.226l2.928,3.299v19.164h-16.124V407.269z M424.562,426.47h3.04
		v-12.64h-3.04V426.47z M424.562,445.635h3.04v-12.641h-3.04V445.635z"/>
	<path fill="#FFFFFF" d="M437.203,407.269h16.125v44.89h-6.524v-19.164h-3.04v19.164h-6.523v-44.89H437.203z M443.764,426.47h3.04
		v-12.64h-3.04V426.47z"/>
	<path fill="#FFFFFF" d="M456.404,407.269h35.289v6.524h-19.164v28.765h-6.524v-28.765h-9.601V407.269z M456.404,416.869h6.524
		v28.766h9.601v6.523h-16.125V416.869z M475.568,416.869h16.125v35.289h-16.125V416.869z M482.13,445.635h3.039v-22.241h-3.039
		V445.635z"/>
</g>
<g>
	<path d="M121.196,151.943h8.934v11.565h-3.633v-7.933h-1.705v17.645h1.705v-8.007h3.633v11.64h-8.934V151.943z"/>
	<path d="M131.872,151.943h8.933v24.91h-3.632v-10.639h-1.705v10.639h-3.633v-24.91H131.872z M135.468,162.581h1.705v-7.006h-1.705
		V162.581z"/>
	<path d="M142.511,151.943h3.632v21.277h10.639v3.633h-14.271V151.943z M147.812,151.943h8.933v8.933h-3.633v-5.338h-1.668v12.381
		h1.705v-5.338h3.633v8.934h-8.934v-19.572H147.812z"/>
	<path d="M167.383,151.943v24.91h-8.934v-24.91h3.633v21.277h1.705v-21.277H167.383z"/>
	<path d="M169.088,151.943h3.633v21.277h5.338v3.633h-8.934v-24.91H169.088z M174.426,151.943h8.934v24.91h-3.633v-10.639h-1.705
		v5.338h-3.596V151.943z M178.059,162.581h1.705v-7.006h-1.705V162.581z"/>
</g>
<g>
	<path d="M198.224,151.943v24.91h-0.815v-24.91H198.224z M199.633,151.943v24.91h-0.815v-24.91H199.633z M206.342,165.213v8.859
		h-5.337v0.556h5.337v0.815h-5.337V176h5.337v0.815h-6.153v-24.91h6.153v0.815h-5.337v0.556h5.337v0.815h-5.337v0.556h5.337v8.786
		h-0.815v-7.933h-0.556v7.933h-0.816v-7.933h-0.556v7.933h-0.815v-7.933h-1.706v17.644h1.706v-8.006h0.815v8.006h0.556v-8.006h0.816
		v8.006h0.556v-8.006h0.815V165.213z"/>
	<path d="M208.863,151.943v24.91h-0.815v-24.91H208.863z M210.271,151.943v24.91h-0.816v-24.91H210.271z M211.68,154.167v0.556
		h5.338v22.13h-0.815v-21.277h-0.63v21.277h-0.816v-21.277h-0.556v21.277h-0.853v-10.639h-1.706v10.639h-0.815v-24.91h6.153v0.815
		h-5.338v0.556h5.338v0.815h-5.301V154.167z M213.348,162.581v-7.006h-1.706v7.006H213.348z M213.348,163.99v-0.556h-1.706v0.556
		H213.348z M213.348,165.361v-0.556h-1.706v0.556H213.348z"/>
	<path d="M219.501,151.943v24.91h-0.816v-24.91H219.501z M220.91,151.943v24.91h-0.815v-24.91H220.91z M232.957,176.853h-11.454
		v-24.91h0.815v21.277h10.639v0.815h-10.639v0.556h10.639v0.815h-10.639v0.556h10.639V176.853z M224.839,151.943v19.572h-0.815
		v-19.572H224.839z M226.21,151.943v19.572h-0.815v-19.572H226.21z M232.957,162.581v6.153h-5.338v0.556h5.338v0.815h-5.338v0.556
		h5.338v0.815h-6.153v-19.572h6.153v0.815h-5.338v0.556h5.338v0.815h-5.338v0.556h5.338v6.228h-0.815v-5.338h-0.556v5.338h-0.815
		v-5.338h-0.556v5.338h-0.815v-5.338h-1.705v12.381h1.705v-5.338h0.815v5.338h0.556v-5.338h0.815v5.338h0.556v-5.338H232.957z"/>
	<path d="M235.478,151.943v24.91h-0.815v-24.91H235.478z M236.886,151.943v24.91h-0.815v-24.91H236.886z M243.596,151.943v22.129
		h-5.338v0.556h5.338v0.815h-5.338V176h5.338v0.815h-6.153v-24.91h0.815v21.277h1.705v-21.277h0.815v21.277h0.556v-21.277h0.815
		v21.277h0.556v-21.277h0.89V151.943z"/>
	<path d="M246.116,151.943v24.91h-0.815v-24.91H246.116z M247.525,151.943v24.91h-0.815v-24.91H247.525z M254.234,176.853h-6.153
		v-24.91h0.815v21.277h5.338v0.815h-5.338v0.556h5.338v0.815h-5.338v0.556h5.338V176.853z M251.417,151.943v19.572h-0.815v-19.572
		H251.417z M252.826,151.943v19.572h-0.815v-19.572H252.826z M254.234,154.167v0.556h5.338v22.13h-0.816v-21.277h-0.556v21.277
		h-0.816v-21.277h-0.556v21.277h-0.815v-10.639h-1.706v5.338h-0.926V151.98h6.153v0.815h-5.338v0.556h5.338v0.815H254.234z
		 M255.939,162.581v-7.006h-1.705v7.006H255.939z M255.939,163.99v-0.556h-1.705v0.556H255.939z M255.939,165.361v-0.556h-1.705
		v0.556H255.939z"/>
</g>
<g>
	<path d="M282.628,176.964h-9.156v-25.095h9.156v11.788h-3.818v-7.933h-1.483v17.385h1.483v-8.006h3.818V176.964z M273.695,176.63
		l1.631-1.631v-21.166l-1.631-1.631V176.63z M280.664,153.648l1.631-1.594h-8.489l1.631,1.594H280.664z M280.479,174.925
		l-1.594-1.594h-1.631l-1.594,1.594H280.479z M278.996,163.286l1.631-1.631v-7.636l-1.631,1.594V163.286z M280.627,174.777v-7.71
		l-1.631-1.631v7.747L280.627,174.777z M280.738,166.881l1.557-1.557h-3.151L280.738,166.881z"/>
	<path d="M289.449,166.288h-1.483v10.639h-3.818v-25.095h9.156v25.095h-3.818v-10.639H289.449z M285.965,174.999v-21.166
		l-1.631-1.631v24.428L285.965,174.999z M291.302,153.648l1.631-1.594h-8.489l1.631,1.594H291.302z M291.117,164.287l-1.594-1.594
		h-1.631l-1.594,1.594H291.117z M289.449,162.47v-6.821h-1.483v6.821H289.449z M291.266,164.138v-10.157l-1.631,1.594v6.932
		L291.266,164.138z M289.634,176.63l1.631-1.631v-10.342l-1.631,1.594V176.63z"/>
	<path d="M309.243,176.964h-14.456v-25.095h3.818v21.24h10.638V176.964z M294.972,176.63l1.631-1.631v-21.166l-1.631-1.631V176.63
		L294.972,176.63z M296.677,153.611l1.557-1.557h-3.151L296.677,153.611z M307.279,174.925l1.631-1.594h-10.379l-1.594,1.594
		H307.279z M309.243,171.626h-9.156v-19.794h9.156v9.156h-3.818v-5.338h-1.482v12.122h1.482v-5.338h3.818V171.626z M300.273,171.292
		l1.631-1.631v-15.865l-1.631-1.631V171.292z M307.279,153.648l1.631-1.594h-8.489l1.631,1.594H307.279z M307.057,169.587
		l-1.594-1.594h-1.631l-1.594,1.594H307.057z M305.611,160.654l1.631-1.631v-5.004l-1.631,1.594V160.654z M307.242,169.476v-5.004
		l-1.631-1.631v5.041L307.242,169.476z M307.316,164.25l1.557-1.557h-3.151L307.316,164.25z"/>
	<path d="M319.882,176.964h-9.155v-25.095h3.817v21.24h1.483v-21.277h3.817v25.132H319.882z M310.911,176.63l1.632-1.631v-21.166
		l-1.632-1.631V176.63z M312.653,153.611l1.558-1.557h-3.151L312.653,153.611z M317.695,174.925l-1.594-1.594h-1.632l-1.594,1.594
		H317.695z M317.881,174.777v-20.981l-1.632-1.631v21.018L317.881,174.777z M317.954,153.611l1.558-1.557h-3.151L317.954,153.611z"
		/>
	<path d="M330.521,176.964h-9.155v-25.095h3.817v21.24h5.338V176.964z M321.55,176.63l1.632-1.631v-21.166l-1.632-1.631V176.63z
		 M323.292,153.611l1.558-1.557h-3.151L323.292,153.611z M328.556,174.925l1.632-1.594h-5.042l-1.594,1.594H328.556z
		 M335.821,176.964h-3.818v-10.639h-1.482v5.301h-3.817v-19.794h9.155v25.132H335.821z M328.519,169.661v-15.865l-1.631-1.631
		v19.127L328.519,169.661z M333.856,153.648l1.632-1.594h-8.489l1.631,1.594H333.856z M333.672,164.287l-1.595-1.594h-1.631
		l-1.594,1.594H333.672z M332.003,162.47v-6.821h-1.482v6.821H332.003z M333.819,164.138v-10.157l-1.631,1.594v6.932
		L333.819,164.138z M332.188,176.63l1.631-1.631v-10.342l-1.631,1.594V176.63z"/>
</g>
<g>
	<path d="M358.692,165.213v11.64h-8.934l1.816-1.816h5.338v-8.007L358.692,165.213z M351.575,153.722h5.338l-1.816,1.816h-1.705
		v17.645l-1.779,1.779v-21.24H351.575z M356.913,153.722l1.779-1.779v11.565h-3.633l1.816-1.816v-7.969H356.913z"/>
	<path d="M365.735,166.214h-1.705v10.639h-3.633l1.816-1.816v-10.639h5.338L365.735,166.214z M362.251,164.36v-10.638h5.301
		l-1.816,1.816h-1.705v7.006L362.251,164.36z M367.552,153.722l1.779-1.779v24.91h-3.633l1.816-1.816v-21.314H367.552z"/>
	<path d="M385.308,173.22v3.633h-14.271l1.816-1.816h10.639L385.308,173.22z M372.89,153.722l1.779-1.779v21.277l-1.779,1.779
		V153.722z M385.308,162.581v8.934h-8.934l1.816-1.816h5.338v-5.338L385.308,162.581z M378.19,153.722h5.338l-1.816,1.816h-1.705
		v12.381l-1.779,1.779v-15.976H378.19z M383.528,153.722l1.779-1.779v8.933h-3.633l1.816-1.816v-5.337H383.528z"/>
	<path d="M394.167,153.722l1.779-1.779v24.91h-8.934l1.816-1.816h5.338V153.722z M388.829,153.722l1.779-1.779v21.277l-1.779,1.779
		V153.722z"/>
	<path d="M406.585,173.22v3.633h-8.934l1.816-1.816h5.338L406.585,173.22z M399.468,153.722l1.779-1.779v21.277l-1.779,1.779
		V153.722z M408.29,166.214h-1.705v5.338h-3.633l1.816-1.816v-5.338h5.338L408.29,166.214z M404.806,164.36v-10.638h5.338
		l-1.816,1.816h-1.705v7.006L404.806,164.36z M410.106,153.722l1.779-1.779v24.91h-3.633l1.816-1.816v-21.314H410.106z"/>
</g>
<g>
	<path d="M437.055,180.337h-9.86l-3.225-3.225v-25.837h9.86l3.225,3.225v12.492h-0.778l0.778,0.779V180.337z"/>
	<path d="M442.355,179.559v0.778h-4.56l-3.225-3.225v-25.837h9.86l3.225,3.225v25.836h-4.56L442.355,179.559z"/>
	<path d="M463.67,180.337h-15.198l-3.225-3.225v-25.837h4.56l0.778,0.778v-0.778h9.859l3.226,3.225v9.86h-0.778l0.778,0.779v9.86
		h-0.778l0.778,0.778V180.337L463.67,180.337z"/>
	<path d="M474.309,180.337h-9.86l-3.225-3.225v-25.837h4.559l0.779,0.778v-0.778h4.559l3.226,3.225v25.836H474.309z"/>
	<path d="M484.947,179.559v0.778h-9.897l-3.225-3.225v-25.837h4.559l0.778,0.778v-0.778h9.86l3.226,3.225v25.836h-4.56
		L484.947,179.559z"/>
</g>
<g>
	<path d="M276.92,477.476h0.704v3.67h2.002v0.594h-2.706V477.476z"/>
	<path d="M285.779,477.476h0.63l1.594,4.264h-0.741l-0.408-1.187h-1.743l-0.482,1.187h-0.667L285.779,477.476z M285.297,479.997
		h1.334l-0.259-0.779l-0.297-0.927h-0.037l-0.408,0.964L285.297,479.997z"/>
	<path d="M294.194,480.219v1.521h-0.705v-1.521l-1.594-2.743h0.741l0.63,1.112l0.63,1.112h0.037l1.187-2.225h0.704L294.194,480.219z
		"/>
	<path d="M300.569,477.476h2.706v0.594h-2.001v1.186h1.668v0.594h-1.668v1.297h2.076v0.593h-2.78V477.476L300.569,477.476z"/>
	<path d="M308.391,477.476h1.409c0.89,0,1.52,0.408,1.52,1.298c0,0.481-0.26,0.927-0.778,1.187l1.186,1.779h-0.853l-1-1.595
		c-0.111,0-0.223,0-0.371,0h-0.407v1.595h-0.705V477.476z M309.059,477.995v1.594h0.37c0.667,0,1.149-0.148,1.149-0.778
		c0-0.52-0.371-0.778-1.038-0.778h-0.481V477.995z"/>
	<path d="M316.546,477.476h0.704v4.264h-0.704V477.476z"/>
	<path d="M322.551,477.476h0.63l2.41,3.077l0,0v-3.077h0.704v4.264h-0.63l-2.41-3.151l0,0v3.151h-0.704V477.476z"/>
	<path d="M332.077,479.515c0,1.149,0.631,1.705,1.632,1.705c0.259,0,0.519-0.037,0.741-0.074v-1.52h0.704v1.816
		c-0.445,0.26-0.89,0.407-1.52,0.407c-1.446,0-2.262-0.815-2.262-2.149c0-1.224,0.853-2.225,2.336-2.225
		c0.815,0,1.223,0.186,1.445,0.297v0.704c-0.482-0.296-1.001-0.407-1.52-0.407C332.782,477.995,332.077,478.514,332.077,479.515z"/>
</g>
<line fill="none" stroke="#000000" stroke-width="0.5" stroke-miterlimit="10" x1="120.344" y1="479.7" x2="269.024" y2="479.7"/>
<line fill="none" stroke="#000000" stroke-width="0.5" stroke-miterlimit="10" x1="120.344" y1="787.552" x2="491.545" y2="787.552"/>
<line fill="none" stroke="#000000" stroke-width="0.5" stroke-miterlimit="10" x1="342.864" y1="479.7" x2="491.545" y2="479.7"/>
<g>
	<path d="M284.519,135.707c0.333,0.185,0.853,0.371,1.334,0.371s0.853-0.223,0.853-0.593c0-0.445-0.519-0.593-1.075-0.778
		c-0.556-0.186-1.186-0.482-1.186-1.187c0-0.741,0.667-1.223,1.446-1.223c0.556,0,1,0.111,1.297,0.26v0.667
		c-0.371-0.259-0.815-0.371-1.297-0.371c-0.371,0-0.779,0.186-0.779,0.519c0,0.371,0.297,0.519,0.816,0.741
		c0.63,0.26,1.445,0.482,1.445,1.334c0,0.778-0.741,1.223-1.594,1.223c-0.445,0-0.89-0.074-1.297-0.259v-0.704H284.519z"/>
	<path d="M291.97,132.333h3.892v0.593h-1.631v3.67h-0.705v-3.67h-1.594v-0.593H291.97z"/>
	<path d="M302.497,135.077v1.52h-0.704v-1.52l-1.594-2.743h0.742l0.63,1.112l0.63,1.112h0.037l1.187-2.224h0.704L302.497,135.077z"
		/>
	<path d="M308.873,132.333h0.704v3.67h2.002v0.593h-2.706V132.333z"/>
	<path d="M316.435,132.333h2.706v0.593h-2.002v1.186h1.668v0.593h-1.668v1.297h2.076v0.593h-2.78V132.333z"/>
	<path d="M324.033,135.707c0.334,0.185,0.854,0.371,1.335,0.371s0.853-0.223,0.853-0.593c0-0.445-0.519-0.593-1.075-0.778
		c-0.556-0.186-1.186-0.482-1.186-1.187c0-0.741,0.667-1.223,1.445-1.223c0.556,0,1.001,0.111,1.297,0.26v0.667
		c-0.37-0.259-0.815-0.371-1.297-0.371c-0.371,0-0.778,0.186-0.778,0.519c0,0.371,0.296,0.519,0.815,0.741
		c0.63,0.26,1.445,0.482,1.445,1.334c0,0.778-0.741,1.223-1.594,1.223c-0.444,0-0.89-0.074-1.297-0.259v-0.704H324.033z"/>
</g>
<line fill="none" stroke="#000000" stroke-width="0.5" stroke-miterlimit="10" x1="120.344" y1="134.558" x2="272.731" y2="134.558"/>
<line fill="none" stroke="#000000" stroke-width="0.5" stroke-miterlimit="10" x1="339.157" y1="134.558" x2="491.545" y2="134.558"/>
<g>
	<path fill="#9B9B9B" d="M450.881,67.167v14.494h-2.038l-2.484-2.001l-2.075,2.001h-4.56l2.298-2.298h1.372l2.892-1.149l2.595,0.927
		l-0.26-9.749L450.881,67.167z M442.021,52.859h6.636l-2.298,2.298h-2.076v22.019l-2.225,2.224V52.859H442.021z M448.657,52.859
		l2.224-2.224v14.419h-4.522l2.299-2.298V52.859z"/>
	<path fill="#9B9B9B" d="M461.928,69.28l-0.853-2.298l-1.409,1.408h-2.112v13.271h-4.522l2.298-2.298V66.093h3.781l1.965-0.853
		l0.927-2.224V52.859l2.224-2.224v13.271l-2.038,2.224l2.038,2.298v13.271h-4.522l2.299-2.298V69.28H461.928z M459.629,55.158
		h-2.112v8.748l-2.225,2.224V52.859h6.636L459.629,55.158z"/>
	<path fill="#9B9B9B" d="M475.198,72.765l2.224-2.224v11.157h-11.157l2.298-2.298h6.636V72.765L475.198,72.765z M468.562,52.859
		h6.636l-2.299,2.298h-2.112v8.748l-2.225,2.224V52.859z M468.562,66.13h6.636l2.224-2.224v4.522h-6.635v8.749l-2.225,2.224V66.13z
		 M475.198,52.859l2.224-2.224v11.158h-4.522l2.299-2.298V52.859z"/>
	<path fill="#9B9B9B" d="M488.469,79.4V52.859l2.224-2.224v31.063h-11.157l2.298-2.298H488.469z M486.17,68.428h-6.635l2.298-2.298
		h6.636L486.17,68.428z M481.833,52.859l2.225-2.224v13.271l-2.225,2.224V52.859z M481.833,72.765l2.225-2.224v6.635l-2.225,2.224
		V72.765z"/>
</g>
<g>
	<path fill="#9B9B9B" d="M127.98,104.087h-2.113v13.271h-4.485l2.298-2.298v-13.27h6.635L127.98,104.087z M123.643,101.827V88.556
		h6.635l-2.298,2.298h-2.113v8.748L123.643,101.827z M130.278,88.556l2.224-2.224v31.063h-4.522l2.298-2.298V88.556z"/>
	<path fill="#9B9B9B" d="M143.548,104.977l-0.853-2.298l-1.409,1.408h-2.113v13.271h-4.559l2.298-2.298v-13.27h3.781l1.964-0.853
		l0.927-2.224V88.556l2.224-2.224v13.271l-2.039,2.224l2.039,2.298v13.271h-4.56l2.298-2.298V104.977z M141.25,90.817h-2.113v8.748
		l-2.224,2.224V88.519h6.635L141.25,90.817z"/>
	<path fill="#9B9B9B" d="M156.819,108.462l2.224-2.225v11.158h-11.158l2.298-2.298h6.635V108.462z M150.184,88.556h6.635
		l-2.298,2.298h-2.113v8.748l-2.224,2.224V88.556z M150.184,101.827h6.635l2.224-2.224v4.522h-6.635v8.749l-2.224,2.224V101.827z
		 M156.819,88.556l2.224-2.224v11.157h-4.522l2.298-2.298V88.556z"/>
	<path fill="#9B9B9B" d="M167.791,104.087h-2.113v13.271h-4.522l2.298-2.298v-13.27h6.635L167.791,104.087z M163.454,101.827V88.556
		h6.635l-2.298,2.298h-2.113v8.748L163.454,101.827z M170.089,88.556l2.224-2.224v31.063h-4.522l2.298-2.298V88.556z"/>
</g>
</svg>
