<svg id="Layer_1" data-name="Layer 1" xmlns="http://www.w3.org/2000/svg" viewBox="0 0 386.09 383.58"><title>DelvardGradient_Styles</title><path d="M1817.63,390.33v57.15h33.93v1.35h-35.28v-58.5h1.35Z" transform="translate(-1809.8 -390.33)"/><path d="M1900.7,390.33v6.3h-32.31v14.85h31.41v6h-31.41v24.93h34.11v6.39h-41.4v-58.5h39.6Z" transform="translate(-1809.8 -390.33)"/><path d="M1960.37,390.33v13.41h-30.78v7.65h29.88v13.14h-29.88v24.3H1913.3v-58.5h47.07Z" transform="translate(-1809.8 -390.33)"/><path d="M2017.79,390.33v21.33H2004v37.17h-25.29V411.66h-14.67V390.33h53.73Z" transform="translate(-1809.8 -390.33)"/><path d="M1809.8,556.83v-58.5h30.06c23.49,0,30.42,7.38,30.42,21.78,0,7.29-3.15,12.06-8,15.21l8.46,21.51h-27.18l-4.77-14.67-3.69.63v14H1809.8Zm27.81-28.89c4-.45,6.21-2.07,6.21-5.49,0-3.87-1.35-5.4-5-5.4h-3.69V528.3Z" transform="translate(-1809.8 -390.33)"/><path d="M1895.57,498.33v58.5h-19.35v-58.5h19.35Z" transform="translate(-1809.8 -390.33)"/><path d="M1936,557.91c-20.7,0-32.4-9.27-32.4-29.34,0-21.87,15.21-31.32,35.64-31.32a91.87,91.87,0,0,1,20.25,2.25l-0.9,11.25a98.74,98.74,0,0,0-19.62-1.89c-11.79,0-21.51,4.05-21.51,19.35,0,14.58,9.72,18.9,20.07,18.9a63.62,63.62,0,0,0,9.36-.81V529.83h-15.66V518.4h28.17v37A103.58,103.58,0,0,1,1936,557.91Z" transform="translate(-1809.8 -390.33)"/><path d="M2021.57,498.33v58.5h-7.38V525.15H1979.9v31.68h-7.29v-58.5h7.29v20.43h34.29V498.33h7.38Z" transform="translate(-1809.8 -390.33)"/><path d="M2077.55,498.33v1.35H2054.6v57.15h-1.35V499.68h-21.87v-1.35h46.17Z" transform="translate(-1809.8 -390.33)"/><path d="M1842,605.25c16.29,0,29.88,11.79,29.88,30.33,0,18.72-13.32,30.33-29.88,30.33s-29.88-11.79-29.88-30.51C1812.14,617.76,1825.37,605.25,1842,605.25Zm0,59.31c16.47,0,28.53-11.43,28.53-29,0-17.37-12.42-29-28.53-29-15.57,0-28.53,11.16-28.53,28.8C1813.49,653.31,1826,664.56,1842,664.56Z" transform="translate(-1809.8 -390.33)"/><path d="M1925,606.33h10.26V642.6c0,13.23-5.85,23.31-25.65,23.31-19,0-25.74-8.73-25.74-23V606.33h10.35v34.11c0,11.61,5.58,16.11,15.48,16.11,9.45,0,15.3-4.14,15.3-16.74V606.33Z" transform="translate(-1809.8 -390.33)"/><path d="M1994.93,606.33v16.56h-16v41.94h-19.35V622.89h-16.47V606.33h51.84Z" transform="translate(-1809.8 -390.33)"/><path d="M2027,647.46c0-5.22-29.61,2.79-29.61-20.88,0-17.37,15.93-21.33,33.12-21.33a154.48,154.48,0,0,1,19.62,1.62l-1.8,17.73a70.17,70.17,0,0,0-16.56-2.43c-3.24,0-8.46,0-8.46,1.53,0,4.32,29.52-2.25,29.52,21.87,0,11.61-7.92,20.34-29.52,20.34-7.47,0-18.36-.63-24.75-2l1.53-17a77,77,0,0,0,16.83,2.07C2020.94,649,2027,648.9,2027,647.46Z" transform="translate(-1809.8 -390.33)"/><path d="M2077.82,606.33v58.5h-19.35v-58.5h19.35Z" transform="translate(-1809.8 -390.33)"/><path d="M2090.06,664.83v-58.5h25.83c17.19,0,29.07,9.81,29.07,29.07,0,19.53-12.06,29.43-29.07,29.43h-25.83Zm23.94-8.55c11.88,0,20.25-6,20.25-20.7,0-14.22-8-20.79-20.25-20.79h-13.59v41.49H2114Z" transform="translate(-1809.8 -390.33)"/><path d="M2194.1,606.33v1.35h-33.39v20.88h32.49v1.35h-32.49v33.57h35.19v1.35h-36.54v-58.5h34.74Z" transform="translate(-1809.8 -390.33)"/><path d="M1835.09,714.33v58.5H1809.8v-58.5h25.29Z" transform="translate(-1809.8 -390.33)"/><path d="M1857.41,772.83h-12.78v-58.5h20.07l22.23,45.81h0.36V714.33h12.78v58.5h-20.7l-21.6-46.26h-0.36v46.26Z" transform="translate(-1809.8 -390.33)"/><path d="M1945.07,758c0-17.19-33.39-9.81-33.39-29.52,0-10.35,8.91-15.21,19.62-15.21a43.48,43.48,0,0,1,15.21,2.43l-0.27,4a42,42,0,0,0-14.85-2.61c-9,0-15.12,3.51-15.12,11.25,0,15.84,33.3,8.55,33.3,29.52,0,10.17-8.46,16-20.43,16a61.69,61.69,0,0,1-17.19-2.43l0.18-4a51.86,51.86,0,0,0,16.2,2.52C1935.62,769.95,1945.07,766.89,1945.07,758Z" transform="translate(-1809.8 -390.33)"/><path d="M1967.39,714.33v58.5H1963v-58.5h4.41Z" transform="translate(-1809.8 -390.33)"/><path d="M1983.23,772.83v-58.5h27.27c17.55,0,29.25,9.72,29.25,29,0,19.53-12,29.52-29.25,29.52h-27.27Zm24.57-11c10.89,0,18.09-4.86,18.09-18.27,0-13-6.75-18.36-18.09-18.36h-11.25v36.63h11.25Z" transform="translate(-1809.8 -390.33)"/><path d="M2100.85,714.33v19.62H2071.7v2.43H2100V748.8H2071.7v4.41h31v19.62h-56.25v-58.5h54.45Z" transform="translate(-1809.8 -390.33)"/></svg>