<?xml version="1.0" encoding="utf-8"?>
<!-- Generator: Adobe Illustrator 16.0.4, SVG Export Plug-In . SVG Version: 6.00 Build 0)  -->
<!DOCTYPE svg PUBLIC "-//W3C//DTD SVG 1.1//EN" "http://www.w3.org/Graphics/SVG/1.1/DTD/svg11.dtd">
<svg version="1.1" id="Layer_1" xmlns="http://www.w3.org/2000/svg" xmlns:xlink="http://www.w3.org/1999/xlink" x="0px" y="0px"
	 width="280px" height="36px" viewBox="0 0 280 36" enable-background="new 0 0 280 36" xml:space="preserve">
<g>
	<path fill="#FFFFFF" d="M272.984,19.986v-2.811h-2.556V14.62h-2.812v2.556h-2.555v2.811h2.555v2.556h2.812v-2.556H272.984
		L272.984,19.986z M257.651,14.876v-2.811h-2.812v2.811H257.651L257.651,14.876z M257.651,24.842v-2.555h-2.812v2.555H257.651
		L257.651,24.842z M247.429,14.876v-2.811h-2.811v2.811H247.429L247.429,14.876z M255.095,19.986v-2.811h-2.555V14.62h-2.812v2.556
		h-2.556v2.811h2.556v2.556h2.812v-2.556H255.095L255.095,19.986z M247.429,24.842v-2.555h-2.811v2.555H247.429L247.429,24.842z
		 M237.207,12.32V9.51h-2.811v2.556h-2.555v2.811h2.811V12.32H237.207L237.207,12.32z M237.207,27.397v-2.556h-2.555v-2.555h-2.811
		v2.555h2.555v2.556H237.207L237.207,27.397z M224.429,14.876v-2.811h-2.555V9.51h-2.811v2.811h2.555v2.556H224.429L224.429,14.876z
		 M232.096,19.986v-2.811h-2.556V14.62h-2.811v2.556h-2.556v2.811h2.556v2.556h2.811v-2.556H232.096L232.096,19.986z
		 M224.429,24.842v-2.555h-2.811v2.555h-2.555v2.556h2.811v-2.556H224.429L224.429,24.842z M214.208,24.842v-2.555h-7.667v-2.301
		h7.667V14.62h-2.557v-2.555h-5.365v2.555h-2.557v7.922h2.557v2.3H214.208L214.208,24.842z M198.875,24.842V12.065h-2.811v10.222
		h-4.855V12.065h-2.811v10.477h2.555v2.3H198.875L198.875,24.842z M183.542,29.953V12.065h-7.922v2.555h-2.556v7.922h2.556v2.3
		h5.111v5.111H183.542L183.542,29.953z M168.209,24.842v-2.555h-7.667v-2.301h7.667V14.62h-2.556v-2.555h-5.366v2.555h-2.556v7.922
		h2.556v2.3H168.209L168.209,24.842z M152.876,24.842V14.62h-2.556v-2.555h-5.111V6.954h-2.811v17.888h2.811v-9.966h4.855v9.966
		H152.876L152.876,24.842z M137.543,24.842v-2.555h-5.111v-7.411h5.111v-2.811h-5.111V9.51h-2.811v2.556h-2.556v2.811h2.556v7.666
		h2.556v2.3H137.543L137.543,24.842z M122.21,22.542V14.62h-2.556v-2.555h-5.366v2.555h-2.556v7.922h2.556v2.3h5.366v-2.3H122.21
		L122.21,22.542z M106.877,22.542V14.62h-2.555v-2.555H96.4v17.888h2.812v-5.111h5.111v-2.3H106.877L106.877,22.542z M91.545,22.542
		V12.065h-2.812v10.222h-4.855V12.065h-2.811v10.477h2.555v4.601h-2.555v2.811h2.811v-2.556h2.556v-2.556h2.556v-2.3H91.545
		L91.545,22.542z M76.212,24.842v-2.555h-5.111v-7.411h5.111v-2.811h-5.111V9.51h-2.811v2.556h-2.556v2.811h2.556v7.666h2.555v2.3
		H76.212L76.212,24.842z M60.879,12.32V9.51h-2.812v2.556h-2.555v2.811h2.811V12.32H60.879L60.879,12.32z M60.879,27.397v-2.556
		h-2.556v-2.555h-2.811v2.555h2.555v2.556H60.879L60.879,27.397z M48.102,14.876v-2.811h-2.556V9.51h-2.811v2.811h2.555v2.556
		H48.102L48.102,14.876z M55.768,19.986v-2.811h-2.556V14.62h-2.811v2.556h-2.556v2.811h2.556v2.556h2.811v-2.556H55.768
		L55.768,19.986z M48.102,24.842v-2.555h-2.812v2.555h-2.555v2.556h2.811v-2.556H48.102L48.102,24.842z M35.325,14.876v-2.811
		h-2.812v2.811H35.325L35.325,14.876z M35.325,24.842v-2.555h-2.812v2.555H35.325L35.325,24.842z M25.103,14.876v-2.811h-2.812
		v2.811H25.103L25.103,14.876z M32.769,19.986v-2.811h-2.556V14.62h-2.811v2.556h-2.556v2.811h2.556v2.556h2.811v-2.556H32.769
		L32.769,19.986z M25.103,24.842v-2.555h-2.812v2.555H25.103L25.103,24.842z M14.88,19.986v-2.811h-2.555V14.62H9.514v2.556H6.958
		v2.811h2.556v2.556h2.812v-2.556H14.88L14.88,19.986z M211.397,17.176h-4.855v-2.3h4.855V17.176L211.397,17.176z M180.732,22.287
		h-4.855v-7.411h4.855V22.287L180.732,22.287z M165.398,17.176h-4.855v-2.3h4.855V17.176L165.398,17.176z M119.4,22.287h-4.855
		v-7.411h4.855V22.287L119.4,22.287z M104.067,22.287h-4.855v-7.411h4.855V22.287L104.067,22.287z"/>
</g>
</svg>
