<svg viewBox="0 0 316.25 387.25" xmlns="http://www.w3.org/2000/svg"><path d="m110.6055 189.2515v-7.8179h1.6079v8.34h-1.6079z" fill="#45954b"/><path d="m114.3135 189.2515v-7.8179h2.4l3.72 7.416h-.4077v-7.416h1.584v8.34h-2.376l-3.9-7.7758.564-.0723v7.8481h-1.584z" fill="#45954b"/><path d="m125.5449 189.2515v-6.4742h-2.6758v-1.3437h6.96v1.3437h-2.6763v6.9961h-1.6079z" fill="#45954b"/><path d="m136.8491 189.7734h-5.832v-8.34h5.7119v1.3437h-4.104v2.148h3.5762v1.3449h-3.5762v2.16h4.2241z" fill="#45954b"/><path d="m138.2773 189.2515v-7.8179h3a4.1878 4.1878 0 0 1 1.626.2939 2.4955 2.4955 0 0 1 1.086.8218 2.0282 2.0282 0 0 1 .3837 1.2241 2.1019 2.1019 0 0 1 -.3779 1.2359 2.4024 2.4024 0 0 1 -1.0981.834 4.4523 4.4523 0 0 1 -1.6919.2939v-.0718l.9721-.3481 3.108 4.0561h-1.9683l-2.6279-3.5761h-.8277v3.5761h-1.584zm2.9039-4.3379a2.1294 2.1294 0 0 0 .8159-.1441 1.2089 1.2089 0 0 0 .5341-.4018.99.99 0 0 0 .1861-.5943.8874.8874 0 0 0 -.4082-.78 1.9922 1.9922 0 0 0 -1.1279-.2764h-1.32v2.1963z" fill="#45954b"/><path d="m148.957 186.7256h-1.0317v3.0478h-1.6079v-8.34h2.64a4.3436 4.3436 0 0 1 1.6743.3057 2.6414 2.6414 0 0 1 1.1641.9 2.6173 2.6173 0 0 1 0 2.8619 2.6573 2.6573 0 0 1 -1.17.9121 4.2744 4.2744 0 0 1 -1.6688.3125zm-1.0317-4.0083v2.7241h.96a2.3688 2.3688 0 0 0 .9057-.1558 1.212 1.212 0 0 0 .5762-.4624 1.3519 1.3519 0 0 0 .1982-.75 1.2087 1.2087 0 0 0 -.438-1.0136 1.9793 1.9793 0 0 0 -1.2421-.3423z" fill="#45954b"/><path d="m157.249 189.9414a4.3891 4.3891 0 0 1 -2.1782-.54 3.8051 3.8051 0 0 1 -1.5059-1.524 4.9951 4.9951 0 0 1 0-4.518 3.8891 3.8891 0 0 1 1.5-1.542 4.5984 4.5984 0 0 1 4.3682 0 3.8944 3.8944 0 0 1 1.5 1.542 4.9984 4.9984 0 0 1 0 4.518 3.8086 3.8086 0 0 1 -1.5063 1.524 4.3891 4.3891 0 0 1 -2.1778.54zm0-1.38a2.4407 2.4407 0 0 0 1.35-.3662 2.3255 2.3255 0 0 0 .87-1.0317 3.7212 3.7212 0 0 0 .3-1.542 3.7649 3.7649 0 0 0 -.3-1.5484 2.4165 2.4165 0 0 0 -4.44 0 3.7633 3.7633 0 0 0 -.3 1.5484 3.72 3.72 0 0 0 .3 1.542 2.3247 2.3247 0 0 0 .87 1.0317 2.4415 2.4415 0 0 0 1.35.3663z" fill="#45954b"/><path d="m163.0688 189.2515v-7.8179h1.608v6.9956h3.8281v1.3442h-5.4361z" fill="#45954b"/><path d="m169.105 189.3833c.0478-.124.0962-.25.144-.3779q.0843-.2162.1739-.4619t.1982-.5342l2.46-6.5757h1.8837l2.5323 6.564q.156.4078.2758.72c.08.2085.1519.394.2164.5581s.1274.33.1919.498h-1.7281c-.0561-.1757-.1162-.35-.18-.5219s-.1318-.36-.2041-.564-.1518-.43-.24-.6782l-2.1479-5.8916h.6479l-2.1118 5.8916q-.1326.36-.24.666t-.2042.57q-.0958.2637-.18.5278h-1.6441c.056-.1357.1082-.2661.1561-.3901zm1.7641-1.71v-1.3433h3.9478v1.3437z" fill="#45954b"/><path d="m179.5688 189.2515v-6.4742h-2.6757v-1.3437h6.96v1.3437h-2.6762v6.9961h-1.608z" fill="#45954b"/><path d="m185.1133 189.2515v-7.8179h1.6079v8.34h-1.6079z" fill="#45954b"/><path d="m192.5288 189.9414a4.3891 4.3891 0 0 1 -2.1782-.54 3.8044 3.8044 0 0 1 -1.5059-1.524 4.9951 4.9951 0 0 1 0-4.518 3.8891 3.8891 0 0 1 1.5-1.542 4.5984 4.5984 0 0 1 4.3682 0 3.8957 3.8957 0 0 1 1.5 1.542 4.9992 4.9992 0 0 1 0 4.518 3.8088 3.8088 0 0 1 -1.5064 1.524 4.3885 4.3885 0 0 1 -2.1777.54zm0-1.38a2.441 2.441 0 0 0 1.35-.3662 2.3247 2.3247 0 0 0 .87-1.0317 3.72 3.72 0 0 0 .3-1.542 3.7633 3.7633 0 0 0 -.3-1.5484 2.4164 2.4164 0 0 0 -4.44 0 3.7633 3.7633 0 0 0 -.3 1.5484 3.72 3.72 0 0 0 .3 1.542 2.3247 2.3247 0 0 0 .87 1.0317 2.4415 2.4415 0 0 0 1.35.3663z" fill="#45954b"/><path d="m198.3491 189.2515v-7.8179h2.4l3.72 7.416h-.4078v-7.416h1.584v8.34h-2.376l-3.9-7.7758.564-.0723v7.8481h-1.584z" fill="#45954b"/><circle cx="72.8868" cy="102.5783" fill="#45954b" r="64.5718"/><circle cx="243.3632" cy="102.5783" fill="#45954b" r="64.5718"/><g fill="#fff"><path d="m35.2231 145.3545q.006-.2578 0-.5581c-.0043-.2-.0058-.42-.0058-.66v-4.86c0-.24.0015-.4619.0058-.666s.004-.39 0-.5582-.0019-.34.0059-.5156h2.688a3.787 3.787 0 0 1 1.5059.2759 2.2759 2.2759 0 0 1 .99.7681 2.0166 2.0166 0 0 1 -.0059 2.2739 2.2657 2.2657 0 0 1 -.9961.7681 3.84 3.84 0 0 1 -1.4941.27l.0122-.06.5039-.0478 3.228 4.0918h-1.2239l-3.0478-3.9366h-1.212v2.8618q0 .3062-.0063.5582c-.0039.1679-.002.34.0063.5161h-.9482c-.0078-.1754-.0102-.3497-.0059-.5216zm2.5381-4.2539a3.28 3.28 0 0 0 1.08-.1563 1.4514 1.4514 0 0 0 .69-.4736 1.1928 1.1928 0 0 0 .2457-.75 1.131 1.131 0 0 0 -.5337-1.0083 2.7 2.7 0 0 0 -1.482-.3481h-1.584v2.7363z"/><path d="m45.2368 146.0083a3.0583 3.0583 0 0 1 -1.518-.3721 2.6281 2.6281 0 0 1 -1.044-1.0678 3.3171 3.3171 0 0 1 -.3779-1.608 3.1841 3.1841 0 0 1 .3418-1.4877 2.6751 2.6751 0 0 1 .9424-1.0445 2.4614 2.4614 0 0 1 1.3559-.3838 2.3449 2.3449 0 0 1 1.2.3 2.0325 2.0325 0 0 1 .8042.8824 3.0958 3.0958 0 0 1 .2881 1.3857v.48h-4.2v-.7437h3.6841l-.4321.42a2.5543 2.5543 0 0 0 -.0957-1.08 1.2937 1.2937 0 0 0 -.4981-.6719 1.4061 1.4061 0 0 0 -.7983-.228 1.5328 1.5328 0 0 0 -.9058.2578 1.613 1.613 0 0 0 -.5581.72 2.7844 2.7844 0 0 0 -.1919 1.0737 2.8129 2.8129 0 0 0 .2642 1.272 1.9468 1.9468 0 0 0 .7378.8159 2.1381 2.1381 0 0 0 1.1338.2881 2.948 2.948 0 0 0 .8642-.1318 3.9979 3.9979 0 0 0 .876-.396v.7558a2.729 2.729 0 0 1 -.8521.42 3.528 3.528 0 0 1 -1.0205.1439z"/><path d="m50.8525 148.4326a4.0119 4.0119 0 0 1 -1.4038-.2163 1.91 1.91 0 0 1 -.8579-.5757 1.273 1.273 0 0 1 -.2822-.8042 1.1573 1.1573 0 0 1 .2583-.72 1.7565 1.7565 0 0 1 .6777-.5283v-.24l.84.4317a1.2756 1.2756 0 0 0 -.6485.3183.77.77 0 0 0 -.2636.5821.8057.8057 0 0 0 .45.7436 2.5594 2.5594 0 0 0 1.2421.252 3.9515 3.9515 0 0 0 1.0679-.1377 2.0472 2.0472 0 0 0 .792-.396.8015.8015 0 0 0 .3-.63.57.57 0 0 0 -.2822-.5283 1.6 1.6 0 0 0 -.81-.168h-1.9675a1.6275 1.6275 0 0 1 -.726-.1558 1.2341 1.2341 0 0 1 -.4922-.414.98.98 0 0 1 -.1738-.5581 1.128 1.128 0 0 1 .2519-.708 1.7412 1.7412 0 0 1 .6841-.5161v-.2038l.6357.48a1.4423 1.4423 0 0 0 -.5517.2945.5858.5858 0 0 0 -.2041.45.45.45 0 0 0 .18.3779.9261.9261 0 0 0 .564.1382h1.7759a2.7518 2.7518 0 0 1 1.5059.36 1.1671 1.1671 0 0 1 .5581 1.0439 1.5674 1.5674 0 0 1 -.4141 1.0923 2.6122 2.6122 0 0 1 -1.1279.6958 4.9272 4.9272 0 0 1 -1.5781.24zm.1324-4.4282a2.502 2.502 0 0 1 -1.146-.2578 1.92 1.92 0 0 1 -.7862-.7022 1.8687 1.8687 0 0 1 -.2758-1.0078 1.9221 1.9221 0 0 1 .2817-1.0322 1.896 1.896 0 0 1 .792-.708 2.5535 2.5535 0 0 1 1.146-.252 2.5964 2.5964 0 0 1 .7324.1021 2.1335 2.1335 0 0 1 .6235.2939l.0484.18a1.4263 1.4263 0 0 1 .5639.5879 1.7278 1.7278 0 0 1 .1919.8042 1.8724 1.8724 0 0 1 -.2817 1.0137 2.02 2.02 0 0 1 -.7744.7138 2.3186 2.3186 0 0 1 -1.1157.2644zm0-.7319a1.4071 1.4071 0 0 0 .66-.1558 1.15 1.15 0 0 0 .4683-.4385 1.253 1.253 0 0 0 .168-.6538 1.1806 1.1806 0 0 0 -.3662-.9057 1.3078 1.3078 0 0 0 -.93-.3423 1.4259 1.4259 0 0 0 -.6783.1562 1.16 1.16 0 0 0 -.4619.438 1.2747 1.2747 0 0 0 -.1679.666 1.173 1.173 0 0 0 .36.9 1.3341 1.3341 0 0 0 .948.3359zm1.3559-2.3282-.708-.768h2.4121v.768z"/><path d="m57.0332 146.0083a1.9009 1.9009 0 0 1 -.9663-.2456 1.7939 1.7939 0 0 1 -.6841-.7261 2.43 2.43 0 0 1 -.2578-1.164v-2.376q0-.2637.0059-.5039c.0039-.16.0063-.3042.0063-.4322v-.3842h.9238v3.66a1.4757 1.4757 0 0 0 .312 1.0323 1.1224 1.1224 0 0 0 .8638.3359 1.5135 1.5135 0 0 0 .78-.2041 1.4235 1.4235 0 0 0 .5517-.6118 2.1481 2.1481 0 0 0 .2041-.9722v-3.24h.9239v4.3442q0 .2762.0063.5039t.0059.438v.4141h-.9361v-.8638a1.9783 1.9783 0 0 1 -.7319.7436 2.0062 2.0062 0 0 1 -1.0075.2519z"/><path d="m61.7007 145.7324v-8.4124l.9243.0122v8.544h-.9243z"/><path d="m65.9248 146.0083a1.7524 1.7524 0 0 1 -1.188-.4141 1.3762 1.3762 0 0 1 -.48-1.0976 1.2337 1.2337 0 0 1 .2637-.8042 1.8842 1.8842 0 0 1 .708-.522 7.0764 7.0764 0 0 1 1.0923-.3657l1.5-.3721.0117.6358-1.3559.372a3.9283 3.9283 0 0 0 -.6719.2339 1.188 1.188 0 0 0 -.42.3184.7.7 0 0 0 -.1563.4555.726.726 0 0 0 .252.6 1.0151 1.0151 0 0 0 .66.2041 1.5417 1.5417 0 0 0 .7622-.2041 1.61 1.61 0 0 0 .606-.6176 1.972 1.972 0 0 0 .24-1.0025v-1.2475a1.2524 1.2524 0 0 0 -.39-1.02 1.6111 1.6111 0 0 0 -1.062-.3242 3.1837 3.1837 0 0 0 -.9243.1382 3.8769 3.8769 0 0 0 -.876.39l-.0117-.7676a3.3147 3.3147 0 0 1 .894-.4024 3.7574 3.7574 0 0 1 1.062-.15 2.8014 2.8014 0 0 1 1.14.2222 1.6889 1.6889 0 0 1 .792.7139 2.417 2.417 0 0 1 .288 1.2358v3.66h-.9121v-.9239a2.041 2.041 0 0 1 -.8037.8037 2.1643 2.1643 0 0 1 -1.02.252z"/><path d="m70.46 141.4966v-.93q0-.1977-.0117-.39h.9239v1.248h.0122a2.29 2.29 0 0 1 .42-.75 1.8553 1.8553 0 0 1 .6-.4678 1.6893 1.6893 0 0 1 .7436-.1621 1.6553 1.6553 0 0 1 .4444.06v.876a1.4816 1.4816 0 0 0 -.42-.06 1.6573 1.6573 0 0 0 -.8877.252 1.7479 1.7479 0 0 0 -.6543.7861 3.3477 3.3477 0 0 0 -.2578 1.35v1.7939q0 .21.0122.3658a1.2208 1.2208 0 0 0 -.0064.21 1.1115 1.1115 0 0 1 -.0058.1983h-.9239c0-.0962.0015-.1983.0059-.3062s.0058-.24.0058-.396v-3.6777z"/><path d="m81.6807 145.8765-3.3482-7.8243.24-.0356v6.12q0 .36.0058.666t0 .5582c-.0039.1679-.0019.34.0059.5161h-.9717v-8.34h1.5l3.2519 7.6079-.2758.0117 3.2519-7.62h1.44v8.34h-.9722c.0078-.1758.01-.35.0063-.522s-.0063-.3579-.0063-.5581v-6.7681l.2881-.06-3.3721 7.9082z"/><path d="m90.0327 146.0083a1.7526 1.7526 0 0 1 -1.188-.4141 1.3762 1.3762 0 0 1 -.48-1.0976 1.2337 1.2337 0 0 1 .2637-.8042 1.8842 1.8842 0 0 1 .708-.522 7.0764 7.0764 0 0 1 1.0923-.3657l1.5-.3721.0117.6358-1.3559.372a3.9283 3.9283 0 0 0 -.6719.2339 1.188 1.188 0 0 0 -.42.3184.7.7 0 0 0 -.1563.4555.726.726 0 0 0 .252.6 1.0151 1.0151 0 0 0 .66.2041 1.5417 1.5417 0 0 0 .7622-.2041 1.61 1.61 0 0 0 .606-.6176 1.972 1.972 0 0 0 .24-1.0025v-1.2475a1.2524 1.2524 0 0 0 -.39-1.02 1.6111 1.6111 0 0 0 -1.062-.3242 3.1837 3.1837 0 0 0 -.9243.1382 3.8769 3.8769 0 0 0 -.876.39l-.0117-.7676a3.3147 3.3147 0 0 1 .894-.4024 3.7574 3.7574 0 0 1 1.062-.15 2.801 2.801 0 0 1 1.14.2222 1.6889 1.6889 0 0 1 .792.7139 2.417 2.417 0 0 1 .2881 1.2358v3.66h-.9122v-.9239a2.04 2.04 0 0 1 -.8037.8037 2.1643 2.1643 0 0 1 -1.02.252z"/><path d="m95.8643 146.0083a2.6882 2.6882 0 0 1 -.8638-.15 2.7571 2.7571 0 0 1 -.792-.4141v-.792a4.0759 4.0759 0 0 0 .8281.4263 2.2606 2.2606 0 0 0 .7681.1377 1.7447 1.7447 0 0 0 .918-.2217.7191.7191 0 0 0 .3657-.6543.571.571 0 0 0 -.1978-.45 2.4464 2.4464 0 0 0 -.69-.3662l-.6724-.24a2.3912 2.3912 0 0 1 -1.0317-.666 1.4444 1.4444 0 0 1 -.312-.93 1.3677 1.3677 0 0 1 .27-.834 1.8918 1.8918 0 0 1 .75-.5879 2.5141 2.5141 0 0 1 1.0679-.2222 3.0094 3.0094 0 0 1 .7861.1021 2.4119 2.4119 0 0 1 .6777.2939v.7681a3.0105 3.0105 0 0 0 -.6777-.2759 2.7241 2.7241 0 0 0 -.7144-.0962 1.6533 1.6533 0 0 0 -.8935.2222.6832.6832 0 0 0 -.354.606.6268.6268 0 0 0 .1977.4677 2.2764 2.2764 0 0 0 .6783.396l.72.2764a3.1262 3.1262 0 0 1 .7622.39 1.2627 1.2627 0 0 1 .4077.4864 1.4866 1.4866 0 0 1 .126.624 1.5106 1.5106 0 0 1 -.27.8818 1.77 1.77 0 0 1 -.75.606 2.665 2.665 0 0 1 -1.1042.2159z"/><path d="m101.5762 146.0083a1.8405 1.8405 0 0 1 -.8457-.186 1.3041 1.3041 0 0 1 -.57-.57 1.9965 1.9965 0 0 1 -.2041-.9477v-3.3364h-1.128v-.732a2.2431 2.2431 0 0 0 .8042-.1079.6123.6123 0 0 0 .36-.3838 2.68 2.68 0 0 0 .084-.8642h.8159v1.2959h1.5723v.792h-1.5723v3.312a.9485.9485 0 0 0 .228.6963.8947.8947 0 0 0 .66.228 2.4823 2.4823 0 0 0 .3418-.0239 1.9693 1.9693 0 0 0 .354-.084l-.0117.7436a2.1956 2.1956 0 0 1 -.8884.1681z"/><path d="m106.1958 146.0083a3.0589 3.0589 0 0 1 -1.5181-.3721 2.6279 2.6279 0 0 1 -1.0439-1.0678 3.3159 3.3159 0 0 1 -.3779-1.608 3.1841 3.1841 0 0 1 .3418-1.4877 2.6749 2.6749 0 0 1 .9423-1.0445 2.4618 2.4618 0 0 1 1.356-.3838 2.3449 2.3449 0 0 1 1.2.3 2.0325 2.0325 0 0 1 .8042.8824 3.0958 3.0958 0 0 1 .2881 1.3857v.48h-4.2v-.7437h3.6841l-.4322.42a2.5511 2.5511 0 0 0 -.0957-1.08 1.293 1.293 0 0 0 -.498-.6719 1.4061 1.4061 0 0 0 -.7983-.228 1.5326 1.5326 0 0 0 -.9058.2578 1.613 1.613 0 0 0 -.5581.72 2.7844 2.7844 0 0 0 -.1919 1.0737 2.8129 2.8129 0 0 0 .2642 1.272 1.9466 1.9466 0 0 0 .7377.8159 2.1386 2.1386 0 0 0 1.1338.2881 2.9481 2.9481 0 0 0 .8643-.1318 3.9979 3.9979 0 0 0 .876-.396v.7558a2.73 2.73 0 0 1 -.8521.42 3.528 3.528 0 0 1 -1.0205.1439z"/><path d="m109.7241 141.4966v-.93q0-.1977-.0117-.39h.9238v1.248h.0122a2.2915 2.2915 0 0 1 .42-.75 1.8532 1.8532 0 0 1 .6-.4678 1.689 1.689 0 0 1 .7436-.1621 1.654 1.654 0 0 1 .4443.06v.876a1.4805 1.4805 0 0 0 -.42-.06 1.6578 1.6578 0 0 0 -.8877.252 1.7491 1.7491 0 0 0 -.6543.7861 3.3494 3.3494 0 0 0 -.2578 1.35v1.7939q0 .21.0122.3658a1.22 1.22 0 0 0 -.0063.21 1.1113 1.1113 0 0 1 -.0059.1983h-.9238c0-.0962.0015-.1983.0059-.3062s.0058-.24.0058-.396v-3.6777z"/><path d="m213.4316 145.3545q.0058-.2578 0-.5581c-.0048-.2-.0058-.42-.0058-.66v-4.86c0-.24.001-.4619.0058-.666s.0039-.39 0-.5582-.0019-.34.0059-.5156h2.6758a4.0708 4.0708 0 0 1 1.5664.2637 2.0032 2.0032 0 0 1 .9355.7319 1.9083 1.9083 0 0 1 .3057 1.0684 1.7858 1.7858 0 0 1 -.5938 1.374 2.6654 2.6654 0 0 1 -1.6015.6421l.0478-.0962a3.2677 3.2677 0 0 1 1.41.3237 2.2238 2.2238 0 0 1 .876.7564 1.7876 1.7876 0 0 1 .2939.9839 2.0618 2.0618 0 0 1 -.3418 1.164 2.335 2.335 0 0 1 -1.02.8218 3.8992 3.8992 0 0 1 -1.6142.3062h-2.94c-.0073-.1758-.0105-.3501-.0057-.522zm2.586-4.1821a2.9224 2.9224 0 0 0 1.0381-.1621 1.367 1.367 0 0 0 .6533-.4859 1.3811 1.3811 0 0 0 .2285-.8159 1.1491 1.1491 0 0 0 -.498-.9839 2.3758 2.3758 0 0 0 -1.41-.36h-1.62v2.8081zm-1.6084.84v3.0356h1.7041a3.6314 3.6314 0 0 0 1.1943-.1738 1.6688 1.6688 0 0 0 .7735-.5161 1.2829 1.2829 0 0 0 .2763-.834 1.2462 1.2462 0 0 0 -.6181-1.1279 3.2625 3.2625 0 0 0 -1.7217-.3838z"/><path d="m223.4326 146.0083a2.7854 2.7854 0 0 1 -1.4277-.3779 2.72 2.72 0 0 1 -1.0254-1.0679 3.1567 3.1567 0 0 1 -.3789-1.542 3.123 3.123 0 0 1 .3789-1.5361 2.7293 2.7293 0 0 1 1.0254-1.062 2.8871 2.8871 0 0 1 2.8564 0 2.7293 2.7293 0 0 1 1.0254 1.062 3.1224 3.1224 0 0 1 .3779 1.5361 3.1561 3.1561 0 0 1 -.3779 1.542 2.72 2.72 0 0 1 -1.0254 1.0679 2.7864 2.7864 0 0 1 -1.4287.3779zm0-.8159a1.7433 1.7433 0 0 0 1.626-1.0318 2.6236 2.6236 0 0 0 .2344-1.14 2.5941 2.5941 0 0 0 -.2344-1.1279 1.787 1.787 0 0 0 -3.252 0 2.6084 2.6084 0 0 0 -.2334 1.1279 2.638 2.638 0 0 0 .2334 1.14 1.746 1.746 0 0 0 1.626 1.0318z"/><path d="m227.8008 145.7324v-8.4124l.9248.0122v8.544h-.9248z"/><path d="m232.7812 146.0083a2.4623 2.4623 0 0 1 -2.2324-1.3857 3.4738 3.4738 0 0 1 -.3476-1.6021 3.41 3.41 0 0 1 .3476-1.584 2.47 2.47 0 0 1 2.2324-1.38 2.3062 2.3062 0 0 1 .8877.168 1.9434 1.9434 0 0 1 .6963.48 2.2907 2.2907 0 0 1 .4434.6958l-.1553.24v-4.2842h.9356v8.52h-.9356v-.9483a2.0612 2.0612 0 0 1 -.7978.8042 2.1809 2.1809 0 0 1 -1.0743.2763zm.1563-.7559a1.553 1.553 0 0 0 .9238-.2817 1.8188 1.8188 0 0 0 .6114-.78 3.0163 3.0163 0 0 0 .2285-1.1582v-.0356a2.83 2.83 0 0 0 -.2217-1.1582 1.7837 1.7837 0 0 0 -.6182-.7681 1.5843 1.5843 0 0 0 -.9121-.27 1.6321 1.6321 0 0 0 -.9365.2764 1.7479 1.7479 0 0 0 -.624.78 2.9736 2.9736 0 0 0 -.2158 1.1758 2.5032 2.5032 0 0 0 .4863 1.6143 1.56 1.56 0 0 0 1.2783.6053z"/><path d="m244.7451 145.8765-3.3486-7.8243.24-.0356v6.12q0 .36.0059.666t0 .5582c-.0039.1679-.002.34.0058.5161h-.9716v-8.34h1.5l3.2519 7.6079-.2754.0117 3.252-7.62h1.4394v8.34h-.9717c.0079-.1758.01-.35.0059-.522s-.0059-.3579-.0059-.5581v-6.7681l.2881-.06-3.372 7.9082z"/><path d="m253.0967 146.0083a1.7511 1.7511 0 0 1 -1.1875-.4141 1.3766 1.3766 0 0 1 -.4805-1.0976 1.2337 1.2337 0 0 1 .2637-.8042 1.8874 1.8874 0 0 1 .708-.522 7.0622 7.0622 0 0 1 1.0928-.3657l1.5-.3721.0117.6358-1.3565.372a3.9424 3.9424 0 0 0 -.6718.2339 1.1975 1.1975 0 0 0 -.42.3184.7026.7026 0 0 0 -.1562.4555.7263.7263 0 0 0 .2519.6 1.0163 1.0163 0 0 0 .66.2041 1.5424 1.5424 0 0 0 .7627-.2041 1.6122 1.6122 0 0 0 .6055-.6176 1.968 1.968 0 0 0 .24-1.0025v-1.2475a1.2524 1.2524 0 0 0 -.39-1.02 1.612 1.612 0 0 0 -1.0624-.3242 3.1805 3.1805 0 0 0 -.9239.1382 3.8671 3.8671 0 0 0 -.876.39l-.0117-.7676a3.319 3.319 0 0 1 .8936-.4024 3.76 3.76 0 0 1 1.0625-.15 2.8006 2.8006 0 0 1 1.14.2222 1.6907 1.6907 0 0 1 .792.7139 2.4221 2.4221 0 0 1 .2881 1.2358v3.66h-.9121v-.9239a2.0442 2.0442 0 0 1 -.8037.8037 2.1651 2.1651 0 0 1 -1.0202.252z"/><path d="m258.9287 146.0083a2.6883 2.6883 0 0 1 -.8642-.15 2.7636 2.7636 0 0 1 -.792-.4141v-.792a4.0863 4.0863 0 0 0 .8281.4263 2.2607 2.2607 0 0 0 .7685.1377 1.7457 1.7457 0 0 0 .918-.2217.7194.7194 0 0 0 .3652-.6543.5708.5708 0 0 0 -.1972-.45 2.45 2.45 0 0 0 -.6905-.3662l-.6718-.24a2.3912 2.3912 0 0 1 -1.0323-.666 1.4441 1.4441 0 0 1 -.3115-.93 1.3705 1.3705 0 0 1 .27-.834 1.89 1.89 0 0 1 .75-.5879 2.5159 2.5159 0 0 1 1.0683-.2222 3.0111 3.0111 0 0 1 .7861.1021 2.4176 2.4176 0 0 1 .6778.2939v.7681a3.0189 3.0189 0 0 0 -.6778-.2759 2.7276 2.7276 0 0 0 -.7148-.0962 1.656 1.656 0 0 0 -.8936.2222.6827.6827 0 0 0 -.3535.606.6265.6265 0 0 0 .1973.4677 2.28 2.28 0 0 0 .6787.396l.72.2764a3.1208 3.1208 0 0 1 .7618.39 1.2607 1.2607 0 0 1 .4082.4864 1.4881 1.4881 0 0 1 .1259.624 1.5068 1.5068 0 0 1 -.2705.8818 1.77 1.77 0 0 1 -.75.606 2.6607 2.6607 0 0 1 -1.1042.2159z"/><path d="m264.6406 146.0083a1.8382 1.8382 0 0 1 -.8457-.186 1.3026 1.3026 0 0 1 -.57-.57 1.9917 1.9917 0 0 1 -.2041-.9477v-3.3364h-1.1279v-.732a2.2388 2.2388 0 0 0 .8037-.1079.6139.6139 0 0 0 .36-.3838 2.6945 2.6945 0 0 0 .084-.8642h.8155v1.2959h1.5722v.792h-1.5722v3.312a.9461.9461 0 0 0 .2285.6963.8935.8935 0 0 0 .66.228 2.491 2.491 0 0 0 .3418-.0239 1.9524 1.9524 0 0 0 .3535-.084l-.0117.7436a2.1908 2.1908 0 0 1 -.8876.1681z"/><path d="m269.2607 146.0083a3.06 3.06 0 0 1 -1.5185-.3721 2.6312 2.6312 0 0 1 -1.044-1.0678 3.3171 3.3171 0 0 1 -.3779-1.608 3.1914 3.1914 0 0 1 .3418-1.4877 2.6789 2.6789 0 0 1 .9424-1.0445 2.4633 2.4633 0 0 1 1.3564-.3838 2.3437 2.3437 0 0 1 1.1993.3 2.0364 2.0364 0 0 1 .8046.8824 3.1026 3.1026 0 0 1 .2881 1.3857v.48h-4.2v-.7437h3.6836l-.4316.42a2.5543 2.5543 0 0 0 -.0957-1.08 1.2958 1.2958 0 0 0 -.4981-.6719 1.4078 1.4078 0 0 0 -.7988-.228 1.5312 1.5312 0 0 0 -.9053.2578 1.6146 1.6146 0 0 0 -.5586.72 2.7846 2.7846 0 0 0 -.1914 1.0737 2.82 2.82 0 0 0 .2637 1.272 1.9453 1.9453 0 0 0 .7383.8159 2.1356 2.1356 0 0 0 1.1338.2881 2.947 2.947 0 0 0 .8642-.1318 3.9979 3.9979 0 0 0 .876-.396v.7558a2.7258 2.7258 0 0 1 -.8525.42 3.5257 3.5257 0 0 1 -1.0198.1439z"/><path d="m272.7881 141.4966v-.93q0-.1977-.0117-.39h.9236v1.248h.0127a2.2823 2.2823 0 0 1 .42-.75 1.8588 1.8588 0 0 1 .6-.4678 1.69 1.69 0 0 1 .7442-.1621 1.66 1.66 0 0 1 .4443.06v.876a1.4845 1.4845 0 0 0 -.4209-.06 1.66 1.66 0 0 0 -.8877.252 1.7516 1.7516 0 0 0 -.6543.7861 3.3477 3.3477 0 0 0 -.2578 1.35v1.7939c0 .14.0039.2622.0127.3658a1.1641 1.1641 0 0 0 -.0068.21 1.1113 1.1113 0 0 1 -.0059.1983h-.9238q0-.1443.0058-.3062t.0059-.396v-3.6777z"/><path d="m47.5794 72.0439a27.1463 27.1463 0 0 0 -.5352-5.9663 6.8916 6.8916 0 0 0 -2.2182-3.7476 14.5434 14.5434 0 0 0 -5.2012-2.5244v-.7647l14.227-3.3657h.1529v14.5328a39.8113 39.8113 0 0 1 11.6264-11.2441 26.6325 26.6325 0 0 1 14.2276-4.0539 23.9435 23.9435 0 0 1 11.2441 2.6772 19.7926 19.7926 0 0 1 8.2608 8.5669q3.1339 5.8916 3.1362 14.7627v33.0432a36.1387 36.1387 0 0 0 .5356 7.1138 7.0237 7.0237 0 0 0 2.065 3.9009 13.573 13.573 0 0 0 5.0483 2.4478v.9179h-21.876v-.9179a12.811 12.811 0 0 0 5.0484-2.524 7.9122 7.9122 0 0 0 2.1416-3.9775 31.0655 31.0655 0 0 0 .6118-6.961v-32.5845a28.243 28.243 0 0 0 -2.0649-11.32 16.4826 16.4826 0 0 0 -5.9663-7.3433 17.737 17.737 0 0 0 -10.0206-2.6006 23.903 23.903 0 0 0 -9.9438 2.1416 24.4359 24.4359 0 0 0 -8.1841 5.9663 40.5072 40.5072 0 0 0 -5.89 8.5669v37.1736a28.5821 28.5821 0 0 0 .6885 7.0372 7.9081 7.9081 0 0 0 2.2182 3.9775 13.5241 13.5241 0 0 0 4.8955 2.4478v.9179h-22.0294v-.9179a13.6743 13.6743 0 0 0 5.2779-2.524 6.7584 6.7584 0 0 0 2.0654-3.9013 40.797 40.797 0 0 0 .4585-7.0372z"/><path d="m212.7478 75.2563a30.2377 30.2377 0 0 0 -.5361-6.2719 8.6555 8.6555 0 0 0 -2.2182-4.2071 10.673 10.673 0 0 0 -4.7422-2.6773v-1.224l27.9956-5.66h.459v11.78a32.4486 32.4486 0 0 1 9.6376-9.5615 24.3979 24.3979 0 0 1 24.3243-.3823 20.1853 20.1853 0 0 1 8.0312 9.0258 33.3468 33.3468 0 0 1 2.83 14.38v32.7383a37.5947 37.5947 0 0 0 .5352 7.1133 8.6113 8.6113 0 0 0 1.8358 4.1304 10.4071 10.4071 0 0 0 4.0547 2.524v1.3769h-32.127v-1.3769a7.9325 7.9325 0 0 0 2.9834-2.6006 12.17 12.17 0 0 0 1.53-4.207 36.8147 36.8147 0 0 0 .5352-6.96v-31.9737a21.3059 21.3059 0 0 0 -1.3008-7.9551 10.0741 10.0741 0 0 0 -3.7481-4.8189 10.9275 10.9275 0 0 0 -6.1191-1.6064 13.135 13.135 0 0 0 -5.3535 1.1474 12.0025 12.0025 0 0 0 -4.59 3.6714 17.9294 17.9294 0 0 0 -3.0595 6.3492v35.1855a44.2069 44.2069 0 0 0 .4589 7.0371 10.5889 10.5889 0 0 0 1.4532 4.207 8.2092 8.2092 0 0 0 2.9834 2.524v1.3769h-33.0439v-1.3769a12.05 12.05 0 0 0 4.7427-2.6006 7.5114 7.5114 0 0 0 1.9893-4.13 42.4552 42.4552 0 0 0 .4589-7.0371z"/></g><path d="m124.27 140.1767c7.6766 4.7446 16.1222 14.2365 21.574 25.5051" fill="none" stroke="#45954b" stroke-miterlimit="10" stroke-width="4"/><path d="m139.534 166.448 9.54 7.222 1.486-11.873z" fill="#45954b"/><path d="m193.3642 140.1767c-7.6767 4.7446-16.1223 14.2365-21.574 25.5051" fill="none" stroke="#45954b" stroke-miterlimit="10" stroke-width="4"/><path d="m167.074 161.797 1.486 11.873 9.541-7.222z" fill="#45954b"/><path d="m33.009 276.839-2.598-16.177h-26.276v60.985h45.345v-42.696z" fill="#80ad7a"/><path d="m31.588 260.662 2.432 15.147 15.46 1.982z" fill="#80ad7a"/><path d="m13.41 288.2921a13.3193 13.3193 0 0 0 -.2625-2.9268 3.38 3.38 0 0 0 -1.0883-1.8388 7.1308 7.1308 0 0 0 -2.5517-1.2385v-.3751l6.98-1.6515h.0749v7.13a19.5387 19.5387 0 0 1 5.704-5.5163 13.0655 13.0655 0 0 1 6.98-1.9888 11.7468 11.7468 0 0 1 5.5165 1.3137 9.7122 9.7122 0 0 1 4.0527 4.2032 15.3053 15.3053 0 0 1 1.5387 7.2425v16.2113a17.7213 17.7213 0 0 0 .2628 3.49 3.4459 3.4459 0 0 0 1.013 1.914 6.6534 6.6534 0 0 0 2.4767 1.2006v.45h-10.7323v-.45a6.283 6.283 0 0 0 2.4767-1.238 3.8826 3.8826 0 0 0 1.0507-1.9513 15.2435 15.2435 0 0 0 .3-3.4151v-15.9872a13.8551 13.8551 0 0 0 -1.013-5.5537 8.0869 8.0869 0 0 0 -2.9271-3.6029 8.7035 8.7035 0 0 0 -4.916-1.2758 11.7259 11.7259 0 0 0 -4.8785 1.0507 11.9885 11.9885 0 0 0 -4.0151 2.9273 19.865 19.865 0 0 0 -2.89 4.2026v18.2379a14.0234 14.0234 0 0 0 .3378 3.4524 3.88 3.88 0 0 0 1.0883 1.9514 6.6286 6.6286 0 0 0 2.4017 1.2006v.45h-10.8071v-.45a6.7073 6.7073 0 0 0 2.5893-1.238 3.3163 3.3163 0 0 0 1.0133-1.914 20.023 20.023 0 0 0 .2249-3.4524z" fill="#fff" opacity=".9"/><path d="m18.3359 338.2163v-6.9658h-2.8559v-.8521h6.6836v.8521h-2.8677v7.4878h-.96z" fill="#45954b"/><path d="m23.4116 331.5381v-.9116c0-.1363-.0039-.272-.0122-.4082h.9243v3.708a2.347 2.347 0 0 1 .792-.7622 2.0587 2.0587 0 0 1 1.0318-.2579 1.9781 1.9781 0 0 1 1.0019.2579 1.8423 1.8423 0 0 1 .7144.7563 2.6332 2.6332 0 0 1 .2636 1.2417v2.88q0 .24-.0058.396a2.5308 2.5308 0 0 0 .0058.3h-.9238q-.0125-.1443-.0122-.3062v-3.2578a1.6291 1.6291 0 0 0 -.3237-1.08 1.1866 1.1866 0 0 0 -.96-.3838 1.48 1.48 0 0 0 -.792.2217 1.5542 1.5542 0 0 0 -.57.6363 2.1659 2.1659 0 0 0 -.2217.9419v2.9282c0 .104.0039.2036.0117.3h-.936q0-.1443.0064-.3062t.0058-.396v-6.498z" fill="#45954b"/><path d="m30.3232 331.8384a.6949.6949 0 0 1 -.5039-.1983.71.71 0 0 1 0-.9961.7336.7336 0 0 1 1.002 0 .6958.6958 0 0 1 0 .9961.699.699 0 0 1 -.4981.1983zm.48 5.64v1.26h-.936c0-.0962.0014-.1983.0058-.3062s.0039-.24 0-.396-.0058-.3418-.0058-.5576v-4.44h.936z" fill="#45954b"/><path d="m32.7114 334.3584v-.48q0-.2277.0064-.438c.0039-.14.0019-.2739-.0064-.4023h.9361v.9a2.0355 2.0355 0 0 1 1.8-1.0323 2.0375 2.0375 0 0 1 1.0136.252 1.7919 1.7919 0 0 1 .7144.7559 2.6725 2.6725 0 0 1 .2637 1.248v3.5762h-.9361a2.5134 2.5134 0 0 0 .0064-.3062q-.0066-.1618-.0064-.396v-2.8618a1.9422 1.9422 0 0 0 -.144-.792 1.0859 1.0859 0 0 0 -.4258-.498 1.2926 1.2926 0 0 0 -.69-.1739 1.5024 1.5024 0 0 0 -1.3741.84 2.1052 2.1052 0 0 0 -.2221.9961v3.1919h-.9361v-4.38z" fill="#45954b"/><path d="m85.536 276.839-2.598-16.177h-26.276v60.985h45.345v-42.696z" fill="#80ad7a"/><path d="m84.115 260.662 2.432 15.147 15.46 1.982z" fill="#80ad7a"/><path d="m65.4421 288.6074a13.6138 13.6138 0 0 0 -.2626-2.9569 3.5408 3.5408 0 0 0 -1.0883-1.8839 6.65 6.65 0 0 0 -2.5066-1.2534v-.42l8.3307-1.8765h.105v6.86a18.813 18.813 0 0 1 5.5088-5.3513 12.6985 12.6985 0 0 1 6.8-1.9288 11.6483 11.6483 0 0 1 5.5839 1.3508 9.755 9.755 0 0 1 4.03 4.2482 15.4968 15.4968 0 0 1 1.5086 7.205v16.1813a17.8677 17.8677 0 0 0 .2627 3.49 3.5741 3.5741 0 0 0 .9906 1.9365 6.2964 6.2964 0 0 0 2.3792 1.2081v.4954h-11.738v-.4954a5.6393 5.6393 0 0 0 2.2739-1.2465 4.1234 4.1234 0 0 0 .9907-1.9739 15.746 15.746 0 0 0 .2926-3.4149v-15.9258a13.16 13.16 0 0 0 -.9381-5.2236 7.4521 7.4521 0 0 0 -2.7094-3.355 8.034 8.034 0 0 0 -4.5332-1.1783 10.7986 10.7986 0 0 0 -8.0905 3.6551 17.0342 17.0342 0 0 0 -2.612 3.9852v18.0427a15.1134 15.1134 0 0 0 .3152 3.4524 4.0283 4.0283 0 0 0 1.0133 1.9739 5.9467 5.9467 0 0 0 2.2141 1.2081v.4954h-11.8881v-.4954a6.53 6.53 0 0 0 2.5368-1.2456 3.3848 3.3848 0 0 0 1.0057-1.9364 20.1706 20.1706 0 0 0 .225-3.4524z" fill="#fff" opacity=".9"/><path d="m67.3057 338.0371q.0059-.2578 0-.5581t-.0064-.66v-4.86q0-.36.0064-.666c.0039-.2041.0039-.39 0-.5581s-.0025-.34.0058-.5157h.96c.0078.1758.01.35.0058.522s-.0039.3579 0 .5581.0064.42.0064.66v5.748h4.14v.8521h-5.1122q-.0124-.264-.0058-.5223z" fill="#45954b"/><path d="m73.9229 331.6592a.695.695 0 0 1 -.504-.1983.71.71 0 0 1 0-.9961.7336.7336 0 0 1 1.002 0 .6956.6956 0 0 1 0 .9961.699.699 0 0 1 -.498.1983zm.48 5.64v1.26h-.936c0-.0962.0015-.1983.0058-.3062s.004-.24 0-.396-.0058-.3418-.0058-.5576v-4.44h.936z" fill="#45954b"/><path d="m78.375 341.1152a4.0115 4.0115 0 0 1 -1.4038-.2163 1.91 1.91 0 0 1 -.8579-.5757 1.273 1.273 0 0 1 -.2822-.8042 1.1573 1.1573 0 0 1 .2583-.72 1.7558 1.7558 0 0 1 .6777-.5283v-.24l.84.4317a1.2757 1.2757 0 0 0 -.6484.3183.77.77 0 0 0 -.2637.5821.8056.8056 0 0 0 .45.7436 2.56 2.56 0 0 0 1.2422.252 3.9515 3.9515 0 0 0 1.0679-.1377 2.0472 2.0472 0 0 0 .792-.396.8015.8015 0 0 0 .3-.63.57.57 0 0 0 -.2823-.5283 1.6 1.6 0 0 0 -.81-.168h-1.9675a1.6276 1.6276 0 0 1 -.7261-.1557 1.235 1.235 0 0 1 -.4922-.4141.98.98 0 0 1 -.1738-.5581 1.1281 1.1281 0 0 1 .252-.708 1.7418 1.7418 0 0 1 .684-.5161v-.2041l.6358.48a1.4435 1.4435 0 0 0 -.5518.2944.5862.5862 0 0 0 -.2041.45.45.45 0 0 0 .18.3779.9257.9257 0 0 0 .564.1382h1.7759a2.7515 2.7515 0 0 1 1.5058.36 1.167 1.167 0 0 1 .5581 1.0439 1.5677 1.5677 0 0 1 -.414 1.0923 2.612 2.612 0 0 1 -1.128.6958 4.9233 4.9233 0 0 1 -1.5779.2404zm.1323-4.4282a2.5026 2.5026 0 0 1 -1.146-.2578 1.9206 1.9206 0 0 1 -.7861-.7021 1.8682 1.8682 0 0 1 -.2759-1.0079 1.9224 1.9224 0 0 1 .2818-1.0322 1.8957 1.8957 0 0 1 .7919-.708 2.5538 2.5538 0 0 1 1.146-.2519 2.5971 2.5971 0 0 1 .7325.102 2.1347 2.1347 0 0 1 .6235.2939l.0483.18a1.4272 1.4272 0 0 1 .564.5879 1.7293 1.7293 0 0 1 .1919.8042 1.8724 1.8724 0 0 1 -.2817 1.0137 2.0205 2.0205 0 0 1 -.7745.7139 2.32 2.32 0 0 1 -1.1157.2643zm0-.7319a1.4072 1.4072 0 0 0 .66-.1558 1.15 1.15 0 0 0 .4683-.4385 1.2529 1.2529 0 0 0 .1679-.6538 1.18 1.18 0 0 0 -.3662-.9057 1.3075 1.3075 0 0 0 -.93-.3423 1.4258 1.4258 0 0 0 -.6782.1562 1.16 1.16 0 0 0 -.4619.438 1.2748 1.2748 0 0 0 -.168.666 1.1727 1.1727 0 0 0 .36.9 1.3333 1.3333 0 0 0 .9481.3359zm1.356-2.3281-.708-.7681h2.4121v.7681z" fill="#45954b"/><path d="m82.731 331.3589v-.9116c0-.1363-.0039-.272-.0122-.4082h.9243v3.708a2.3461 2.3461 0 0 1 .792-.7622 2.0582 2.0582 0 0 1 1.0317-.2578 1.9784 1.9784 0 0 1 1.002.2578 1.8427 1.8427 0 0 1 .7143.7563 2.6331 2.6331 0 0 1 .2637 1.2417v2.88q0 .24-.0059.396a2.53 2.53 0 0 0 .0059.3h-.9239q-.0125-.1443-.0122-.3062v-3.2578a1.6291 1.6291 0 0 0 -.3237-1.08 1.1864 1.1864 0 0 0 -.96-.3838 1.4793 1.4793 0 0 0 -.792.2217 1.5544 1.5544 0 0 0 -.57.6363 2.1659 2.1659 0 0 0 -.2216.9419v2.9282c0 .104.0039.2036.0117.3h-.936c0-.0962.0019-.1983.0063-.3062s.0059-.24.0059-.396v-6.498z" fill="#45954b"/><path d="m91.4072 338.6909a1.8411 1.8411 0 0 1 -.8457-.186 1.3049 1.3049 0 0 1 -.57-.57 1.9984 1.9984 0 0 1 -.2041-.9478v-3.3364h-1.1282v-.732a2.2438 2.2438 0 0 0 .8042-.1079.6117.6117 0 0 0 .36-.3838 2.68 2.68 0 0 0 .084-.8642h.8159v1.2959h1.5723v.792h-1.5725v3.312a.9481.9481 0 0 0 .2281.6963.8943.8943 0 0 0 .66.228 2.4812 2.4812 0 0 0 .3418-.0239 1.9673 1.9673 0 0 0 .354-.084l-.0117.7436a2.1932 2.1932 0 0 1 -.8881.1682z" fill="#45954b"/><path d="m138.063 276.839-2.598-16.177h-26.276v60.985h45.345v-42.696z" fill="#80ad7a"/><path d="m136.642 260.662 2.432 15.147 15.46 1.982z" fill="#80ad7a"/><path d="m117.4738 288.9226a13.9264 13.9264 0 0 0 -.2626-2.987 3.7093 3.7093 0 0 0 -1.0883-1.9288 6.2273 6.2273 0 0 0 -2.4616-1.2684v-.4654l9.6816-2.1016h.1351v6.59a18.0872 18.0872 0 0 1 5.3137-5.1862 12.3311 12.3311 0 0 1 6.62-1.8687 11.5588 11.5588 0 0 1 5.6515 1.3883 9.7965 9.7965 0 0 1 4.0077 4.2932 15.6991 15.6991 0 0 1 1.4785 7.1675v16.1513a18.0051 18.0051 0 0 0 .2627 3.49 3.7143 3.7143 0 0 0 .9681 1.9591 5.96 5.96 0 0 0 2.2817 1.2156v.54h-12.7442v-.54a5.0746 5.0746 0 0 0 2.0715-1.2532 4.4261 4.4261 0 0 0 .9307-1.9964 16.2781 16.2781 0 0 0 .2851-3.4148v-15.8671a12.4708 12.4708 0 0 0 -.8631-4.8933 6.82 6.82 0 0 0 -2.4919-3.1067 7.3651 7.3651 0 0 0 -4.15-1.0807 9.6132 9.6132 0 0 0 -3.9777.8555 9.4645 9.4645 0 0 0 -3.31 2.4768 14.5366 14.5366 0 0 0 -2.3342 3.7676v17.8476a16.3685 16.3685 0 0 0 .2927 3.4524 4.22 4.22 0 0 0 .9382 1.9964 5.3428 5.3428 0 0 0 2.0264 1.2156v.54h-12.969v-.54a6.36 6.36 0 0 0 2.4842-1.2532 3.4554 3.4554 0 0 0 .9983-1.9588 20.3326 20.3326 0 0 0 .225-3.4524z" fill="#fff" opacity=".9"/><path d="m113.3281 338.5752q.0058-.2578 0-.5581c-.0044-.2-.0058-.42-.0058-.66v-4.86c0-.24.0014-.4619.0058-.666s.0039-.39 0-.5582-.0019-.34.0059-.5156h2.688a3.7865 3.7865 0 0 1 1.5058.2759 2.2762 2.2762 0 0 1 .99.7681 2.0166 2.0166 0 0 1 -.0059 2.2739 2.2663 2.2663 0 0 1 -.9961.7681 3.84 3.84 0 0 1 -1.4941.27l.0122-.06.5039-.0478 3.228 4.0918h-1.2238l-3.0479-3.9361h-1.2119v2.8618q0 .3063-.0063.5582c-.0039.1679-.002.34.0063.5161h-.9482c-.0078-.1759-.0103-.3502-.0059-.5221zm2.5381-4.2539a3.28 3.28 0 0 0 1.08-.1563 1.4514 1.4514 0 0 0 .69-.4736 1.1927 1.1927 0 0 0 .2456-.75 1.1308 1.1308 0 0 0 -.5337-1.0083 2.6993 2.6993 0 0 0 -1.4819-.3481h-1.584v2.7363z" fill="#45954b"/><path d="m123.3418 339.229a3.0589 3.0589 0 0 1 -1.5181-.3721 2.6279 2.6279 0 0 1 -1.0439-1.0678 3.3158 3.3158 0 0 1 -.3779-1.6079 3.1842 3.1842 0 0 1 .3418-1.4878 2.6749 2.6749 0 0 1 .9423-1.0445 2.4618 2.4618 0 0 1 1.356-.3838 2.3454 2.3454 0 0 1 1.2.3 2.0331 2.0331 0 0 1 .8042.8824 3.0958 3.0958 0 0 1 .2881 1.3857v.48h-4.2v-.7437h3.6841l-.4322.42a2.5511 2.5511 0 0 0 -.0957-1.08 1.2935 1.2935 0 0 0 -.498-.6719 1.4061 1.4061 0 0 0 -.7983-.228 1.5326 1.5326 0 0 0 -.9058.2578 1.613 1.613 0 0 0 -.5581.72 2.7844 2.7844 0 0 0 -.1919 1.0737 2.8129 2.8129 0 0 0 .2642 1.272 1.9466 1.9466 0 0 0 .7377.8159 2.1386 2.1386 0 0 0 1.1338.2881 2.9481 2.9481 0 0 0 .8643-.1318 3.9979 3.9979 0 0 0 .876-.396v.7558a2.73 2.73 0 0 1 -.8521.42 3.5246 3.5246 0 0 1 -1.0205.1439z" fill="#45954b"/><path d="m128.9575 341.6533a4.0119 4.0119 0 0 1 -1.4038-.2163 1.91 1.91 0 0 1 -.8579-.5757 1.273 1.273 0 0 1 -.2822-.8042 1.1573 1.1573 0 0 1 .2583-.72 1.7565 1.7565 0 0 1 .6777-.5283v-.24l.84.4317a1.2757 1.2757 0 0 0 -.6484.3183.77.77 0 0 0 -.2637.5821.8056.8056 0 0 0 .45.7436 2.56 2.56 0 0 0 1.2422.252 3.9515 3.9515 0 0 0 1.0679-.1377 2.0472 2.0472 0 0 0 .792-.396.8015.8015 0 0 0 .3-.63.5706.5706 0 0 0 -.2822-.5283 1.6007 1.6007 0 0 0 -.81-.168h-1.9674a1.6262 1.6262 0 0 1 -.726-.1558 1.2334 1.2334 0 0 1 -.4922-.414.98.98 0 0 1 -.1739-.5581 1.1281 1.1281 0 0 1 .252-.708 1.7421 1.7421 0 0 1 .6841-.5161v-.2041l.6357.48a1.4423 1.4423 0 0 0 -.5517.2945.5858.5858 0 0 0 -.2041.45.45.45 0 0 0 .18.3779.9257.9257 0 0 0 .564.1382h1.7759a2.7515 2.7515 0 0 1 1.5058.36 1.1669 1.1669 0 0 1 .5581 1.0439 1.5677 1.5677 0 0 1 -.414 1.0923 2.612 2.612 0 0 1 -1.128.6958 4.9261 4.9261 0 0 1 -1.5782.2403zm.1323-4.4282a2.5026 2.5026 0 0 1 -1.146-.2578 1.92 1.92 0 0 1 -.7861-.7022 1.8679 1.8679 0 0 1 -.2759-1.0078 1.9222 1.9222 0 0 1 .2818-1.0322 1.896 1.896 0 0 1 .792-.708 2.5532 2.5532 0 0 1 1.146-.252 2.5964 2.5964 0 0 1 .7324.1021 2.1347 2.1347 0 0 1 .6235.2939l.0484.18a1.4275 1.4275 0 0 1 .5639.5879 1.7278 1.7278 0 0 1 .1919.8042 1.8724 1.8724 0 0 1 -.2817 1.0137 2.02 2.02 0 0 1 -.7744.7138 2.319 2.319 0 0 1 -1.1156.2644zm0-.7319a1.4072 1.4072 0 0 0 .66-.1558 1.15 1.15 0 0 0 .4683-.4385 1.2529 1.2529 0 0 0 .1679-.6538 1.18 1.18 0 0 0 -.3662-.9057 1.3075 1.3075 0 0 0 -.93-.3423 1.4258 1.4258 0 0 0 -.6782.1562 1.16 1.16 0 0 0 -.4619.438 1.2748 1.2748 0 0 0 -.168.666 1.1731 1.1731 0 0 0 .36.9 1.3339 1.3339 0 0 0 .9483.3359zm1.356-2.3282-.708-.768h2.4122v.768z" fill="#45954b"/><path d="m135.1382 339.229a1.9007 1.9007 0 0 1 -.9663-.2456 1.7939 1.7939 0 0 1 -.6841-.7261 2.43 2.43 0 0 1 -.2578-1.164v-2.376q0-.2637.0058-.5039c.0039-.16.0064-.3042.0064-.4322v-.3842h.9238v3.66a1.4757 1.4757 0 0 0 .312 1.0323 1.1223 1.1223 0 0 0 .8638.3359 1.5138 1.5138 0 0 0 .78-.2041 1.4235 1.4235 0 0 0 .5517-.6118 2.1481 2.1481 0 0 0 .2041-.9722v-3.24h.9239v4.3442q0 .2761.0063.5039t.0059.438v.4141h-.9361v-.8638a1.98 1.98 0 0 1 -.7319.7437 2.0072 2.0072 0 0 1 -1.0075.2518z" fill="#45954b"/><path d="m139.8057 338.9531v-8.4121l.9243.0122v8.544h-.9243z" fill="#45954b"/><path d="m144.03 339.229a1.7524 1.7524 0 0 1 -1.188-.4141 1.3762 1.3762 0 0 1 -.48-1.0976 1.2337 1.2337 0 0 1 .2637-.8042 1.8842 1.8842 0 0 1 .708-.522 7.0764 7.0764 0 0 1 1.0923-.3657l1.5-.3721.0117.6358-1.356.372a3.9269 3.9269 0 0 0 -.6718.2339 1.1893 1.1893 0 0 0 -.42.3184.7.7 0 0 0 -.1562.4555.7263.7263 0 0 0 .2519.6 1.0154 1.0154 0 0 0 .66.2041 1.5417 1.5417 0 0 0 .7622-.2041 1.61 1.61 0 0 0 .606-.6176 1.973 1.973 0 0 0 .24-1.0025v-1.2475a1.2527 1.2527 0 0 0 -.39-1.02 1.6111 1.6111 0 0 0 -1.062-.3242 3.1839 3.1839 0 0 0 -.9244.1382 3.8742 3.8742 0 0 0 -.8759.39l-.0118-.7676a3.3168 3.3168 0 0 1 .8941-.4024 3.7564 3.7564 0 0 1 1.062-.15 2.8006 2.8006 0 0 1 1.14.2222 1.6884 1.6884 0 0 1 .792.7139 2.417 2.417 0 0 1 .2881 1.2358v3.66h-.9121v-.9239a2.042 2.042 0 0 1 -.8037.8038 2.1657 2.1657 0 0 1 -1.0201.2519z" fill="#45954b"/><path d="m148.5654 334.7173v-.93q0-.1977-.0117-.39h.9238v1.248h.0122a2.2915 2.2915 0 0 1 .42-.75 1.8532 1.8532 0 0 1 .6-.4678 1.689 1.689 0 0 1 .7436-.1621 1.6553 1.6553 0 0 1 .4444.06v.876a1.4817 1.4817 0 0 0 -.4205-.06 1.6578 1.6578 0 0 0 -.8877.252 1.7483 1.7483 0 0 0 -.6542.7861 3.35 3.35 0 0 0 -.2579 1.35v1.7939q0 .21.0122.3658a1.22 1.22 0 0 0 -.0063.21 1.1021 1.1021 0 0 1 -.0059.1983h-.9238c0-.0962.0015-.1983.0059-.3062s.0058-.24.0058-.396v-3.6777z" fill="#45954b"/><path d="m190.59 276.839-2.598-16.177h-26.276v60.985h45.345v-42.696z" fill="#80ad7a"/><path d="m189.169 260.662 2.433 15.147 15.459 1.982z" fill="#80ad7a"/><path d="m169.5056 289.2379a14.2334 14.2334 0 0 0 -.2627-3.0171 3.8841 3.8841 0 0 0 -1.0883-1.9739 5.8558 5.8558 0 0 0 -2.4166-1.2833v-.5106l11.0325-2.3267h.1651v6.32a17.363 17.363 0 0 1 5.1187-5.0211 11.964 11.964 0 0 1 6.44-1.8088 11.476 11.476 0 0 1 5.719 1.4259 9.8338 9.8338 0 0 1 3.9851 4.3382 15.9081 15.9081 0 0 1 1.4485 7.13v16.1213a18.1541 18.1541 0 0 0 .2627 3.49 3.869 3.869 0 0 0 .9456 1.9816 5.65 5.65 0 0 0 2.1843 1.223v.5855h-13.75v-.5855a4.5869 4.5869 0 0 0 1.8688-1.2607 4.81 4.81 0 0 0 .8708-2.0189 16.8421 16.8421 0 0 0 .2775-3.4148v-15.8067a11.7875 11.7875 0 0 0 -.7881-4.5632 6.19 6.19 0 0 0 -2.2741-2.8594 6.6968 6.6968 0 0 0 -3.7676-.9832 8.5565 8.5565 0 0 0 -3.5274.758 8.24 8.24 0 0 0 -2.9571 2.2515 12.3517 12.3517 0 0 0 -2.0565 3.55v17.6523a17.8427 17.8427 0 0 0 .27 3.4524 4.4687 4.4687 0 0 0 .8632 2.019 4.818 4.818 0 0 0 1.8388 1.223v.5855h-14.05v-.5855a6.2 6.2 0 0 0 2.4317-1.2607 3.5287 3.5287 0 0 0 .9908-1.9813 20.5024 20.5024 0 0 0 .2251-3.4524z" fill="#fff" opacity=".9"/><path d="m167.853 338.7383-3.3481-7.8242.24-.0357v6.12q0 .36.0059.6661t0 .5581c-.0039.1679-.002.34.0058.5161h-.9716v-8.34h1.5l3.2519 7.6079-.2759.0118 3.252-7.62h1.44v8.34h-.9721c.0078-.1758.01-.35.0063-.522s-.0063-.3579-.0063-.5581v-6.7683l.288-.06-3.372 7.9082z" fill="#45954b"/><path d="m177.3569 338.87a3.0585 3.0585 0 0 1 -1.518-.3721 2.6281 2.6281 0 0 1 -1.044-1.0678 3.3169 3.3169 0 0 1 -.3779-1.6079 3.1854 3.1854 0 0 1 .3418-1.4878 2.6751 2.6751 0 0 1 .9424-1.0445 2.4614 2.4614 0 0 1 1.3559-.3838 2.344 2.344 0 0 1 1.2.3 2.0317 2.0317 0 0 1 .8042.8823 3.0961 3.0961 0 0 1 .2881 1.3857v.48h-4.2v-.7441h3.6841l-.4321.42a2.5543 2.5543 0 0 0 -.0957-1.08 1.2931 1.2931 0 0 0 -.4981-.6719 1.4069 1.4069 0 0 0 -.7983-.228 1.5328 1.5328 0 0 0 -.9058.2578 1.6137 1.6137 0 0 0 -.5581.72 2.7844 2.7844 0 0 0 -.1919 1.0737 2.8126 2.8126 0 0 0 .2642 1.272 1.9474 1.9474 0 0 0 .7378.8159 2.1381 2.1381 0 0 0 1.1338.2881 2.9475 2.9475 0 0 0 .8642-.1318 3.9932 3.9932 0 0 0 .876-.396v.7559a2.73 2.73 0 0 1 -.852.42 3.5257 3.5257 0 0 1 -1.0206.1443z" fill="#45954b"/><path d="m182.9849 338.87a2.4609 2.4609 0 0 1 -2.232-1.3857 3.4676 3.4676 0 0 1 -.3481-1.6021 3.4034 3.4034 0 0 1 .3481-1.584 2.4692 2.4692 0 0 1 2.232-1.38 2.3067 2.3067 0 0 1 .8881.1679 1.9371 1.9371 0 0 1 .6958.48 2.2923 2.2923 0 0 1 .4439.6958l-.1558.24v-4.2841h.9361v8.52h-.9361v-.9478a2.0572 2.0572 0 0 1 -.7978.8042 2.18 2.18 0 0 1 -1.0742.2758zm.1562-.7558a1.552 1.552 0 0 0 .9238-.2818 1.82 1.82 0 0 0 .6119-.78 3.0258 3.0258 0 0 0 .228-1.1582v-.0356a2.8226 2.8226 0 0 0 -.2217-1.1582 1.7807 1.7807 0 0 0 -.6182-.7681 1.5832 1.5832 0 0 0 -.9121-.27 1.6305 1.6305 0 0 0 -.936.2764 1.7416 1.7416 0 0 0 -.624.78 2.9639 2.9639 0 0 0 -.2158 1.1757 2.5059 2.5059 0 0 0 .4858 1.6143 1.56 1.56 0 0 0 1.2783.6056z" fill="#45954b"/><path d="m188.0244 331.8384a.6947.6947 0 0 1 -.5039-.1983.71.71 0 0 1 0-.9961.7336.7336 0 0 1 1.002 0 .6958.6958 0 0 1 0 .9961.699.699 0 0 1 -.4981.1983zm.48 5.64v1.26h-.9361c0-.0962.0015-.1983.0059-.3062s.0039-.24 0-.396-.0059-.3418-.0059-.5576v-4.44h.9361z" fill="#45954b"/><path d="m192.249 338.87a1.9009 1.9009 0 0 1 -.9663-.2456 1.7933 1.7933 0 0 1 -.6841-.7261 2.4312 2.4312 0 0 1 -.2578-1.164v-2.376q0-.2637.0059-.5039c.0039-.16.0063-.3042.0063-.4321v-.3843h.9239v3.66a1.4757 1.4757 0 0 0 .312 1.0323 1.1222 1.1222 0 0 0 .8637.3359 1.5135 1.5135 0 0 0 .78-.2041 1.4232 1.4232 0 0 0 .5518-.6118 2.1494 2.1494 0 0 0 .2041-.9722v-3.24h.9238v4.3442q0 .2762.0063.5039t.0059.438v.4141h-.936v-.8638a1.98 1.98 0 0 1 -.732.7437 2.0072 2.0072 0 0 1 -1.0075.2518z" fill="#45954b"/><path d="m196.94 334.3584v-.5039c0-.1519.002-.2944.0064-.4263s.0058-.2617.0058-.39h.9239v.9a2.0916 2.0916 0 0 1 .7622-.7681 1.9867 1.9867 0 0 1 1.0019-.2642 1.8266 1.8266 0 0 1 .6958.1319 1.6413 1.6413 0 0 1 .5821.4082 1.7955 1.7955 0 0 1 .39.6841h.0122a2.2576 2.2576 0 0 1 .7979-.918 1.9129 1.9129 0 0 1 1.038-.3062 1.7985 1.7985 0 0 1 .96.2579 1.85 1.85 0 0 1 .6719.7441 2.488 2.488 0 0 1 .2519 1.1582v2.4121q0 .3237-.0058.564c-.0044.16-.0059.292-.0059.396s.0039.2036.0117.3h-.936c0-.0962.0019-.1983.0063-.3062s.0039-.24 0-.396-.0063-.3418-.0063-.5576v-2.3642a1.5892 1.5892 0 0 0 -.3-1.05 1.0417 1.0417 0 0 0 -.84-.3541 1.3741 1.3741 0 0 0 -.75.2159 1.4784 1.4784 0 0 0 -.54.624 2.1778 2.1778 0 0 0 -.21.9121v2.0161c0 .2158.0015.4038.0059.564s.0039.292 0 .396-.0059.2036-.0059.3h-.9243a2.517 2.517 0 0 0 .0059-.3062q-.0059-.1618 0-.396t.0063-.5576v-2.3764a1.59 1.59 0 0 0 -.2939-1.0376 1.0389 1.0389 0 0 0 -.8462-.3541 1.4277 1.4277 0 0 0 -.7739.2217 1.5448 1.5448 0 0 0 -.5581.6241 2.0248 2.0248 0 0 0 -.2041.93v3.252h-.9239q-.0124-.1443-.0122-.3062v-4.0737z" fill="#45954b"/><path d="m243.118 276.839-2.599-16.177h-26.276v60.985h45.345v-42.696z" fill="#80ad7a"/><path d="m241.696 260.662 2.433 15.147 15.459 1.982z" fill="#80ad7a"/><path d="m221.5373 289.5531a14.5391 14.5391 0 0 0 -.2628-3.0472 4.0638 4.0638 0 0 0 -1.0882-2.0189 5.5286 5.5286 0 0 0 -2.3716-1.2983v-.5556l12.3835-2.5518h.1951v6.05a16.64 16.64 0 0 1 4.9236-4.856 11.5982 11.5982 0 0 1 6.2594-1.7488 11.4018 11.4018 0 0 1 5.7866 1.4635 9.87 9.87 0 0 1 3.9626 4.3833 16.1288 16.1288 0 0 1 1.4185 7.0923v16.0913a18.2971 18.2971 0 0 0 .2626 3.49 4.04 4.04 0 0 0 .9231 2.0041 5.3679 5.3679 0 0 0 2.0868 1.2305v.63h-14.7556v-.63a4.19 4.19 0 0 0 1.6662-1.2683 5.3076 5.3076 0 0 0 .8108-2.0414 17.4377 17.4377 0 0 0 .27-3.4147v-15.7471a11.1139 11.1139 0 0 0 -.7131-4.2329 5.5639 5.5639 0 0 0 -2.0565-2.6117 6.028 6.028 0 0 0 -3.3848-.8857 7.5005 7.5005 0 0 0 -3.077.6605 7.0449 7.0449 0 0 0 -2.6045 2.0262 10.4493 10.4493 0 0 0 -1.7787 3.3327v17.4571a19.584 19.584 0 0 0 .2477 3.4524 4.7855 4.7855 0 0 0 .7882 2.0415 4.3791 4.3791 0 0 0 1.651 1.2305v.63h-15.1302v-.63a6.05 6.05 0 0 0 2.3792-1.2683 3.6042 3.6042 0 0 0 .9832-2.0037 20.6549 20.6549 0 0 0 .2252-3.4524z" fill="#fff" opacity=".9"/><path d="m225.9541 338.2163q.0058-.2579 0-.5581c-.0049-.2-.0059-.42-.0059-.66v-4.86c0-.24.001-.4619.0059-.666s.0039-.39 0-.5581-.002-.34.0059-.5157h2.6757a4.07 4.07 0 0 1 1.5664.2637 2.003 2.003 0 0 1 .9356.7319 1.9086 1.9086 0 0 1 .3057 1.0684 1.7857 1.7857 0 0 1 -.5938 1.374 2.6651 2.6651 0 0 1 -1.6016.6421l.0479-.0962a3.2662 3.2662 0 0 1 1.41.3238 2.2225 2.2225 0 0 1 .8759.7563 1.7877 1.7877 0 0 1 .294.9839 2.0631 2.0631 0 0 1 -.3418 1.1641 2.3361 2.3361 0 0 1 -1.02.8217 3.9 3.9 0 0 1 -1.6143.3062h-2.9397c-.0079-.1758-.0108-.3501-.0059-.522zm2.5859-4.1821a2.9224 2.9224 0 0 0 1.0381-.1621 1.3653 1.3653 0 0 0 .6533-.4859 1.38 1.38 0 0 0 .2286-.8159 1.1492 1.1492 0 0 0 -.4981-.9839 2.3753 2.3753 0 0 0 -1.41-.36h-1.62v2.8081zm-1.6084.84v3.0358h1.7041a3.6319 3.6319 0 0 0 1.1944-.1739 1.6685 1.6685 0 0 0 .7734-.5161 1.2822 1.2822 0 0 0 .2764-.834 1.2463 1.2463 0 0 0 -.6182-1.1279 3.262 3.262 0 0 0 -1.7217-.3838z" fill="#45954b"/><path d="m235.9551 338.87a2.7858 2.7858 0 0 1 -1.4278-.3779 2.72 2.72 0 0 1 -1.0253-1.0679 3.1565 3.1565 0 0 1 -.379-1.542 3.1233 3.1233 0 0 1 .379-1.5361 2.73 2.73 0 0 1 1.0253-1.062 2.8873 2.8873 0 0 1 2.8565 0 2.7306 2.7306 0 0 1 1.0254 1.062 3.1237 3.1237 0 0 1 .3779 1.5361 3.1569 3.1569 0 0 1 -.3779 1.542 2.7212 2.7212 0 0 1 -1.0254 1.0679 2.7864 2.7864 0 0 1 -1.4287.3779zm0-.8159a1.7435 1.7435 0 0 0 1.626-1.0317 2.624 2.624 0 0 0 .2343-1.14 2.5941 2.5941 0 0 0 -.2343-1.1279 1.787 1.787 0 0 0 -3.252 0 2.607 2.607 0 0 0 -.2334 1.1279 2.637 2.637 0 0 0 .2334 1.14 1.7461 1.7461 0 0 0 1.626 1.0317z" fill="#45954b"/><path d="m240.3232 338.5942v-8.4121l.9248.0122v8.544h-.9248z" fill="#45954b"/><path d="m245.3037 338.87a2.4623 2.4623 0 0 1 -2.2324-1.3857 3.4726 3.4726 0 0 1 -.3477-1.6021 3.4083 3.4083 0 0 1 .3477-1.584 2.4706 2.4706 0 0 1 2.2324-1.38 2.3068 2.3068 0 0 1 .8877.1679 1.9442 1.9442 0 0 1 .6963.48 2.2926 2.2926 0 0 1 .4434.6958l-.1553.24v-4.2841h.9355v8.52h-.9355v-.9478a2.06 2.06 0 0 1 -.7979.8042 2.18 2.18 0 0 1 -1.0742.2758zm.1563-.7558a1.5535 1.5535 0 0 0 .9238-.2818 1.8178 1.8178 0 0 0 .6113-.78 3.0163 3.0163 0 0 0 .2285-1.1582v-.0356a2.8324 2.8324 0 0 0 -.2216-1.1582 1.785 1.785 0 0 0 -.6182-.7681 1.5848 1.5848 0 0 0 -.9121-.27 1.6317 1.6317 0 0 0 -.9365.2764 1.7491 1.7491 0 0 0 -.6241.78 2.9745 2.9745 0 0 0 -.2158 1.1757 2.5032 2.5032 0 0 0 .4863 1.6143 1.56 1.56 0 0 0 1.2784.6056z" fill="#45954b"/><path d="m295.645 276.839-2.599-16.177h-26.276v60.985h45.345v-42.696z" fill="#80ad7a"/><path d="m294.223 260.662 2.433 15.147 15.459 1.982z" fill="#80ad7a"/><path d="m273.569 289.8684a14.862 14.862 0 0 0 -.2628-3.0773 4.25 4.25 0 0 0 -1.0883-2.064 5.2355 5.2355 0 0 0 -2.3265-1.3132v-.6008l13.7344-2.7768h.2252v5.7794a15.9183 15.9183 0 0 1 4.7284-4.6909 11.9691 11.9691 0 0 1 11.9335-.1878 9.9034 9.9034 0 0 1 3.94 4.4283 16.3609 16.3609 0 0 1 1.3884 7.0547v16.0614a18.45 18.45 0 0 0 .2625 3.49 4.2272 4.2272 0 0 0 .9008 2.0266 5.1054 5.1054 0 0 0 1.9892 1.2379v.6756h-15.7614v-.6756a3.8886 3.8886 0 0 0 1.4637-1.2758 5.9663 5.9663 0 0 0 .7507-2.064 18.0569 18.0569 0 0 0 .2626-3.4145v-15.6864a10.452 10.452 0 0 0 -.6382-3.9028 4.94 4.94 0 0 0 -1.8388-2.3638 5.3586 5.3586 0 0 0 -3.002-.7882 6.4441 6.4441 0 0 0 -2.6267.563 5.8845 5.8845 0 0 0 -2.2517 1.8009 8.8052 8.8052 0 0 0 -1.501 3.1151v17.262a21.6913 21.6913 0 0 0 .2251 3.4524 5.1973 5.1973 0 0 0 .7132 2.064 4.0277 4.0277 0 0 0 1.4634 1.2379v.6756h-16.2113v-.6756a5.9074 5.9074 0 0 0 2.3267-1.2758 3.6831 3.6831 0 0 0 .9757-2.0261 20.8213 20.8213 0 0 0 .2252-3.4524z" fill="#fff" opacity=".9"/><path d="m276.585 338.2163q.0059-.2579 0-.5581t-.0059-.66v-4.86q0-.36.0059-.666c.0039-.2041.0039-.39 0-.5581s-.002-.34.0058-.5157h2.6768a4.0655 4.0655 0 0 1 1.5654.2637 2.0062 2.0062 0 0 1 .9365.7319 1.9086 1.9086 0 0 1 .3057 1.0684 1.7887 1.7887 0 0 1 -.5938 1.374 2.67 2.67 0 0 1 -1.6025.6421l.0479-.0962a3.2591 3.2591 0 0 1 1.41.3238 2.2228 2.2228 0 0 1 .876.7563 1.78 1.78 0 0 1 .2939.9839 2.0546 2.0546 0 0 1 -.3418 1.1641 2.3325 2.3325 0 0 1 -1.0195.8217 3.8994 3.8994 0 0 1 -1.6143.3062h-2.94c-.0081-.1758-.01-.3501-.0061-.522zm2.5859-4.1821a2.9224 2.9224 0 0 0 1.0381-.1621 1.3686 1.3686 0 0 0 .6543-.4859 1.3879 1.3879 0 0 0 .2275-.8159 1.1491 1.1491 0 0 0 -.498-.9839 2.3746 2.3746 0 0 0 -1.4092-.36h-1.62v2.8081zm-1.6074.84v3.0358h1.7041a3.6249 3.6249 0 0 0 1.1933-.1739 1.6767 1.6767 0 0 0 .7745-.5161 1.2875 1.2875 0 0 0 .2753-.834 1.2473 1.2473 0 0 0 -.6171-1.1279 3.2639 3.2639 0 0 0 -1.7227-.3838z" fill="#45954b"/><path d="m284.1865 338.5942v-8.4121l.9248.0122v8.544h-.9248z" fill="#45954b"/><path d="m288.4111 338.87a1.754 1.754 0 0 1 -1.1884-.414 1.3757 1.3757 0 0 1 -.4795-1.0977 1.2342 1.2342 0 0 1 .2636-.8042 1.8813 1.8813 0 0 1 .708-.522 7.087 7.087 0 0 1 1.0918-.3657l1.5-.3721.0118.6358-1.3555.372a3.9129 3.9129 0 0 0 -.6719.2339 1.1811 1.1811 0 0 0 -.42.3184.6973.6973 0 0 0 -.1563.4556.7263.7263 0 0 0 .252.6 1.015 1.015 0 0 0 .66.2041 1.5429 1.5429 0 0 0 .7617-.2041 1.6076 1.6076 0 0 0 .6064-.6177 1.977 1.977 0 0 0 .2393-1.0025v-1.2475a1.2521 1.2521 0 0 0 -.39-1.02 1.6093 1.6093 0 0 0 -1.0615-.3243 3.187 3.187 0 0 0 -.9248.1382 3.8868 3.8868 0 0 0 -.876.39l-.0117-.7676a3.3093 3.3093 0 0 1 .8945-.4023 3.7506 3.7506 0 0 1 1.0616-.15 2.8006 2.8006 0 0 1 1.14.2222 1.6871 1.6871 0 0 1 .792.7139 2.412 2.412 0 0 1 .2881 1.2358v3.66h-.9121v-.9238a2.0391 2.0391 0 0 1 -.8037.8037 2.1653 2.1653 0 0 1 -1.0194.2519z" fill="#45954b"/><path d="m295.4062 338.87a3.1274 3.1274 0 0 1 -1.5654-.39 2.654 2.654 0 0 1 -1.0566-1.0743 3.2 3.2 0 0 1 -.3653-1.5361 3.0939 3.0939 0 0 1 .3721-1.5239 2.69 2.69 0 0 1 1.05-1.0562 3.0757 3.0757 0 0 1 1.542-.3838 3.5429 3.5429 0 0 1 .8223.0962 2.46 2.46 0 0 1 .7011.2759v.7681a5.0825 5.0825 0 0 0 -.6835-.252 2.5244 2.5244 0 0 0 -.6963-.0962 2.271 2.271 0 0 0 -1.1221.27 1.908 1.908 0 0 0 -.7559.7622 2.3357 2.3357 0 0 0 -.2695 1.14 2.3963 2.3963 0 0 0 .2695 1.1582 1.9227 1.9227 0 0 0 .7627.7739 2.2849 2.2849 0 0 0 1.14.2759 2.68 2.68 0 0 0 .7256-.102 4.1641 4.1641 0 0 0 .75-.294v.7564a2.7214 2.7214 0 0 1 -.7676.3237 3.4 3.4 0 0 1 -.8531.108z" fill="#45954b"/><path d="m298.49 338.4321v-7.4221q0-.2278-.0058-.4258c-.0039-.1324-.0059-.2622-.0059-.39v-.0122l.9365.0122h-.0127v8.2442c0 .104.0039.2036.0127.3h-.9365q.0117-.1444.0117-.3063zm.5762-1.5058-.0957-.9478 1.7881-1.68q.3471-.3237.666-.624t.6416-.6362h1.2246q-.3252.3-.6846.6181t-.7919.7139zm3.3359 1.812-2.5078-3.0239.6836-.5762 3.0127 3.6z" fill="#45954b"/><path d="m156.3067 195.9182c0 16.2-88.3012 13.9893-118.0345 48.9" fill="none" stroke="#45954b" stroke-miterlimit="10" stroke-width="4"/><path d="m34.569 239.992-1.196 11.906 10.909-4.916z" fill="#45954b"/><path d="m156.3885 195.9182c0 16.0686-52.1213 14.0241-70.3779 48.0546" fill="none" stroke="#45954b" stroke-miterlimit="10" stroke-width="4"/><path d="m81.399 239.996 1.229 11.902 9.694-7.014z" fill="#45954b"/><path d="m156.47 195.9182c0 15.9732-17.1682 14.0477-23.35 47.4525" fill="none" stroke="#45954b" stroke-miterlimit="10" stroke-width="4"/><path d="m127.576 240.734 4.308 11.164 7.515-9.311z" fill="#45954b"/><path d="m156.5523 195.9182c0 15.9732 17.1683 14.0477 23.35 47.4525" fill="none" stroke="#45954b" stroke-miterlimit="10" stroke-width="4"/><path d="m173.624 242.587 7.515 9.311 4.308-11.164z" fill="#45954b"/><path d="m156.6342 195.9182c0 16.0686 52.1214 14.0241 70.378 48.0546" fill="none" stroke="#45954b" stroke-miterlimit="10" stroke-width="4"/><path d="m220.701 244.884 9.694 7.014 1.229-11.902z" fill="#45954b"/><path d="m156.7161 195.9182c0 16.2 88.3012 13.9893 118.0345 48.9" fill="none" stroke="#45954b" stroke-miterlimit="10" stroke-width="4"/><path d="m268.741 246.982 10.909 4.916-1.196-11.906z" fill="#45954b"/><path d="m134.521 22.08-2.6641-7.7041.3482-.0479v7.752h-1.5362v-8.34h2.52l2.5922 7.4878h-.5639l2.6158-7.4878h2.376v8.34h-1.5357v-7.728l.42-.0962-2.7364 7.8242z" fill="#45954b"/><path d="m141.373 21.69q.0718-.1861.1441-.378.0842-.216.1738-.4619t.1983-.5342l2.46-6.5757h1.8838l2.5322 6.564q.156.408.2759.72c.08.2085.1519.3941.2163.5581s.1275.33.1919.4981h-1.728q-.0843-.2637-.18-.522t-.2041-.5639q-.1077-.3061-.24-.6783l-2.148-5.8916h.648l-2.1118 5.8916q-.1326.36-.24.666t-.2041.57q-.0958.2635-.18.5278h-1.644c.0556-.1362.1079-.2665.1557-.39zm1.7642-1.71v-1.3443h3.9478v1.3443z" fill="#45954b"/><path d="m152.833 22.2476a4.0952 4.0952 0 0 1 -2.52-.8521v-1.4155a4.8939 4.8939 0 0 0 1.1821.6719 3.2738 3.2738 0 0 0 1.17.2163 3.0338 3.0338 0 0 0 .8038-.1021 1.36 1.36 0 0 0 .6059-.33.7688.7688 0 0 0 .2344-.5761.7833.7833 0 0 0 -.2642-.5938 3.0125 3.0125 0 0 0 -.8637-.498l-1.08-.4561a3.3228 3.3228 0 0 1 -1.2964-.9179 2.0317 2.0317 0 0 1 -.4556-1.3262 2.1959 2.1959 0 0 1 .3838-1.2539 2.6593 2.6593 0 0 1 1.08-.9058 3.6257 3.6257 0 0 1 1.5957-.3359 4.3052 4.3052 0 0 1 1.1821.1616 3.26 3.26 0 0 1 .9541.4263v1.3681a3.9733 3.9733 0 0 0 -.9482-.4321 3.3579 3.3579 0 0 0 -.9717-.144 2.6687 2.6687 0 0 0 -.834.12 1.3292 1.3292 0 0 0 -.5762.3476.8021.8021 0 0 0 -.21.564.8517.8517 0 0 0 .2578.6362 2.7064 2.7064 0 0 0 .834.4922l1.0444.4317a3.5233 3.5233 0 0 1 1.356.9243 1.94 1.94 0 0 1 .4677 1.2959 2.1194 2.1194 0 0 1 -.414 1.2778 2.721 2.721 0 0 1 -1.1338.8882 3.88 3.88 0 0 1 -1.584.3174z" fill="#45954b"/><path d="m159.4932 21.5576v-6.4741h-2.6758v-1.3435h6.96v1.3438h-2.6762v6.9962h-1.6079z" fill="#45954b"/><path d="m170.7974 22.08h-5.8321v-8.34h5.7119v1.3438h-4.104v2.1479h3.5762v1.3443h-3.5762v2.16h4.2242z" fill="#45954b"/><path d="m172.2256 21.5576v-7.8176h3a4.1884 4.1884 0 0 1 1.626.294 2.4944 2.4944 0 0 1 1.0859.8218 2.0272 2.0272 0 0 1 .3838 1.2241 2.1021 2.1021 0 0 1 -.3779 1.2358 2.4025 2.4025 0 0 1 -1.0982.834 4.4518 4.4518 0 0 1 -1.6919.294v-.0718l.9722-.3482 3.1079 4.0562h-1.9683l-2.6279-3.5762h-.8272v3.5763h-1.584zm2.9038-4.3379a2.1291 2.1291 0 0 0 .8159-.144 1.2094 1.2094 0 0 0 .5342-.4019.9906.9906 0 0 0 .186-.5942.8877.8877 0 0 0 -.4082-.78 1.9918 1.9918 0 0 0 -1.1279-.2764h-1.32v2.1968z" fill="#45954b"/><path d="m182.4731 22.2476a4.0952 4.0952 0 0 1 -2.52-.8521v-1.4155a4.8944 4.8944 0 0 0 1.1822.6719 3.2734 3.2734 0 0 0 1.17.2163 3.033 3.033 0 0 0 .8037-.1021 1.36 1.36 0 0 0 .6059-.33.7688.7688 0 0 0 .2344-.5761.7835.7835 0 0 0 -.2641-.5938 3.0148 3.0148 0 0 0 -.8638-.498l-1.08-.4561a3.3236 3.3236 0 0 1 -1.2964-.9179 2.0316 2.0316 0 0 1 -.4555-1.3262 2.1958 2.1958 0 0 1 .3837-1.2539 2.66 2.66 0 0 1 1.08-.9058 3.6257 3.6257 0 0 1 1.5957-.3359 4.306 4.306 0 0 1 1.1822.1616 3.2627 3.2627 0 0 1 .9541.4263v1.3681a3.9757 3.9757 0 0 0 -.9483-.4321 3.3574 3.3574 0 0 0 -.9717-.144 2.6676 2.6676 0 0 0 -.8339.12 1.328 1.328 0 0 0 -.5762.3476.8017.8017 0 0 0 -.21.564.8521.8521 0 0 0 .2578.6362 2.7064 2.7064 0 0 0 .834.4922l1.0444.4317a3.5233 3.5233 0 0 1 1.356.9243 1.94 1.94 0 0 1 .4678 1.2959 2.1188 2.1188 0 0 1 -.4141 1.2778 2.721 2.721 0 0 1 -1.1338.8882 3.88 3.88 0 0 1 -1.5841.3174z" fill="#45954b"/><path d="m36.6 43.94v-12.632h243.05v12.632" fill="none" stroke="#45954b" stroke-miterlimit="10"/><path d="m158.125 25.0798v6.2284" fill="none" stroke="#45954b" stroke-miterlimit="10"/><path d="m125.48 370.2256v-7.8174h1.6079v8.34h-1.6079z" fill="#45954b"/><path d="m129.1875 370.2256v-7.8174h2.4l3.72 7.416h-.4077v-7.416h1.584v8.34h-2.376l-3.9-7.7763.564-.0723v7.8486h-1.584z" fill="#45954b"/><path d="m140.8271 370.916a4.0994 4.0994 0 0 1 -2.52-.8525v-1.416a4.8771 4.8771 0 0 0 1.1822.6718 3.2609 3.2609 0 0 0 1.17.2168 3.0123 3.0123 0 0 0 .8037-.1025 1.3556 1.3556 0 0 0 .6059-.33.7682.7682 0 0 0 .2344-.5762.7842.7842 0 0 0 -.2641-.5937 3.0146 3.0146 0 0 0 -.8638-.4981l-1.08-.456a3.3187 3.3187 0 0 1 -1.2964-.918 2.03 2.03 0 0 1 -.4555-1.3261 2.198 2.198 0 0 1 .3838-1.254 2.6547 2.6547 0 0 1 1.08-.9052 3.6188 3.6188 0 0 1 1.5957-.336 4.3211 4.3211 0 0 1 1.1822.1612 3.2628 3.2628 0 0 1 .9541.4267v1.3682a3.9761 3.9761 0 0 0 -.9483-.4326 3.374 3.374 0 0 0 -.9717-.1436 2.6705 2.6705 0 0 0 -.8339.12 1.3225 1.3225 0 0 0 -.5762.3477.8.8 0 0 0 -.21.5635.8526.8526 0 0 0 .2578.6367 2.7084 2.7084 0 0 0 .834.4922l1.0445.4316a3.5244 3.5244 0 0 1 1.3559.9238 1.9412 1.9412 0 0 1 .4678 1.2959 2.1193 2.1193 0 0 1 -.4141 1.2784 2.7256 2.7256 0 0 1 -1.1338.8877 3.88 3.88 0 0 1 -1.5842.3183z" fill="#45954b"/><path d="m147.4873 370.2256v-6.4736h-2.6758v-1.3438h6.96v1.3438h-2.6763v6.996h-1.6079z" fill="#45954b"/><path d="m151.5791 370.3574c.0479-.124.0962-.25.144-.3779q.0843-.2154.1739-.4619t.1982-.5342l2.46-6.5752h1.8838l2.5322 6.5635c.104.2724.1958.5117.2759.72s.1518.3945.2163.5586.1274.33.1919.498h-1.7281c-.0561-.1757-.1162-.3505-.18-.5224s-.1319-.3594-.2041-.5635-.1519-.4307-.24-.6787l-2.1479-5.8916h.6479l-2.1118 5.8916c-.0884.24-.1685.4629-.24.666s-.14.3945-.2041.57-.1241.3526-.18.5283h-1.6441c.0559-.1357.1081-.2666.156-.3906zm1.7642-1.71v-1.3438h3.9477v1.3438z" fill="#45954b"/><path d="m161.0234 370.2256v-7.8174h2.4l3.72 7.416h-.4077v-7.416h1.5839v8.34h-2.3759l-3.9-7.7763.5639-.0723v7.8486h-1.584z" fill="#45954b"/><path d="m174.439 370.916a5.1629 5.1629 0 0 1 -2.334-.5224 4.0279 4.0279 0 0 1 -1.6621-1.5059 4.6163 4.6163 0 0 1 .0122-4.6143 4.1194 4.1194 0 0 1 1.6621-1.5117 4.9157 4.9157 0 0 1 2.2378-.5215 5.2515 5.2515 0 0 1 1.2959.1612 4.4348 4.4348 0 0 1 1.164.4746v1.344a6.3977 6.3977 0 0 0 -1.104-.45 3.8656 3.8656 0 0 0 -1.08-.1494 3.5194 3.5194 0 0 0 -1.6021.3535 2.6248 2.6248 0 0 0 -1.0976 1.0205 3.0027 3.0027 0 0 0 -.396 1.5655 3.0767 3.0767 0 0 0 .4018 1.6084 2.609 2.609 0 0 0 1.104 1.0195 3.5544 3.5544 0 0 0 1.6021.3486 4.1374 4.1374 0 0 0 1.14-.1621 5.9071 5.9071 0 0 0 1.1636-.4863v1.3437a4.4569 4.4569 0 0 1 -1.188.5166 5.0828 5.0828 0 0 1 -1.3197.1675z" fill="#45954b"/><path d="m184.2549 370.748h-5.832v-8.34h5.7119v1.3438h-4.104v2.1474h3.5761v1.3447h-3.5761v2.1592h4.2241z" fill="#45954b"/><path d="m187.94 370.916a4.0994 4.0994 0 0 1 -2.52-.8525v-1.416a4.8771 4.8771 0 0 0 1.1822.6718 3.2609 3.2609 0 0 0 1.17.2168 3.0123 3.0123 0 0 0 .8037-.1025 1.3565 1.3565 0 0 0 .606-.33.7685.7685 0 0 0 .2343-.5762.7842.7842 0 0 0 -.2641-.5937 3.0146 3.0146 0 0 0 -.8638-.4981l-1.08-.456a3.3187 3.3187 0 0 1 -1.2964-.918 2.03 2.03 0 0 1 -.4555-1.3261 2.198 2.198 0 0 1 .3838-1.254 2.6547 2.6547 0 0 1 1.08-.9052 3.6188 3.6188 0 0 1 1.5957-.336 4.3211 4.3211 0 0 1 1.1822.1612 3.2628 3.2628 0 0 1 .9541.4267v1.3682a3.9761 3.9761 0 0 0 -.9483-.4326 3.374 3.374 0 0 0 -.9717-.1436 2.6705 2.6705 0 0 0 -.8339.12 1.3225 1.3225 0 0 0 -.5762.3477.8006.8006 0 0 0 -.21.5635.8526.8526 0 0 0 .2578.6367 2.7084 2.7084 0 0 0 .834.4922l1.0445.4316a3.5244 3.5244 0 0 1 1.3559.9238 1.9412 1.9412 0 0 1 .4678 1.2959 2.1193 2.1193 0 0 1 -.4141 1.2784 2.7256 2.7256 0 0 1 -1.1338.8877 3.88 3.88 0 0 1 -1.5842.3183z" fill="#45954b"/><path d="m4.573 339.388v12.631h307.104v-12.631" fill="none" stroke="#45954b" stroke-miterlimit="10"/><path d="m158.125 358.2475v-6.2284" fill="none" stroke="#45954b" stroke-miterlimit="10"/></svg>